<svg width="661" height="659" xmlns="http://www.w3.org/2000/svg">
  <g fill="none" fill-rule="evenodd">
    <path d="M660.102 334.757c0 184.738-140.298 324.24-325.036 324.24S.566 509.234.566 324.496C.567 139.756 152.153.256 336.89.256s323.212 149.76 323.212 334.5" fill="#000"/>
    <g transform="translate(28 30.391)">
      <path d="M528.185 151.58c2.609 5.03 2.974 5.063 7.846 2.615 4.1-2.06 8.747-3.93 12.41-6.084 4.5-1.078 5.604-6.783 2.877-10.908-3.243-4.905-6.57-9.755-10.23-15.175 2.598.333 3.086 1.852 3.854 2.996 4.543 6.767 8.99 13.598 13.603 20.316 1.463 2.131 1.965 3.946.457 6.316-3.3 5.185-6.331 10.541-9.597 15.748-1.207 1.922-2.617 3.778-5.051 5.103-1.18-3.784-4.627-5.824-5.535-9.808-.713-3.13-2.258-2.763-4.652-.192-2.294 2.463-6.155 3.08-7.753 7.17-3.14-4.694-6.707-7.016-11.548-7.088-2.602-.039-3.924-1.876-4.41-4.07-.608-2.752-2.325-3.336-4.734-3.289-2.942.057-5.774 1.11-8.841.465-1.691-.354-2.707 1.536-3.777 2.843-4.355 5.312-8.805 10.545-13.38 15.996-9.568-13.235-15.858-27.385-19.286-43.945 19.8 7.48 37.855 16.927 58.584 20.52-1.305-4.82-3.568-7.349-7.402-8.544-30.688-9.563-59.742-22.775-87.748-38.522-15.062-8.469-29.582-17.817-44.593-26.347-3.331-1.892-6.19-4.326-6.576-8.61 38.157 20.554 76.206 41.013 119.309 49.611-1.598-4.175-3.87-7.182-8.141-8.586-14.947-4.91-29.845-10.02-44.285-16.262-21.002-9.08-41.777-18.65-61.77-29.887-3.951-2.222-8.062-4.987-13.55-5.826.625 7.1 7.646 28.445 8.113 29.572 5.826 14.05 13.537 27 22.937 38.96 3.989 5.075 13.25 15.06 15.069 16.873 2.274 2.265 4.476 3.406 6.783 6.06-4.69 2.42-8.674 1.071-11.962-1.85-5.668-5.04-21.677-22.194-24.108-25.577-2.522-3.513-5.312-6.832-7.874-10.319-5.597-7.615-11.193-15.255-15.487-23.7-2.661-5.23-4.893-10.684-7.242-16.07-1.05-2.403-.89-4.133 2.109-5.378 4.507-1.87 6.806-5.54 6.75-10.599-.022-2.104.359-4.213.623-7.019 15.898 8.15 31.512 15.322 47.373 21.957 15.822 6.62 32.043 11.97 48.695 16.714.243-2.895-1.523-3.617-2.806-4.49-4.942-3.365-9.953-6.525-15.646-8.674-18.467-6.974-36.946-13.937-54.71-22.63-5.95-2.913-11.93-5.805-18.074-8.264-3.354-1.342-4.318-3.173-3.152-6.537 16.079 7.201 45.996 15.076 53.523 18.103 3.264.775 5.416.693 6.225-2.297.569-2.104.494-3.676-2.314-4.42-16.218-4.3-58.447-16.845-57.728-20.904.58-3.28 1.159-11.31 1.503-12.017.84-1.729 2.363-.962 3.525-.627 12.049 3.47 50.2 16.02 59.02 19.223 4.954 2.063 11.122 4.592 9.918 7.063-1.674 3.433-3.354 6.89-5.381 10.115-2.586 4.114-4.424 6.938-.295 11.534 3 1.125 35.063 20.612 47.886 32.281 13.063 11.887 26.118 23.828 36.745 38.085.61.82 13.89 18.043 13.9 18.275" fill="#FFF"/>
      <path d="M361.32 320.074c.444-7.154 1.23-14.022 1.275-20.934.034-5.032-.602-6.072-5.525-5.458-3.799.474-7.596.768-11.406 1.052-3.035.227-4.582 1.601-4.54 5.08.046 4.142-.925 8.288-1.037 12.444-.069 2.514-1.066 2.466-2.63 1.534-2.328-1.389-3.32-3.546-3.297-6.287.031-3.794.096-7.607-.929-11.9-4.944.447-9.87.585-14.672 1.427-3.544.62-6.393.116-9.28-2.013-3.516-2.59-7.299-4.82-10.727-8.09 2.885-.375 5.76-.898 8.657-1.099 22.853-1.593 45.711-3.097 68.564-4.687 9.067-.63 18.131-1.342 27.182-2.173 2.161-.199 4.025-.21 5.015 1.994 3.75 8.346 10.764 12.633 19.577 15.426-1.364 6.567-2.717 13.015-4.035 19.471-.482 2.365-2.382 1.951-3.948 2.025-12.578.59-25.154 1.31-37.739 1.621-6.599.163-13.165 1.326-20.505.567" fill="#FFF"/>
      <path d="M285.277 1.23c1.666-1.111 43.666 1.834 65.436 3.981 1.485.146 2.994.243 4.447.561 1.53.334 1.703 1.256 1.585 2.906-.333 4.63-4.394 47.072-4.86 49.301-.589 2.816-2.62 3.912-5.545 3.676-6.62-.533-57.75-4.231-59.049-4.474-4.598-.862-6.182-2.422-5.877-7.036.634-9.588 2.776-48.19 3.863-48.915" fill="#FFF"/>
      <path d="M520.03 336.371c.935 9.716 1.42 18.65 1.112 28.167-6.605-3.265-12.823-6.174-20.447-4.214-7.855 2.02-10.662 9.005-15.898 14.188-2.715-3.969-6.648-5.273-10.972-5.849-3.43-.457-6.425-1.92-8.427-4.792-3.023-4.335-7.442-5.369-12.219-5.245-2.767.072-5.457-.276-7.54-1.818-3.65-2.702-7.383-2.624-11.278-1.242-1.978.703-3.639.954-5.66-.055-2.764-1.38-5.97-1.48-8.785-.493-3.215 1.128-5.616-.108-8.487-1.063-4.194-1.397-7.558-4.118-11.446-5.932-4.099-1.912-8.093-3.978-12.933-7.05l132.98-4.602" fill="#FFF"/>
      <path d="M178.886 257.696c-1.838 3.342-4.243 3.108-6.5 2.472-6.705-1.894-13.597-3.065-20.4-4.293-7.13-1.288-14.43-1.89-21.58-3.31-26.2-5.207-52.405-10.395-77.911-18.52-1.572-.5-3.082-1.308-4.742-.422-.754 5.691.075 7.171 5.398 8.681 21.535 6.115 43.4 10.796 65.299 15.413 11.797 2.487 23.68 3.755 35.453 6.305 2.042.458 9.832 1.813 10.947 2.28-2.712 1.253-2.53 1.845-7.901 1.266-1.38.08-93.574-13.2-118.227-19.284-3.027-.72-15.293-7.303.46-19.642 6.3-4.042 12.644-7.05 19.225-10.542 1.637 3.955 4.187 5.868 8.202 7.087 5.078 1.542 6.213-2.765 9.096-4.352 32.607 17.143 68.083 26.234 103.18 36.861" fill="#FFF"/>
      <path d="M262.312 56.348c5.198-5.967 8.29-12.403 12.498-18.376.613 3.312.49 6.369-.07 9.44-1.84 10.11 3.686 16.698 13.935 17.245 16.108.859 32.198 2.06 48.301 3.024 2.334.14 3.514 1.122 4.409 3.238 3.875 9.153 8.805 17.766 13.88 26.289 1.322 2.219 1.802 4.036-.21 6.246-2.134 2.346-3.161 5.349-3.978 8.457-.61 2.318-.928 4.998-3.808 6.514-30.435-17.256-57.572-39.286-84.957-62.077" fill="#FFF"/>
      <path d="M281.413 546.288c5.193-3.298 22.431-25.824 24.454-25.599 3.91.437 3.348 3 8.943 2.987 3.348-.008 11.708-4.812 12.3-6.445 2.083-5.75 1.588-8.588 2.167-14.992.502-5.549 13.44-13.23 14.721-13.886 11.93-6.106 30.534-6.53 40.417 6.238 6.702 8.658 7.36 22.9-1.19 31.842-5.372 5.615-12.002 6.136-18.896 4.525-5.149-1.203-8.366-8.098-6.997-13.653.98-3.979 5.86-6.806 11.062-5.747 1.928.392 5.842-7.956 3.05-11.995-6.333-6.655-19.5-5.067-25.833 0-6.724 2.953-6.75 11.334-3.644 11.403 13.81-2.384 11.55 15.65 7.477 17.597-2.256 1.08-9.833 1.56-9.745-1.93.657-1.257 1.404-2.435.255-3.59-1.105-1.114-2.46-.566-3.696.014-4.207 1.965-8.524 3.745-12.647 5.814-2.867 1.44-27.988 14.887-34.855 18.957-1.673.992-7.252-1.188-7.343-1.54" fill="#FFF"/>
      <path d="M477.78 532.377c.99-6.258 2.876-11.998 3.847-18.043 1.816-11.313-.174-21.964-4.559-32.276-3.955-9.306-8.497-18.368-12.299-27.732-4.615-11.366-5.205-22.897.156-34.334 4.924-10.498 14.557-14.806 25.562-11.335 10.04 3.166 13.491 16.306 6.29 23.943-3.613 3.833-9.457 2.459-11.718-2.622-1.008-2.266-.794-4.55-.739-6.858.033-1.437-.178-2.785-1.662-3.248-1.473-.459-2.53.532-3.287 1.682-1.277 1.945-2.33 4.012-3.008 6.254-3.73 12.351-1.258 23.851 4.63 34.959 5.963 11.252 9.142 23.373 11.31 35.873.79 7.486.65 7.747.724 10.424.523 7.246-.59 12.91-6.94 17.073-2.89 1.894-5.546 4.149-8.308 6.24" fill="#FFF"/>
      <path d="M253.178 68.811c1.9-2.804 3.156-5.168 5.676-6.954 13.044 11.525 26.938 22.019 40.57 32.838 13.633 10.819 28.867 19.235 44.335 28.27-3 3.77-6.216 6.782-9.391 9.827-1.018.978-2.031.446-3.201.089-19.767-6.026-38.272-14.553-55.157-26.638-3.368-2.41-6.278-5.228-9.8-7.646 1.698-2.892 4.464-4.637 5.585-7.737 2.672-7.386 1.673-11.156-4.725-15.761-2.734-1.969-5.877-3.063-8.954-4.306-1.502-.606-3.007-1.207-4.938-1.982" fill="#FFF"/>
      <path d="M454.742 126.84c-2.206 4.438-4.182 8.4-6.145 12.369-.635 1.284-1.668 1.924-3.044 2.315-5.715 1.625-11.39 3.387-17.11 4.999-1.525.429-3.113 1.075-4.656-.342-9.485-8.708-18.358-17.808-25.959-28.403-7.588-10.574-12.792-22.324-19.389-33.585 24.852 15.185 49.168 31.108 76.303 42.648" fill="#FFF"/>
      <path d="M506.201 253.751c-1.668-1.613-.908-3.711-2.31-4.847-1.737-.602-2.808.587-4.43 1.4 2.84 4.711 7.855 8.236 7.42 14.384-2.157.489-2.588-.953-3.19-2.079-.842-1.571-1.876-2.798-3.875-2.341-.832.19-1.51.699-1.53 1.707-.05 2.297 1.508 3.076 3.358 3.682 1.8.589 3.86.907 4.64 3.163-1.636 1.307-3.315.949-4.905.887-1.504-.058-2.786.421-3.157 1.848-.736 2.84 1.11 5.419 1.192 8.26.031 1.036 1.943.757 3.023.173 1.453-.785 2.731-1.916 4.422-2.24.208.259.63.594.572.739-3.2 8.14-6.613 16.082-14.266 21.321-5.654 3.87-15.987 4.099-20.936-.033.867-2.672 6.456-1.838 4.97-6.186-1.185-3.464-4.227-.228-6.11-1.586-2.663-11.313 3.825-20.293 15.633-21.339 2.656-.234 5.296-.425 7.906-1.01 1.443-.323 2.665-.922 2.468-2.545-.173-1.438-1.5-1.621-2.717-1.548-9.942.594-14.657-5.418-17.427-13.823-1.34-4.063-2.966-8.055-3.546-12.194 1.314-1.999 3.613.024 5.03-1.731 1.365-1.691-.134-3.175.191-4.697 11.094-2.456 29.703 11.18 27.574 20.635" fill="#FFF"/>
      <path d="M449.654 430.499c-2.689 7.513-4.415 14.304-2.484 21.562 1.516 5.701 4.4 10.704 7.408 15.625 5.305 8.68 9.19 17.567 11.008 27.901 2.351 13.378 2.752 26.657 2.768 40.085.003 2.89-1.055 4.555-3.489 5.944-3.569 2.039-6.943 4.422-10.798 6.915.096-4.969 1.57-9.324 2.39-13.745 3.343-18.055-.256-34.57-10.076-49.964-3.4-5.331-7.364-10.239-10.85-15.494-5.612-8.458-7.805-26.067 3.568-34.238 2.957-2.126 5.987-3.974 10.555-4.591" fill="#FFF"/>
      <path d="M300.365 553.007c5.662-4.476 34.412-8.943 42.925-8.4 16.846.452 32.292 5.454 46.512 14.353 5.624 3.52 12.038 8.116 16.867 12.729-9.642 4.29-11.76 5.343-17.736.88-12.66-9.454-26.93-15.264-42.722-15.672-10.4-.27-21.04.044-31.043 3.82-2.567.97-4.299.657-6.289-1.103-2.594-2.294-5.468-4.27-8.514-6.607" fill="#FFF"/>
      <path d="M205.467 244.805c-4.52 4.642-9.234 4.823-14.443 2.563-12.567-5.454-25.271-10.603-37.723-16.304-16.573-7.587-32.475-16.416-47.146-27.322-.51-.38-.89-.94-1.684-1.797 3.506-.101 6.568 1.564 9.518.323 2.856-1.2 5.568-2.745 8.207-4.07 1.332.852.919 1.94.903 2.874-.14 8.325 3.89 14.248 10.726 18.48 3.534 2.189 6.994 2.34 10.63-.258 5.2-3.716 9.84-7.9 13.488-14.115 8.163 6.806 14.16 15.463 22.72 21.108 8.593 5.666 15.772 13.103 24.804 18.518" fill="#FFF"/>
      <path d="M206.084 308.187c-1.838-1.478-1.136-3.587-2.377-4.683-.272-.108-.428-.23-.578-.224-11.763.502-11.939.476-13.695 12.367-.57 3.856-2.022 6.058-6.03 6.687 0-4.466-.068-8.767.022-13.065.068-3.206-1.2-4.55-4.51-4.101-4.283.58-8.592 1.043-12.905 1.303-2.243.135-2.685 1.236-2.872 3.156-.468 4.798-1.293 9.563-1.656 14.364-.213 2.822-1.469 3.697-4.1 3.627-2.466-.068-4.94.183-7.75.312 1.182-9.274 2.209-18.259 2.635-27.293.147-3.125 2.256-4.606 4.931-5.27 1.758-.438 3.636-.476 5.464-.522 20.757-.52 41.462-2.038 62.186-3.186.756-.041 1.631-.364 2.632 1.038-7.099 5.137-14.197 10.276-21.397 15.49" fill="#FFF"/>
      <path d="M586.38 230.054c1.002 4.322 2.085 8.01 2.599 11.746.2 1.46-11.764 13.7-11.46 15.072.284 1.275 2.872 2.113 4.313.577 1.477-1.575 5.844-7.12 7.516-6.791 1.906.375 2.013 2.028 2.196 3.494.92 7.423 3.03 30.606 3.495 34.736.336 2.985-.54 4.776-3.533 5.53-1.922.485-9.368 1.54-11.355 1.603-18.124.559-23.561-16.395-25.54-19.445-1.552-2.393-2.822-7.271-.632-9.164 12.175-10.524 31.785-36.795 32.402-37.358" fill="#FFF"/>
      <path d="M177.559 395.743c.654-9.599 3.719-17.763 5.03-26.27.293-1.905 1.676-2.717 4.024-2.68 10.95.176 21.905-.089 32.858-.002 18.199.145 36.398.51 54.598.65 14.133.11 28.267.022 43.023.022-.17 10.36-1.382 19.986-3.384 29.96-45.09-.05-90.424-.948-136.15-1.68" fill="#FFF"/>
      <path d="M254.53 122.693c6.543-5.255 6.565-7.134.485-16.6 2.656-2.99 4.807-3.108 8.309-.36 6.897 5.413 14.406 10.053 21.836 14.77 13.217 8.388 27.573 13.848 42.873 17.45-2.214 3.606-4.923 5.16-9.11 4.607-10.925-1.442-21.692-3.69-32.326-6.444-8.702-2.252-17.447-4.42-25.973-7.386-3.155-1.098-5.206-2.616-6.093-6.037" fill="#FFF"/>
      <path d="M186.198 185.416c17.293 10.12 35.188 18.067 54.713 22.636-1.492 6.718-3.91 12.764-7.201 18.518-1.121 1.958-2.683 2.711-4.426 1.741-4.89-2.723-28.62-18.684-33.676-22.785-3.747-2.629-6.16-4.253-8.852-6.989-5.744-5.838-5.854-5.834-.558-13.121" fill="#FFF"/>
      <path d="M440.193 490.482c4.422 4.101 7.834 4.014 1.418 11.671-7.95 9.488-9.886 21.89-9.68 34.287.118 7.127-.144 14.273 1.155 21.336.253 1.383.22 2.661-1.307 3.36-2.813 1.284-5.26 2.575-8.583 3.713-1.687-2.438-2.179-5.106-2.589-7.638-2.075-12.81-3.109-25.66-1.377-38.647.757-5.667 3.36-10.659 4.862-16.035.396-1.415 1.394-2.104 2.88-2.359 3.254-.56 13.566-5.759 13.221-9.688" fill="#FFF"/>
      <path d="M393.214 401.487c-.087-6.313 2.512-10.04 7.937-11.52 2.212-.605 4.265-.348 6.269.705 1.943 1.021 2.983 2.51 2.859 4.802-.128 2.34-1.402 3.642-3.51 4.287-.781.24-1.584.458-2.392.55-2.285.256-5.508-.095-5.736 2.72-.23 2.811 1.966 5.235 4.699 6.512 3.658 1.707 7.618 2.538 11.602 2.601 4.3.07 8.66-.223 12.794-1.622 3.487-1.18 11.909-4.915 13.248-5.754 10.227-6.408 16.612-15.06 16.434-27.7-.055-3.956-1.48-7.436-3.106-10.939 4.657-.756 8.988 2.054 10.956 7.114 2.483 6.386 2.045 12.868-.58 18.983-6.472 15.087-18.632 22.878-34.328 25.908-11.208 1.304-34.458 1.93-37.146-16.647" fill="#FFF"/>
      <path d="M141.692 97.383c-.977-2.682.592-4.504 2.276-6.096 1.58-1.492 1.79-3.121 1.145-4.973-.482-1.385-1.667-2.194-3.055-2.201-2.157-.01-2.96 1.856-3.962 3.363-1.003 1.508-1.036 3.22-.586 4.82.963 3.419-.688 5.94-2.56 9.188-1.224-2.517-.379-4.247.077-6.055.44-1.737.964-3.635-.722-5.106-1.35-1.178-2.593-.242-3.59.51-1.898 1.43-1.753 3.404-.972 5.416.782 2.014 2.461 3.953.988 6.114-1.289.31-1.81-.411-1.924-.895-2.243-9.57-5.158-19.238 2.9-27.737 2.422-2.554 2.523-5.985 2.26-8.955-.49-5.532 1.958-8.544 6.492-11.043 7.412-4.086 7.705-4.32 11.354 3.258 6.286 13.053 5.702 30.07-9.1 40.284-.233.16-.635.074-1.02.108" fill="#FFF"/>
      <path d="M168.71 275.009c4.644-4.713 10.95-5.198 15.733-8.742 5.027-3.724 10.969-6.196 16.428-9.36 5.318-3.08 10.55-6.308 15.783-9.535 5.375-3.313 10.735-6.652 16.042-10.073 5.303-3.418 10.589-6.868 15.777-10.457 5.189-3.591 10.237-7.386 15.366-11.064 5.003-3.587 10.09-7.06 15.03-10.733 5.07-3.771 10.092-7.622 14.979-11.63 4.867-3.992 9.54-8.222 14.418-12.452 4.687 2.778 9.007 5.86 12.935 9.354 15.117 13.44 32.53 23.516 49.538 34.182 6.749 4.233 13.586 8.337 20.814 11.729 1.719.807 3.332 1.61 2.636 4.416-3.836-1.202-6.941-3.662-10.284-5.51-17.442-9.634-34.582-19.786-50.493-31.85-6.318-4.79-12.45-9.831-18.617-14.818-3.934-3.18-5.035-3.395-8.514-.378-19.644 17.042-41.178 31.516-62.73 45.934-21.781 14.573-44.273 27.994-67.706 39.785-2.065 1.038-4.094 2.29-7.134 1.202" fill="#FFF"/>
      <path d="M82.08 216.39c4.502-4.44 9.258-7.451 14.159-11.023 13.732 11.393 29.38 19.636 45.379 27.292 15.848 7.583 32.189 13.976 48.842 20.02-1.04 2.04-2.357 1.567-3.754 1.025-12.811-4.97-25.945-9.094-39-13.258-12.574-4.012-24.98-8.431-37.367-12.918-9.286-3.365-18.392-7.227-28.258-11.137" fill="#FFF"/>
      <path d="M107.73 133.797c10.067.945 11.084.285 11.752-7.505 15.073 3.805 22.84 18.37 22.103 34.397-2.105-3.65-3.645-6.746-4.645-10.135-.577-1.96-1.435-3.961-3.91-3.742-1.834.162-3.681.975-3.904 3.189-.233 2.337.58 4.37 2.963 5.19 3.148 1.082 4.405 3.197 4.19 6.665-2.35.03-3.607-1.331-4.721-2.956-1.643-2.396-3.424-3.377-5.223-.211-.771 1.359-1.82 1.68-3.254 1.772-7.452.473-14.097-5.015-14.794-12.434-.443-4.723-1.786-9.436-.556-14.23" fill="#FFF"/>
      <path d="M267.451 8.59c-2.784 13.563-9.52 24.358-15.653 35.91-9.03-8.991-17.49-17.795-25.944-27.277 13.904-3.905 27.156-6.076 41.597-8.632" fill="#FFF"/>
      <path d="M90.15 386.36c-.765-3.515-2.46-5.788-2.578-8.619-.155-3.768-1.603-7.057-3.582-10.186-2.606-4.122-2.55-7.198.623-10.845 3.246-3.732 7.094-6.794 11.543-9.03 3.846 6.157 4.846 7.258 9.586-1.3 4.528 6.041 8.52 11.87 6.838 19.754-.73 3.417-2.561 6.197-6.026 7.22-2.144.632-3.976 1.592-5.6 3.016-1.074.943-1.927 1.428-3.485.65-3.841-1.918-5.53-.908-5.937 3.363-.166 1.735.098 3.527-1.381 5.976" fill="#FFF"/>
      <path d="M59.998 361.7c10.655 1.795 17.896 7.875 23.297 16.551.348.556.93 1.304.787 1.778-1.642 5.45 1.468 10.23 2.05 15.352.119 1.053.006 2.002-1.424 2.625-2.39-1.444-2.28-3.853-2.176-6.31.083-1.965.458-4.018-1.247-5.615-1.144-1.07-2.422-1.996-4-1.372-1.59.63-1.211 2.136-1.005 3.438.098.618.628 1.191.039 2.005-1.303.645-3.785.064-3.694 2.75.979 2.08 3.755 1.062 5.325 3.126-2.053.847-3.608.588-5.29-.12-10.345-4.356-17.151-12.112-21.604-22.195-.554-1.254-.886-2.519-.796-3.86.094-1.406-.651-3.256 1.165-3.963 1.822-.71 2.524.838 3.34 2.158 1.334 2.154 3.053 3.734 5.682 1.8 2.473-1.818 1.895-3.95.318-6.022-.381-.5-1.117-.746-.767-2.126" fill="#FFF"/>
      <path d="M138.031 170.504c.117 2.363-.862 3.29-2.333 3.275-2.943-.031-3.854 1.54-4.566 4.158-1.29 4.738-4.113 8.768-7.742 12.003-4.022 3.584-8.86 5.424-14.254 3.668-2.454-.798-5.279-.5-7.674-2.337.794-2.36 3.921-4.002 1.882-7.033-1.764-2.622-4.667-.995-7.012-2.225 1.3-4.738 5.231-7.122 8.796-9.63 7.7-5.412 15.84-9.736 25.801-7.923 1.325.24 3.696-.433 3.315 1.763-.399 2.302-2.596 2.22-4.33 1.18-1.973-1.182-3.648-.624-4.913.816-1.34 1.523-1.908 3.452-1.134 5.558 1.164 3.168 3.41 3.797 5.45 1.116 2.208-2.903 5.027-3.875 8.714-4.39" fill="#FFF"/>
      <path d="M163.507 198.155c3.403-.268 6.486-.464 9.558-.768 2.491-.247 4.101 1.273 5.575 2.816 7.227 7.567 15.345 14.078 23.871 20.072 4.737 3.33 9.686 6.37 14.652 9.354 2.277 1.368 4.478 2.813 6.575 4.431-.064.096-.123.26-.24.344-10.364 7.567-10.529 7.776-21.347-.746-11.423-8.997-22.913-17.966-32.867-28.662-1.965-2.112-3.732-4.408-5.777-6.84" fill="#FFF"/>
      <path d="M501.86 403.647c14.134.575 26.245.478 39.265-.902 13.07-1.387 25.24-5.956 38.444-10.84-1.755 4.763-3.029 8.442-4.48 12.05-.574 1.425-1.62 2.055-3.427 2.463-17.51 4.52-49.055 9.827-59.26 10.77-8.458.625-9.202-11.45-10.542-13.541" fill="#FFF"/>
      <path d="M484.402 439.313c3.86 3.136 8.857 4.819 12.453 2.23 2.505-4.146 2.851-5.302 2.84 2.022-.008 4.22 46.25 1.894 55.916.5 0 2.952-7.053 10.152-10.336 10.85-12.497 2.65-36.164 4.982-57.1-3.124-4.625-1.627-3.635-7.258-3.773-12.478" fill="#FFF"/>
      <path d="M204.795 545.172c10.144 7.954 29.404 14.17 41.674 16.71-3.9 5.779-7.01 11.365-9.552 17.246-.792 1.829-2.304 1.525-3.81 1.072-9.621-2.894-38.071-14.352-37.67-15.136 2.28-4.463 5.295-11.923 9.358-19.892" fill="#FFF"/>
      <path d="M243.501 479.34c-9.39 7.626-18.626 14.713-31.788 10.525-.582-1.711-.163-3.217.337-4.843 1.044-3.391-.029-4.763-3.544-4.431-2.11.199-4.163.989-6.244 1.51-2.388.598-4.68 1.662-7.268 1.427 1.87-2.637 3.805-5.05 7.613-5.1 1.496-.02 2.405-1.233 2.77-3.003.701-3.403 3.15-4.832 6.472-5.986 9.607-3.335 18.475-1.611 27.296 2.83-.953 2.72-5.099 2.3-5.806 5.514 3.077 2.423 6.9-1.756 10.162 1.558" fill="#FFF"/>
      <path d="M488.644 204.737c-6.885-11.137-2.245-27.548 8.245-39.958 1.988 1.335 1.755 5.557 5.315 4.726 3.455-.807.834-5.056 3.626-6.762 2.894 4.912 5.4 9.917 6.083 15.588.27 2.245-.07 4.491-1.207 6.705-3.006 5.861-6.292 11.487-10.745 17.102-1.577-3.168-.389-4.866 1.202-6.37 1.488-1.409 1.657-2.874.322-4.357-1.288-1.43-3.093-1.458-4.587-.65-1.656.896-1.582 2.172-.877 4.146 1.15 3.223.195 6.708-.71 10.068-1.702-3.635-2.948-7.303-1.327-11.28-1.436-1.27-2.821-2.188-4.52-.9-1.553 1.178-1.697 3.032-1.067 4.541 1.004 2.4 1.202 4.595.248 7.401" fill="#FFF"/>
      <path d="M325.002 591.799c-2.206-4.472-2.877-8.915-4.357-13.085-.59-1.661.239-2.643 1.722-2.961 17.088-3.676 33.835-4.947 49.135 7.526-15.697 3.679-30.998 6.676-46.5 8.52" fill="#FFF"/>
      <path d="M100.951 447.142c3.368-.604 5.695-2.74 8.557-2.5.672 1.103.253 1.645-.106 2.179-.853 1.268-1.787 2.604-.552 4.05 1.332 1.56 2.666.38 4.012-.214 4.673-2.07 11.586-.793 15.222 2.674 1.96 1.87 2.626 4.12 2.442 6.752-.07 1.003.098 2.089 1.293 2.403 1.011.264 1.931.11 2.464-1.05.404-.88.951-1.964 2.197-1.123 2.938 1.982 3.607-.195 3.81-2.27.211-2.154-.057-4.426-3.137-4.547-.809-.032-1.854.089-2.372-.352-1.455-1.237-3.664-2.246-3.164-4.648.505-2.432 2.751-1.935 4.496-2.064 4.85-.357 9.087 1.53 13.231 3.713 1.886.993 2.884 2.685 3.471 4.65 1.302 4.368-.978 6.8-5.443 5.829-.252.187-.667.33-.733.567-1.262 4.617-2.393 5.283-6.778 3.144-2.75-1.341-4.328-.638-4.54 2.14-.232 3.01-1.668 3.628-4.253 3.256-2.945-.423-5.925-.128-8.889-.921-5.257-1.405-6.76-3.515-5.566-8.943.547-2.491 1.75-4.898.93-8.004-5.17 1.418-7.39 5.445-10.032 9.745-2.186-4.928-2.988-10.054-6.56-14.466" fill="#FFF"/>
      <path d="M231.78 35.969c-4.674 2.533-9.349 4.405-12.559 8.337-2.123-.81-2.935-2.567-3.448-4.205-1.517-4.833-5.58-6.428-9.698-7.561-4.457-1.226-7.883.546-10.345 4.96-1.669 2.992-3.624 5.502-7.273 7.282-2.373-4.151-4.347-8.581-9.708-11.327 6-2.542 28.413-10.883 34.422-13.181 2.977-1.14 4.97-.597 6.943 1.82 3.761 4.604 8.248 8.615 11.665 13.875" fill="#FFF"/>
      <path d="M398.438 176.435c1.887-2.498 5.029.651 6.464-2.002 1.528-2.825-1.916-3.817-2.454-5.9 9.47-5 16.187-.712 22.168 3.954 1.745 1.362 2.059 3.075 1.035 5.296-2.62 5.678-5.805 11.24-4.386 17.983.372 1.767-.84 2.762-2.772 2.405-5.59-1.031-10.875-2.931-15.657-5.998-1.915-1.227-2.487-3.39-2.531-5.667-.067-3.412-.421-6.786-1.868-10.07" fill="#FFF"/>
      <path d="M430.075 242.188c4.787-3.691 7.813-8.282 12.596-11.48 1.443 1.522 2.307 3.293 2.66 5.154 1.19 6.28 5.913 7.894 11.22 8.655 2.291.328 4.661.363 6.972.207 2.43-.163 3.74.718 4.233 3.09 1.357 6.537 3.941 12.594 7.76 18.278-3.25 2.358-5.922 2.71-9.108.283-2.57-1.96-5.342-3.998-8.934-3.901-1.123.03-1.709-.916-2.423-1.587-7.47-7.01-14.393-14.724-24.976-18.7" fill="#FFF"/>
      <path d="M316.088 148.882c-4.196 3.217-8.394 6.432-12.588 9.65-1.945 1.495-3.71 1.948-6.281.77-11.237-5.15-23.195-8.551-34.261-14.205-3.683-1.882-6.303-3.453-4.687-8.06.315-.896.179-1.951.29-3.476 18.472 8.194 37.584 12.696 57.468 14.078l.059 1.243" fill="#FFF"/>
      <path d="M75.902 180.491c-5.083.063-9.934-.35-13.283-5.02-.943-1.314-1.73-2.62-1.09-4.084 2.787-6.356 5.306-12.903 12.602-15.759 6.257-2.449 9.836-1.592 13.856 3.723 2.277 3.011 3.48 6.31 3.366 10.14-.177 5.934-2.327 8.64-8.08 10.238-2.446.68-4.9.711-7.371.762" fill="#FFF"/>
      <path d="M394.102 211.084c-1.948-1.305-4.046-.387-6.08-.788-.14-2.386 1.987-2.425 3.178-3.275 5.272-3.769 11.388-5.377 17.652-6.184 2.828-.364 6.768-1.211 6.456 4.133-.136 2.318 2.763 1.417 3.604 2.898-.035.962-.847 1.267-1.523 1.607-1.36.683-1.317 1.802-.951 2.96.385 1.212 1.492 1.12 2.478 1.126 1.653.009 3.307-.068 4.957-.002 1.313.051 2.756.058 3.13 1.782.16.725-.323 1.243-.771 1.736-1.177 1.298-2.462.897-3.513-.025-2.201-1.927-4.262-2.099-6.313-.362-.213 2.425 1.932 2.426 2.658 3.576.12.881-.441 1.123-1.071 1.419-5.233 2.455-10.912 2.197-16.451 2.98-6.491.918-9.428-4.522-14.25-6.269.746-4.264 6.834-2.883 6.81-7.312" fill="#FFF"/>
      <path d="M140.44 177.63c1.546.256 1.361 2.187 2.631 2.734 3.3-1.033.653-4.394 2.351-6.79 3.576 7.15 6.626 13.756 8.508 20.86.22.828.452 1.703.01 2.425-3.073 5.029-5.008 10.89-10.239 14.379-.355-.302-.644-.482-.846-.732-.992-1.23.28-3.704-2.019-4.124-2.618-.48-3.209 1.65-4.046 3.505-.758 1.679-2.1 1.583-3.14.313-8.523-10.405-1.682-27.063 6.79-32.57" fill="#FFF"/>
      <path d="M506.286 435.175c.261-1.363.538-2.324.615-3.301.63-3.176.876-5.222 4.376-5.347 19-.75 55.125-8.278 55.881-8.278-.734 3.459-5.308 12.178-6.503 15.085-1.089 1.954-1.985 2.18-4.18 2.366-14.448 1.229-26.073.885-38.91.922-3.955-.037-11.344 1.197-11.279-1.447" fill="#FFF"/>
      <path d="M510.494 255.944c.842-11.993.932-24.256 12.092-32.963 3.947 2.243 5.351 9.533 11.865 5.975 3.193 11.002-3.217 28.305-12.82 31.517.258-2.645 3.572-4.874.957-7.66-4.773.792-3.424 6.827-7.782 8.997.531-3.939-.298-7.492 2.325-10.45.33-.372.7-.737.923-1.172.77-1.498 1.39-2.995.313-4.67-.715-1.11-1.642-.97-2.589-.62-1.753.647-2.598 1.897-2.489 3.837.155 2.746.437 5.58-2.795 7.21" fill="#FFF"/>
      <path d="M250.92 132.395c-1.729.576-3.15.988-4.524 1.522-1.838.713-3.347 2-2.9 4.065.382 1.773 2.21 1.685 3.746 1.614.822-.036 1.646-.007 2.768-.007-.575 2.738-2.758 3.594-4.533 4.314-8.839 3.58-17.73 3.922-26.457-.474-6.992-3.518-6.098-8.847-.752-11.897 4.805-2.74 9.467-5.44 14.936-6.576 7.448-1.547 14.353 1.156 17.716 7.44" fill="#FFF"/>
      <path d="M523.519 312.308c-2.091-1.863-1.073-6.435-4.921-5.595-4.443.97-1.121 5.154-2.687 8.018-1.88-3.65-5.237-5.713-7.526-8.757-4.285-5.696-4.303-10.935-.214-16.944 2.505-3.681 5.355-7.186 5.394-12.023.01-1.29.586-2.75 2.316-2.695 1.629.053 2.873.844 3.086 2.638.639 5.37 3.755 9.279 7.133 13.272 5.29 6.257 6.398 15.644-2.581 22.086" fill="#FFF"/>
      <path d="M247.142 97.9c-8.314.11-14.588-1.95-20.863-3.93-1.643-.519-2.922-1.56-2.325-3.695.675-2.419 2.121-2.073 3.82-1.209 1.687.86 2.78.182 3.635-1.384 2.15-3.934 5.76-6.199 9.427-8.562 7.247-4.67 14.044-2.097 20.77.916 2.713 1.215 3.272 8.91.984 10.942-4.847 4.306-10.335 7.174-15.448 6.921" fill="#FFF"/>
      <path d="M137.757 441.888c1.36-.404 2.71-.84 4.08-1.204 1.026-.274 2.388-1.006 2.191-1.737-1.473-5.488 3.42-5.927 6.19-7.824 2.466-1.687 4.873-3.184 5.924-6.947-10.348-.111-16.313 8.903-25.986 9.61-.282-.741-.425-2.028 1.511-3.4 6.998-4.956 13.078-11.1 21.037-14.861 3.416-1.615 6.073-1.117 7.418 1.237 2.674 4.68 11.218-.511 12.465 1.925 3.69 4.96-2.296 9.446-5.45 12.795-7.895 8.383-17.244 13.144-29.024 11.477l-.356-1.071" fill="#FFF"/>
      <path d="M48.031 389.767c1.86-1.472.4-3.515 1.558-4.852 1.37.028 2.096 1.085 2.612 2.035 4.555 8.37 12.64 11.222 21.035 13.606 1.43.406 2.9.674 4.334 1.069 4.093 1.129 5.781 3.54 5.404 7.654-.328 3.58-1.874 4.829-6.527 5.27-3.695.352-7.31-.17-10.74-1.465-4.497-1.7-8.796-3.858-12.917-6.36-2.46-1.491-4.619-3.28-5.454-6.137-.593-2.028-2.732-2.816-3.494-4.381-1.66-3.408-2.304-7.15-.813-11.062 2.624.753 2.182 4.32 5.002 4.623" fill="#FFF"/>
      <path d="M253.987 147.897c12.628 7.22 25.525 13.05 39.511 16.697-2.049.869-48.665-.088-54.784-2.136-1.227-.41-7.626-1.797-6.93-4.6.56-2.248 2.232-3.18 4.4-3.35 3.676-.288 7.134-1.466 10.651-2.454 2.656-.745 4.6-2.578 7.152-4.157" fill="#FFF"/>
      <path d="M94.444 90.98c1.449 1.537 4.865 4.583-3.027 12.277-4.383 4.979-11.616 11.33-13.893 14.457-3.296 4.525-3.031 7.228 1.352 10.903 4.714 3.953 10.196 6.026 16.148 6.962 2.936.463 4.709 1.109 4.48 4.899-.295 4.876 1.892 9.309 4.307 13.538.948 1.661 2.637 2.997 2.602 5.704-4.864-2.761-9.275-5.869-14.14-7.874-6.284-2.59-10.645-6.295-12.933-12.949-1.626-4.73-5.58-8.15-9.451-11.376-1.624-1.355-3.517-2.519-4.606-4.747 2.199-2.812 4.37-5.698 6.66-8.489 2.31-2.818 12.668-16.305 22.5-23.305" fill="#FFF"/>
      <path d="M482.842 202.24c.965 2.124-.55 3.693-1.727 5.257-2.71-.085-3.63-2.264-5.076-3.768-1.448-1.507-3.12-2.704-5.266-1.57-1.637.862-2.111 2.406-1.78 4.268.46 2.567 2.339 3.057 4.42 3.047 3.41-.016 6.265 1.228 8.83 3.026-.134 1.237-.62 1.45-1.397 1.276-6.334-1.413-12.702-2.253-19.234-2.343-4.228-.059-4.203-4.044-4.364-7.015-.24-4.433.37-8.903-.668-13.325.588-.318.98-.645 1.426-.752 4.408-1.056 4.738-1.62 3.14-5.522-1.595-3.893-.785-4.867 3.373-5.055 4.43-.2 7.264 2.14 9.442 5.425 2.095 3.16 3.81 6.572 5.644 9.901 1.278 2.32 2.8 6.187 3.237 7.15" fill="#FFF"/>
      <path d="M550.843 284.004c-2.573-.613-4.751-3.421-6.993-.921-2.225 2.479 2.456 3.51 1.98 5.9-9.972 2.163-20.086-3.84-22.306-13.118-.325-1.357.226-2.212.958-3.135.776-.981 1.159-2.103.446-3.22-.883-1.383-2.37-1.08-3.626-.83-1.521.3-2.98 1.748-4.586-.132.103-1.966 1.939-1.98 3.157-2.364 2.052-.65 3.93-1.561 5.765-2.648 8.015-4.751 15.279-2.74 19.774 5.563 2.502 4.62 2.928 10.028 5.43 14.905" fill="#FFF"/>
      <path d="M116.425 520.24c3.308 1.91 3.569-.698 4.895-1.28 1.355-.596 4.756-.369 6.569-.372-1.422-1.662-2.866-2.935-2.861-4.392.013-3.402 3.868-6.273 5.239-6.445 1.51-.19 3.645 2.312 5.439 3.422.843.378 1.539.546 2.173-.287.656-.863.296-1.603-.406-2.128-2.185-1.637-6.882-4.335-6.707-4.849 1.01-2.97 3.34-1.209 4.42-.14.949.94 4.313 3.831 5.424 3.544 1.335-.344 1.978-2.509 2.899-3.083.634-.395 1.552.478 2.35 1.167 1.088.94-2.826 3.871-2.165 4.666 1.25 1.504 8.5 5.417 7.67 7.17-1.336 1.872-3.336-.503-5.086-1.837-1.013-1.075-2.96-2.766-4.5-3.418-.6-.253-1.552.724-2.003 1.424-.747 1.161 5.77 3.068 5.91 5.98.094 1.92-3.078 4.743-4.741 6.473-2.042 2.126-5.906-3.71-7.135-3.448.25 2.375 3.429 7.855 3.555 8.518.122.638-2.907 1.305-2.907 1.305-.467-.942-1.286-7.924-2.867-9.118-1.045-.789-1.907 1.754-5.063 7.368-.838 1.491-.177 2.38 1.427 3.565 2.192 1.62 7.215 4.53 6.167 6.018-1.26 1.792-5.291-2.323-7.383-3.878-3.051-2.267-6.23-4.416-9.253-6.753-1.174-.907-4.06-3.283-4.167-4.412-.515-5.38-3.393-4.017-7.158-4.5-1.41-.179-3.172.16-4.076-.778-1.093-1.133.902-2.087 1.586-2.217 1.779-.337 1.909-.169 3.49.047 4.742 1.866 14.739-4.425 12.617-7.8-1.82-2.895-6.522-4.863-4.167-6.5 1.435-.997 7.815 5.503 8.019 6.614.315 1.72-2.508 5.521-5.008 8.271" fill="#FFF"/>
      <path d="M566.69 191.166c-5.627 1.813-4.683 7.888-7.788 11.115-4.215-5.314-.432-21.366 7.084-29.829 3.884 7.41 14.27 35.929 16.705 42.429 1.242 3.314.038 4.547-2.89 5.335-7.508 2.02-12.926-3.086-11.13-10.585.451-1.877 1.555-3.683-.767-5.267-1.095-.747-.425-2.063-.144-3.214.797-3.262 1.134-6.537-1.07-9.984" fill="#FFF"/>
      <path d="M445.356 293.574c-2.023.041-3.92-.576-5.87-.933-2.336-.426-3.484-1.31-3.46-3.864.015-1.785-.423-3.772-2.078-4.864-2.497-1.648-1.88-3.44-.738-5.538 4.49-8.256 10.762-10.655 19.428-7.334.928.355 1.85.73 2.772 1.098 7.41 2.954 8.841 11.706 2.77 17.015-3.674 3.211-8.048 4.418-12.824 4.42" fill="#FFF"/>
      <path d="M516.165 213.28c1.289 2.12 3.594.74 4.813 2.646-4.673 4.933-7.921 11.535-15.351 13.5-1.424-.395-1.418-1.805-2.017-2.729-2.775-4.28-6.327-8.589-4.268-14.085 2.786-7.438 7.139-13.758 14.714-17.327 1.874-.883 3.275-.32 4.617.548 3.784 2.445 4.998 6.396 5.637 10.554.307 2.002-.964 2.912-2.742 3.517-1.978.673-4.151 1.18-5.403 3.376" fill="#FFF"/>
      <path d="M177.167 187.522c-3.587-.736-5.708-4.941-9.136-2.306-2.141 1.647.214 3.635.432 5.456-5.908.864-9.387-.624-12.121-5.296-2.427-4.147-4.348-8.543-5.933-13.063 4.135-4.853 4.105-5.373-.484-8.725 4.073-2.96 11.026-2.87 16.15-.243 10.072 5.166 9.546 14.787 11.092 24.177" fill="#FFF"/>
      <path d="M111.163 381.026c-.206 5.987.79 12.018-.81 18.032-1.64 6.177-5.324 10.712-10.866 13.544-6.53 3.337-11.138-.062-10.996-7.265.214-10.85 6.724-17.523 14.647-23.386.859-.636 1.839-1.904 3.29-.082 1.67 2.093 2.41-1.763 4.735-.843" fill="#FFF"/>
      <path d="M448.668 216.225c-11.494-1.258-16.821-7.84-20.258-16.936-.702-1.857-1.006-3.861-1.553-5.78-.682-2.398-.419-5.398 1.544-6.138 4.033-1.52 2.885-4.067 2.15-6.817 15.061 4.086 21.689 18.705 18.117 35.67" fill="#FFF"/>
      <path d="M153.643 157.143c-3.5-4.517-3.5-4.517-7.17 2.738-2.181-3.452-2.147-6.54.475-9.477 1.42-1.592 2.216-3.497.715-4.804-2.556-2.225-1.288-4.192-.204-6.123 3.175-5.653 4.545-12.614 11.412-16.034 1.51 3.22 3.656 4.897 7.438 3.38 1.986-.798 2.512 1.053 2.722 2.583 1.454 10.607-5.688 23.446-15.388 27.737" fill="#FFF"/>
      <path d="M501.13 396.607c1.138-3.144 3.064-5.202 4.837-7.306 2.449-2.903 3.56-6.343 4.253-9.929.48-2.486-.27-4.722-2.841-5.717-1.405-.545-2.975-.498-4.162.753-1.028 1.082-1.31 2.321-.406 3.61 2.129 3.04.962 5.408-1.703 7.15-2.39 1.56-6.823.137-9.42-2.626-2.146-2.284-2.39-4.807-.463-7.158 2.758-3.366 6.088-6.264 10.289-7.58 8.424-2.638 16.547 2.93 17.73 11.788.859 6.433-1.887 11.885-4.491 17.394-.458.97-1.205 1.617-2.341 1.506-3.716-.365-7.433-.743-11.281-1.885" fill="#FFF"/>
      <path d="M574.148 370.188c.044-5.29-7.688-6.54-5.78 1.752.657 2.572-6.136 3.368-8.55.618-2.232-2.54-2.119-7.294.39-10.056 2.038-2.245 4.563-3.897 7.498-4.684 5.5-1.476 14.14 2.016 17.029 6.855 1.2 2.01 1.698 4.079 1.08 6.61-2.956 12.106-2.868 12.132-14.48 16.731-2.082.825-4.074 1.978-6.863 2.066 4.462-6.315 11.097-11.248 9.676-19.892" fill="#FFF"/>
      <path d="M5.551 330.41c-.183-1.495-.303-2.47-.42-3.445-.358-2.962.455-4.33 3.926-4.692 14.204-1.475 27.665-5.33 39.848-13.195 6.207-4.006 10.693-9.378 14.47-15.53 1.196-1.952 2.412-3.89 3.642-5.87 2.041.607 3.904 1.154 5.571 2.695-2.953 5.843-7.194 10.476-11.458 15.086-6.85 7.406-14.948 13.134-23.969 17.58-1.532.754-10.585 4.086-12.562 4.402-6.189.99-12.172 3.396-19.048 2.968" fill="#FFF"/>
      <path d="M209.078 83.116c-1.034.845-2.1.332-3.191-.048-2.408-.837-4.508-.5-4.84 2.38-.331 2.866 2.057 3.486 4.24 3.841.743.121 1.603-.289 2.372-.563 5.108-1.817 5.893-1.43 7.2 3.664.165.641.355 1.305.344 1.955-.066 3.861 1.249 8.612-2.57 10.917-4.152 2.505-13.301-.269-15.865-4.307-2.064-3.25-4.773-5.812-7.287-8.602-3.37-3.742-3.108-6.65.556-10.194 7.104-6.87 13.017-5.4 18.12-1.22.656.538 1.214 1.156.92 2.177" fill="#FFF"/>
      <path d="M63.096 355.956c-6.355-1.656-11.73.541-16.913 3.654-1.52.913-3.005.778-4.74.213-8.603-2.803-16.545-6.799-23.734-12.315-2.5-1.919-5.16-3.634-7.764-5.418-1.337-.916-2.876-1.615-3.49-3.275 4.986-3.643 12.974-3.574 17.24-.39 8.266 6.166 17.688 10.011 27.467 13.072 4.004 1.253 8.152 2.14 11.934 4.46" fill="#FFF"/>
      <path d="M124.715 100.333c-3.044-.965-3.767-3.426-5.793-4.312-1.292-.566-2.456-1.561-3.923-.369-1.282 1.041-1.697 2.429-1.59 3.952.115 1.661 1.046 2.768 2.762 3.032 1.447.221 3.021.027 4.318 1.627-5.112.852-10.058-2.087-14.87.233-2.102-2.846-4.032-5.092-2.58-9.073 1.263-3.467-1.164-6.619-3.73-9.404 5.82-5.638 11.727-10.882 18.238-15.773 3.305 2.901 3.836 6.577 4.09 10.376.426 6.386-.028 12.886 3.078 19.711" fill="#FFF"/>
      <path d="M536.768 472.634c-3.402 5.125-6.014 7.94-9.186 11.992-.854 1.33-2.168 1.297-3.435 1.36-7.113.359-14.23.669-21.342 1.007-3.36.16-5.646-.968-6.66-4.52-1.032-3.62-2.533-7.106-4.255-11.814 7.149 1.995 40 1.847 44.878 1.975" fill="#FFF"/>
      <path d="M406.04 266.857c-.255 2.588-1.646 3.558-4.2 3.657-15.918.617-31.805 2.03-47.666 3.256-21.332 1.65-42.73 2.378-64.022 4.538-2.9.294-5.177-.68-7.066-2.819 1.805-1.182 118.232-9.378 122.953-8.632" fill="#FFF"/>
      <path d="M217.125 78.323c-1.474-4.597-.19-7.312 2.295-9.942 4.046-4.28 3.943-4.387 1.215-9.575-.83-1.578-.12-2.9.659-4.193 2.167-3.589 4.829-6.688 8.667-8.598 4.437 6.378 5.287 6.47 10.471.78 2.702 3.395 2.16 7.3 1.521 10.795-1.379 7.53-4.766 14.456-8.034 21.294-2.157 4.512-7.847 3.872-11.553 6.418.198-2.44 1.935-3.046 3.514-3.65 2.174-.83 4.264-1.808 6.067-3.253 1.58-1.266 1.67-2.962.21-4.324-1.541-1.437-2.862-.322-3.674 1.017-1.012 1.67-1.592 3.71-4.483 3.168-.476-2.51.976-3.995 2.503-5.48 1.068-1.039 2.239-2.038 3.048-3.264 1.558-2.358.314-4.458-1.692-5.384-2.377-1.099-3.799 1.131-4.293 2.962-1.105 4.1-3.409 7.346-6.441 11.23" fill="#FFF"/>
      <path d="M414.419 258.067c-4.67 1.13-8.334.167-11.754-1.475-27.067-12.99-53.341-27.303-76.507-46.69-1.382-1.156-3.665-1.979-2.431-4.864 3.009.537 5.068 2.508 7.356 4.011 15.675 10.3 31.08 21.023 47.337 30.412 9.225 5.327 19.44 8.485 29.039 13.01 2.557 1.204 4.757 2.743 6.96 5.596" fill="#FFF"/>
      <path d="M185.925 475.51c-2.078-.561-2.097-2.52-2.47-3.917-.625-2.34-1.806-3.455-4.22-3.154-2.12.264-3.467 1.603-3.48 3.594-.016 2.275 1.351 3.662 3.85 3.575.458-.017.924.226 1.615.412-.44 2.779-2.3 2.992-4.327 2.563-4.573-.97-9.1-1.112-13.792-.677-3.655.34-5.029-3.256-6.796-5.838-1.588-2.321-.998-4.657.515-6.45 2.654-3.143 4.198-6.662 4.66-10.604 13.005-1.277 24.903 8.74 24.445 20.496" fill="#FFF"/>
      <path d="M45.636 327.185c4.78-6.368 9.91-4.897 14.958-3.136 24.701 5.89 80.053 1.284 82.094 1.879-.04 4.083-1.922 6.48-5.605 6.425-15.43 2.41-51.22 2.12-55.197 2.41-8.109-.7-15.459-1.05-22.894-3.59-4.189-1.43-8.045-3.768-13.356-3.988" fill="#FFF"/>
      <path d="M399.385 237.18c2.66-1.628 6.104.805 8.063-2.403-1.684-3.376-7.184-.663-8.165-5.156.465-.358.86-.915 1.188-.88 10.705 1.169 20.139-2.386 29.115-7.715 3.579-2.124 6.816-1.855 9.549.587 1.223 1.093 1.543 2.138.33 3.35-7.622 7.616-14.83 15.794-26.464 17.41-5.567.774-10.516-.825-13.616-5.192" fill="#FFF"/>
      <path d="M124.005 429.512c-.9-2.735.854-4.418 1.511-6.326.756-2.19 1.866-4.256 1.874-6.652.007-2.202-.06-4.365-2.722-5.538-2.985 2.598-3.403 6.51-3.848 9.837-.807 6.038-5.697 3.165-8.486 4.346-2.378 1.007-3.049-2.57-3.686-4.36-.819-2.297-.736-4.868.54-7.236 2.316-4.3 5.587-7.737 8.956-10.853 2.858.328 2.693 5.227 6.078 3.46 2.308-1.204 1.34-4.808 4.071-6.25 3.038.837 3.49 4.09 5.004 6.225 5.787 8.16 5.46 8.11-.3 16.599-2.325 3.427-5.767 4.524-8.992 6.748" fill="#FFF"/>
      <path d="M161.138 96.015c2.183 3.318 2.092 6.763 2.123 10.21.018 1.923-1.473 2.53-2.687 3.237-2.208 1.285-3.623 2.909-3.303 5.596.24 2.013-.76 3.064-2.546 3.696-3.77 1.335-7.175 3.36-10.622 5.375-4.47 2.613-6.83 1.167-7.21-3.94-.641-8.648 4.309-16.95 12.436-20.293 3.785-1.557 7.79-2.58 11.809-3.881" fill="#FFF"/>
      <path d="M246.126 277.469c-1.864 4.118-4.725 4.672-7.787 4.812-24.228 1.104-48.364 3.583-72.571 4.949-10.787.609-21.595.968-32.374 1.746-2.686.193-3.707-1.511-5.185-3.518 39.401-2.08 78.29-5.417 117.917-7.99" fill="#FFF"/>
      <path d="M464.8 290.208c1.067 4.697 2.96 8.516 3.892 12.738.926 4.194.607 7.957-1.77 11.385-4.963 7.158-11.764 12.357-18.648 17.587-2.804-3.419-1.51-6.742-.924-9.876.912-4.879 2.125-9.57 6.229-13.148 3.79-3.305 6.044-7.826 7.587-12.628.65-2.023 1.07-4.163 3.634-6.058" fill="#FFF"/>
      <path d="M452.48 190.516c-4.47-8.298-10.683-13.201-18.365-16.355-1.336-.55-2.063-1.511-2.247-2.985-.481-3.845 1.346-10.575 4.118-14.621 2.175 1.159 2.509 4.617 5.243 4.8 3.332.223 2.358-4.042 4.682-5.046 8.44 9.034 10.354 18.243 6.57 34.207" fill="#FFF"/>
      <path d="M202.371 470.867c-5.357-.925-3.01 5.552-6.879 6.23-.756-2.182-.129-4.132.561-6.14.427-1.244.631-2.593-.588-3.685-1.019-.914-2.244-.999-3.213-.345-1.246.838-2.094 2.134-1.945 3.801.186 2.076 1.837 3.97.72 6.347-1.456-.156-1.722-1.293-1.66-2.362.161-2.878-.72-5.605-1.268-8.335-1.574-7.846 1.37-14.408 8.476-18.03 2.092-1.067 3.8-1.148 4.753 1.481.333.92.871 1.763 1.436 2.877 3.425-1.665 3.748-6.46 8.587-7.538 2.952 5.77 3.676 9.735 2.708 15.065-1.144 2.536-7.782 8.705-11.688 10.634" fill="#FFF"/>
      <path d="M87.343 126.147c2.89-.836 5.62-1.262 4.82-4.983-1.499-1.338-4.335-.316-5.478-2.904 2.726-4.734 7.47-6.562 12.367-8.068 3.152-.968 6.347-1.854 9.581-2.476 2.106-.405 4.353-.624 4.545 2.776.232 4.108 3.848 1.7 6.177 2.77-2.544 2.157-5.907 2.778-7.639 5.481-1.605 2.507-3.149 5.05-4.76 7.552-1.049 1.627-2.709 2.39-4.494 2.886-4.54 1.262-10.353.19-15.119-3.035" fill="#FFF"/>
      <path d="M422.924 482.924c-6.297-1.582-11.828-.321-16.623 3.492-3.504 2.788-6.19 2.285-9.068-1.607 7.603-7.775 16.587-12.531 27.685-12.8 6.018.806 9.647 6.215 9.963 8.886.47 3.996-1.013 7.492-3.896 10.319-1.11 1.088-2.553 1.588-4.078 1.679-3.334.199-4.848-1.564-4.232-4.865.298-1.594 2.019-4.463.249-5.104" fill="#FFF"/>
      <path d="M219.809 100.438c1.972 1.242 2.258 3.602 3.535 5.264 1.849 2.41 3.748 4.719 6.687 5.773 1.126.404 2.444 1.624 3.605.119 1.248-1.618-.38-2.391-1.235-3.224-2.44-2.379-4.208-5.224-6.635-8.445 6.662 1.353 12.7 2.197 18.493 3.883 4.055 1.18 5.75 5.005 7.112 8.47-1.271 1.647-2.466 1.265-3.581 1.047-1.428-.282-2.703-.072-3.54 1.165-4.773 7.043-22.136 5.138-25.898-1.383-1.594-2.766-1.285-7.882 1.457-12.67" fill="#FFF"/>
      <path d="M24.705 193.139c6.53 3.848 12.512 7.355 18.465 10.91.52.313.85.946 1.442 1.629-1.601 2.467-4.31 3.093-6.49 4.355-5.004 2.896-10.174 5.506-15.207 8.356-2.011 1.139-4.201 1.928-6.086.646-2.235-1.52-.437-3.582.18-5.348 2.343-6.691 4.494-13.457 7.696-20.548" fill="#FFF"/>
      <path d="M94.465 465.907c1.629 2.154 3.413 4.093 4.913 5.374.925.79 1.962-.919 3.275-1.686.25-.026 1.42 1.407 2.079 1.937-1.225 1.262-2.173 1.528-2.298 2.25-.138.798 1.58 2.98 2.5 4.125 1.186 1.478.125 2-1.46 3.42-3.263 3.361-8.063 8.297-9.193 8.224-1.253-.082-3.968-3.019-5.462-5.154-2.247 3.104-.182 5.148 1.96 6.303 1.224.66 3.249 1.03 2.678 2.472-.85 2.147-2.614 1.111-3.72.201-.855-.705-1.843-2.109-3.064-2.476-1.934 3.287 1.063 11.367-.803 11.503-1.655.12-2.224-1.236-2.46-2.432-.928-4.727-.12-9.335 1.584-13.703 1.257-3.219.428-5.392-2.274-7.36a22.148 22.148 0 0 0-6.14 5.476c1.909 2.234 5.614 4.35 5.772 5.045-.497 1.104-1.445 2.55-3.137 1.105-.997-.852-1.691-2.105-2.703-2.853-3.026-2.24-3.818-3.198-6.81-4.417-1.078-.44-1.278-.866-.53-2.506.564-1.234 4.397 1.641 4.397 1.641s2.986-2.673 4.787-4.142c4.919-4.013 13.92-12.003 16.109-12.347" fill="#FFF"/>
      <path d="M137.748 372.759c-4.835 10.027-10.45 18.519-20.406 24.29-.737-4.663 1.4-8.474-.005-12.335-.727-1.998-.501-4.4-1.431-6.256-1.665-3.324-.553-5.757 1.69-8.027 2.669-2.698 5.73-4.55 9.759-3.614.948.219 2.403.568 2.208 1.61-1.111 5.95 3.082 3.862 5.829 4.008.48.025.959.128 2.356.324" fill="#FFF"/>
      <path d="M83.881 423.173c14.221-1.91 26.831 3.6 28.908 12.196-2.32.169-2.225-2.05-3.193-3.19-1.442-1.695-2.85-3.553-5.29-1.416-2.556 2.24-.25 3.343 1.111 4.688.321.319.481.8.922 1.569-3.016 1.603-5.506-.595-8.04-.911-2.648-.33-5.098-.957-7.73.47 2.192 3.208 5.498 3.439 8.766 4.387-1.373 2.117-3.615 2.436-5.078 3.708-5.797-4.238-5.797-4.238-12.327-3.288-1.598-2.567-1.313-5.66-2.367-8.432-.87-2.293.074-4.03 3.144-2.768a6.223 6.223 0 0 0 2.92.405c2.152-.234 3.148-2.683 1.763-4.488-.757-.988-1.939-1.65-3.509-2.93" fill="#FFF"/>
      <path d="M401.184 558.696c-4.775-1.89-6.852-5.18-10.89-7.85-1.601-1.367-.975-2.706-.798-4.125.549-4.438.905-15.047 1.252-15.217 5.326-2.597 8.077-9.05 15.92-10.296-3.96 12.515-5.025 24.697-5.484 37.488" fill="#FFF"/>
      <path d="M203.209 41.425c1.657-.545 3.299.04 3.809 1.424 1.772 4.807 5.808 8.036 8.199 12.38 1.27 2.307 1.361 4.735.796 7.217-.267 1.168-.96 2.615-2.072 2.57-5.21-.203-3.577 2.755-2.795 5.49.348 1.219.893 2.548-.241 3.718-4.164-4.718-3.815-7.66-.315-12.785-.154-1.804-.042-1.64-.835-2.52-1.018-1.127-2.373-2.004-3.942-.868-1.398 1.012-2.723 3.013-2.255 4.135 1.654 3.968.032 10.565-1.556 11.65-5.972-1.294-7.988-4.044-6.378-9.652 1.378-4.801 2.336-9.621 2.694-14.586.099-1.372 1.709-8.375 4.891-8.173" fill="#FFF"/>
      <path d="M537.956 395.5c2.22-5.425 4.78-9.872 5.43-15.108.392-3.173-.832-5.179-4.023-5.772-2.843-.529-4.15.752-3.15 3.521 1.096 3.037-.05 4.868-2.526 6.088-2.285 1.125-4.554.85-6.265-1.285-1.949-2.43-.818-4.238.75-6.568 4.383-6.516 11.262-6.829 17.35-5.281 7.91 2.01 10.867 14.831 5.031 20.705a3.882 3.882 0 0 1-1.69.976c-3.625.948-7.269 1.824-10.907 2.724" fill="#FFF"/>
      <path d="M241.249 200.264c-13.685-2.213-31.44-8.59-47.662-17.116 4.109-4.057 5.804-4.25 10.638-2.091 9.406 4.202 19.114 7.394 29.457 8.439 4.048.41 8.004 6.3 7.567 10.768" fill="#FFF"/>
      <path d="M35.648 170.183c5.281 3.718 10.528 7.438 16.883 10.218-4.258 4.717-7.474 9.45-8.627 15.61-4.92-1.922-9.157-4.115-13.233-6.583-2.37-1.434-3.34-3.614-2.031-6.39 2.11-4.475 4.263-8.474 7.008-12.855" fill="#FFF"/>
      <path d="M55.723 465.339c-3.345-3.402-5.139-6.99-7.217-10.33-1.073-1.721-1.274-3.418 1.016-5.64 5.441-5.28 12.097-5.084 18.533-5.236 5.307-.125 5.824 2.605 3.362 7.426-3.46 6.773-10.525 8.819-15.694 13.78" fill="#FFF"/>
      <path d="M453.992 237.083c.924-2.009 3.167-3.195 2.06-5.146-1.664-2.929-4.978-.566-7.382-1.798-.853-1.373-.332-2.865 1.021-3.112 5.305-.968 7.794-5.41 11.207-8.673 3.051-2.918 6.272-4.631 10.817-3.124-1.096 2.707-5.068 3.461-4.118 6.96 2.568 1.517 4.067-.815 6.001-1.366 1.124-.32 2.5-1.69 3.422.142.737 1.464-.598 2.039-1.616 2.552-4.91 2.47-6.926 6.865-8.094 11.894-.929 3.995-2.33 4.984-5.829 3.703-2.399-.878-4.554-2.44-7.489-2.032" fill="#FFF"/>
      <path d="M251.839 490.994c-.43 3.852-1.007 7.141-4.625 9.494-3.734 2.43-7.248 5.183-11.242 7.24-2.161 1.113-4.27 1.272-6.01-.329-1.748-1.608-.272-3.51.46-5.02 3.35-6.899 7.196-13.424 14.078-17.543 4.762-2.85 5.897-2.4 6.69 2.972.17 1.148.46 2.277.649 3.186" fill="#FFF"/>
      <path d="M82.852 184.972c-3.557 3.943-8.584 5.302-12.253 8.63-3.642 3.303-6.619 6.876-7.709 11.803-2.602.259-5.149 1.069-6.448-2.13-.263-.648-.996-.751-1.624-.996-4.405-1.723-4.504-1.951-2.115-6.12 1.65-2.878 3.585-5.603 5.127-8.537 1.51-2.873 3.94-3.643 6.678-2.96 5.611 1.402 11.126 1.348 16.688-.067.388-.1.874.187 1.656.377" fill="#FFF"/>
      <path d="M31.89 284.69c2.444-2.123 4.955-4.175 7.317-6.387 3.62-3.385 3.412-7.79-.315-10.635-1.996-1.524-4.105-1.683-5.924-.11-1.597 1.38-1.97 3.326-.712 5.317.431.682.74 1.442 1.134 2.224-1.57 2.108-3.483 2.136-5.278.932-2.7-1.812-5.21-4.406-4.587-7.71.976-5.178 5.115-7.938 9.828-9.648 4.044-1.466 7.917-2.029 11.464 1.615 1.96 2.012 2.66 4.09 2.396 6.69-.943 9.267-7.256 14.257-14.33 18.632l-.993-.92" fill="#FFF"/>
      <path d="M543.625 339.878c9.654 3.214 41.715 12.365 43.186 12.616 2.101.36 2.97 1.562 2.218 3.528-.871 2.275-2.394 1.047-3.648.367-3.049-1.654-5.953-3.34-9.512-4.112-7.448-1.613-13.738.362-19.578 4.758-4.09 3.079-5.041 2.96-7.447-1.582-1.777-3.354-5.319-13.191-5.219-15.575" fill="#FFF"/>
      <path d="M439.781 322.768c-1.919-.642-2.176-1.618-2.34-2.563-.295-1.71.341-3.872-1.982-4.601-2.269-.712-3.03 1.565-5.047 2.47.244-6.731.923-13.37 2.947-20.47 6.982 3.325 13.637 2.152 20.664 1.358-6.13 7.22-11.482 14.81-14.242 23.806" fill="#FFF"/>
      <path d="M278.733 265.679c36.09-1.967 71.749-5.966 107.597-7.205.945-.033 1.949.464 2.657 1.669-1.691 1.123-3.691.968-5.491 1.089-12.773.854-25.59 1.235-38.324 2.468-6.777.655-13.584.958-20.356 1.458-9.99.737-19.978 1.567-29.974 2.274-3.483.246-6.96.31-10.434.85-1.91.295-4.458 1.135-5.675-2.603" fill="#FFF"/>
      <path d="M124.082 305.294c-1.311 1.4-14.09 3.443-16.391 3.683-11.573 1.204-23.18 1.363-34.733-.348.046-4.737.046-4.737 4.477-4.71 4.154.395 14.99.437 19.293-.192 4.544-.665 8.82-1.932 12.643-4.268 3.67-2.244 6.558-2.562 9.6.97 1.478 1.714 3.633 2.848 5.111 4.865" fill="#FFF"/>
      <path d="M203.904 173.352c-.943-1.381-.533-2.831-.219-4.283 1.31-6.037 3.878-11.618 6.43-17.177 1.642-3.58 3.965-4.275 8.28-3.178 2.775.706 4.793 3.612 4.432 6.879-.428 3.877-1.907 7.398-4.59 10.287-2.136 2.3-10.346 6.492-14.333 7.472" fill="#FFF"/>
      <path d="M318.334 409.096c4.255-14.833 3.277-29.997 5.959-44.708 6.124 2.12 6.355 2.249 5.795 7.543-1.219 11.493-2.506 22.98-3.963 34.445-.658 5.176-4.728 2.35-7.791 2.72" fill="#FFF"/>
      <path d="M418.748 394.412c-1.096-.349-1.274-2.058-2.209-5.984-.63-2.649-.077-2.743 1.427-3.742 9.499-6.31 9.985-11.988 9.551-19.402 8.35.262 12.948 9.228 7.694 18.643-1.371 2.136-12.121 12.011-16.463 10.485" fill="#FFF"/>
      <path d="M164.292 497.251c-.54-1.86-.054-2.845 1.309-3.646 4.328-2.546 8.963-3.679 13.87-2.593 6.207 1.374 8.698 6.663 6.542 13.276-1.037 3.181-7.698 5.505-11.815 4.106-1.755-.596-2.925-1.925-2.879-3.687.136-4.994-1.618-8.047-7.026-7.456" fill="#FFF"/>
      <path d="M91.369 184.486c1.934 5.79.657 10.698-3.121 14.801-6.05 6.57-13.396 11.68-20.99 18.466.396-6.228.18-11.88 4.044-15.46 6.498-6.02 14.313-10.59 20.067-17.807" fill="#FFF"/>
      <path d="M343.527 409.563c1.518-10.895 1.697-20.909 3.968-31.072 7.4 2.502 8.446 3.99 7.716 11-.617 5.901-1.353 11.792-1.979 17.692-.22 2.072-.59 3.46-3.329 2.81-1.866-.445-5.209.601-6.376-.43" fill="#FFF"/>
      <path d="M4.764 303.968c-.729-1.306-1.36-2.642-1.065-4.17.715-1.352 1.966-1.112 3.1-1.16 15.522-.66 29.22-5.268 39.19-18.02.795-1.016 1.73-2.293 3.291-1.45 1.285.696 1.705 2.114 1.533 3.445-.28 2.177-1.25 3.975-3.05 5.486-11.45 9.605-27.459 15.579-42.999 15.869" fill="#FFF"/>
      <path d="M334.777 409.538c-5.79.3-4.333 0-3.796-5.507 1.294-11.053 2.587-22.105 3.89-33.225 6.24 1.73 7.497 3.815 6.788 11.03-.74 7.553-2.448 15-2.396 22.647-.652 6.074-1.328 4.793-4.486 5.055" fill="#FFF"/>
      <path d="M264.27 229.707c-1.971-.914-3.442.042-5.099 1.21-5.556 3.921-11.13 7.856-16.97 11.324-3.243 1.926-4.476 4.391-4.524 8.591 10.013-6.9 20.13-13.4 29.89-20.399-.791-.016-1.57-.307-3.296-.726" fill="#FFF"/>
      <path d="M288.465 210.064c-6.25 4.195-13.581 8.672-19.38 14.597-.42.427-.747 1.028-.65 1.857.093 1.546.242 2.448.015 3.286 7.826-5.65 15.41-11.64 22.516-18.442-1.204-.447-2.294-1.438-2.501-1.298" fill="#FFF"/>
      <path d="M539.925 324.396c1.624-4.703 1.667-4.816 6.075-3.173a166.89 166.89 0 0 0 34.62 8.835c2.294.33 4.63.413 6.95.49 4.749.16 4.75.125 4.585 5.245-6.221 1.257-41.805-6.509-52.23-11.397" fill="#FFF"/>
      <path d="M444.953 261.773c-7.17 5.772-12.91.516-18.658-2.146-4.52-2.094-6.916-7.455-12.36-8.328.825-3.056 3.034-3.19 4.584-3.339 6.223-.602 12.181-.286 16.711 5.208 2.726 3.304 6.854 5.224 9.723 8.605" fill="#FFF"/>
      <path d="M313.394 158.203c4.582-3.418 9.2-6.779 13.728-10.257 8.073-6.2 15.255-13.366 22.053-20.91 3.09-3.43 3.767-3.734 7.279-.817 9.44 7.844 19.07 15.427 29.228 22.341 3.236 2.205 7.245 3.163 10.253 6.233-2.687 1.95-4.486.286-6.32-.917-11.123-7.29-21.553-15.517-31.986-23.737-4.175-3.29-4.103-3.237-7.867.53-10.478 10.493-22.09 19.625-34.171 28.181-.572.405-1.094.81-2.197-.647" fill="#FFF"/>
      <path d="M171.537 370.482c-1.841 12.594-4.091 24.808-7.646 36.64-.941.894-1.99.506-2.952.571-.81.054-1.652.191-2.64-.66 2.003-10.476 3.99-21.155 6.112-31.808.746-3.748 3.74-3.29 7.126-4.743" fill="#FFF"/>
      <path d="M247.435 217.974c.616-5.478 2.27-10.31 3.977-15.12.515-1.451 1.498-2.736 3.152-2.868 6.063-.48 12.136-.841 18.537-.588-7.97 7.08-16.664 12.989-25.666 18.576" fill="#FFF"/>
      <path d="M115.402 344.156c10.58.823 20.7-1.376 31.326-.343-1.856 2.313-4.398 2.991-6.594 4.18-2.754 1.492-5.389 3.284-8.283 4.416-2.449.957-4.144 4.183-7.47 2.674-5.646-2.56-7.183-4.365-8.979-10.927" fill="#FFF"/>
      <path d="M581.033 228.71c-8.12 12.304-17.896 23.145-29.302 32.79-2.842-3.221-.25-5.064 1.525-6.731 3.123-2.935 7.035-4.983 9.648-8.347.783-1.773-1.959-1.835-1.336-3.648 1.59-1.678 4.97-1.38 5.977-4.2-.263-1.876-2.582-.531-3.174-2.758l15.772-8.065.89.96" fill="#FFF"/>
      <path d="M433.331 268.96c-4.999 5.801-14.845 9.979-4.645 19.684-7.61-1.894-10.728-7.768-15.237-11.968.912-2.006 3.042-2.146 4.116-3.713 1.626-2.373-1.578-2.894-1.454-4.56 5.3-1.881 11.51-1.743 17.22.557" fill="#FFF"/>
      <path d="M174.12 35.767c3.35 2.764 4.792 5.915 4.235 10.335-.705 5.587-.765 11.26-1.015 16.899-.112 2.51-.6 5.104-3.461 5.179-2.824.075-3.505-2.371-3.691-4.946-.436-6.03.476-11.928 1.553-17.803.585-3.196 1.544-6.325 2.379-9.664" fill="#FFF"/>
      <path d="M158.94 378.076l-6.984 29.582c-2.158.37-4.236.197-6.379-.343-.59-2.95.962-5.454 1.604-8.135 1.051-4.387 2.254-8.756 2.96-13.202.75-4.739 3.32-7.213 8.8-7.902" fill="#FFF"/>
      <path d="M53.158 417.34c-6.43 1.42-12.39.064-18.333-.162-6.145-.234-9.603-3.485-10.428-10.405 6.769 1.122 14.137-1.897 19.434 4.972 2.225 2.885 6.052 3.262 9.327 5.595" fill="#FFF"/>
      <path d="M53.61 167.237c-5.207-3.197-7.79-5.078-12.332-8.924 2.148-3.139 6.258-10.769 8.899-14.75l11.52 8.744c-3.694 4.256-6.074 9.068-8.086 14.93" fill="#FFF"/>
      <path d="M17.314 267.807c-2.462 6.447-1.142 11.493 5.462 14.139-2.084 3.15-4.623 4.848-7.897 5.438-4.384.79-7.613-1.442-8.345-5.766-1.006-5.961 3.782-12.427 10.78-13.811" fill="#FFF"/>
      <path d="M199.15 520.566c-1.116-2.466-1.843-4.717-3.088-6.63-1.152-1.77-2.858-3.183-4.518-4.965 2.257-3.028.975-9.353 7.575-8.004 2.536.52 4.84 2.203 7.457 2.966 1.003.292.578 2.077.456 3.388-1.118-.972-.921-3.627-3.16-2.624-1.572.704-.808 2.403-.622 3.602.369 2.385 1.82 4.204 3.864 5.761-2.074 2.763-3.943 5.611-7.963 6.506" fill="#FFF"/>
      <path d="M239.432 171.828c3.242-.052 12.251.45 14.826.702 15.394.437 27.275-.467 42.63-1.158.962-.14 3.094-.35 3.055.627-.514 1.705-1.92 1.966-3.62 2.08-13.818.934-36.058 3.837-43.296 3.734-7.918.415-7.876.387-13.595-5.985" fill="#FFF"/>
      <path d="M594.169 314.48c-8.231-1.036-15.985-2.013-23.74-2.988-.297.05-.852-.845-.154-1.208 7.077-4.467 15.373-5.726 23.956-8.365.478 4.68.226 8.226-.062 12.562" fill="#FFF"/>
      <path d="M261.193 512.578c.753 7.988-3.414 8.81-7.812 9.733-2.508.527-7.968.198-10.154-2.432-1.618-1.948-.748-5.536 1.886-7.77 4.177-3.545 10.33-3.528 16.08.47" fill="#FFF"/>
      <path d="M360.548 387.212c2.837.187 4.294 1.686 6 2.657 1.094.623 1.42 1.462 1.226 2.894-.67 4.93-1.135 9.894-1.51 14.858-.156 2.077-.942 3.093-3.063 2.905-1.775-.156-3.658.49-5.47-.77.92-7.437 1.255-14.994 2.817-22.544" fill="#FFF"/>
      <path d="M187.501 527.349c-7.462-5.154-16.028-8.608-24.334-13.365 1.687-2.84 3.334-3.17 5.572-1.154 3.941 3.549 8.594 3.866 13.448 2.622 6.8-1.744 8.752-.101 8.048 6.905-.19 1.898-.838 3.492-2.734 4.992" fill="#FFF"/>
      <path d="M530.291 180.082c-.115-3.349.496-6.271 2.046-8.866 1.067-1.787 3.049-2.861 4.241-.469 2.123 4.258 4.764 8.367 5.503 13.203.171 1.123.064 2.336-.152 3.462-.805 4.185-2.884 5.053-6.052 2.245-2.925-2.592-6.309-5.136-5.586-9.575" fill="#FFF"/>
      <path d="M187.26 173.526c1.17-10.262 5.279-18.466 12.076-26.523 1.258 4.087 1.454 7.444.089 10.9-2.07 5.234-4.633 10.421-1.471 16.152.186.338.032 1.014-.197 1.39-.225.365-.75.547-1.19.843-2.45-1.59-1.436-5.68-4.712-6.504-1.882.424-2.132 2.534-4.595 3.742" fill="#FFF"/>
      <path d="M54.067 137.236c2.073-2.4 3.273-4.952 6.044-7.149 3.02 4.447 8.09 6.847 11.864 10.771 1.424 1.481 1.46 3.595 1.585 5.54-5.84 3.156-5.903 3.216-10.361-1.485-2.641-2.786-5.841-4.879-9.132-7.677" fill="#FFF"/>
      <path d="M192.684 542.157c2.78 2.375-2.124 4.101-4.205 5.294-1.515.868-4.82 1.43-4.14 4.425.626 2.75 2.934 10.215.314 10.25-1.438.02-3.188-8.875-4.438-10.188-.613-.643-16.442 5.163-16.906 1.82-.281-2.028 13.984-2.46 15.633-5.769.648-1.3-5.017-10.762-3.71-11.526 2.537-1.483 3.585 3.118 4.768 6.847 1.176 3.708 2.203 3.781 5.743 2.064 2.316-1.123 5.552-4.403 6.94-3.217" fill="#FFF"/>
      <path d="M102.34 283.004c.456-2.353 1.975-3.636 2.19-5.532.28-2.44-.273-4.31-2.804-5.08-2.676-.814-3.99.498-4.66 3-.598 2.233-1.19 4.476-3.967 5.247-1.528.423-2.93.882-4.168-.323-1.09-1.06-.754-2.527-.482-3.782.96-4.415 7.564-8.931 12.215-8.454.493.05.976.194 1.468.275 5.419.898 7.946 2.724 8.12 5.876.19 3.42-3.14 7.224-7.912 8.773" fill="#FFF"/>
      <path d="M142.55 487.246c-.036-2.929-.322-5.479-3.129-7.327-2.625-1.728-.655-4.023-.033-6.126 3.417-.194 6.52.563 9.66.043 3.363-.558 3.86 2.73 5.027 4.592.964 1.535.792 3.581-1.187 5.205-2.91 2.39-5.715 4.553-10.339 3.613" fill="#FFF"/>
      <path d="M86.415 267.203c-3.362 3.371-5.05 6.86-6.442 10.602-.984 2.648-3.248 4.066-6.346 3.8-4.337-.37-6.178-2.809-4.237-6.65 4.475-8.86 6.225-9.655 17.025-7.752" fill="#FFF"/>
      <path d="M235.603 252.096c-7.543 4.622-14.099 8.664-20.68 12.66-2.963 1.8-5.987 3.496-8.966 5.264-5.207 3.086-5.201 3.094-11.694 1.697 12.05-6.332 23.823-13.151 35.702-19.783 1.358-.758 2.906-.355 5.638.162" fill="#FFF"/>
      <path d="M558.788 160.072c1.8 1.238 3.167 2.535 1.99 4.603-4.534 7.956-6.734 16.796-9.727 25.614-2.88.105-3.13-1.808-3.043-3.807.437-10.065 3.761-18.947 10.78-26.41" fill="#FFF"/>
      <path d="M163.151 65.06c-3.397-5.797-4.955-11.854-7.659-17.45-.464-.96-.248-2.047.767-2.615 3.097-1.734 6.236-3.391 10.096-5.476-1.343 9.145-2.266 17.314-3.204 25.54" fill="#FFF"/>
      <path d="M138.026 495.898c9.18-5.915 18.181 1.448 19.987 9.074.6 2.534-1.404 4.41-3.213 3.161-5.634-3.885-11.078-8.048-16.774-12.235" fill="#FFF"/>
      <path d="M13.675 371.286c6.92 4.338 14.037 6.127 22.046 6.841-1.553 2.666-1.726 5.362-3.645 7.242-4.474-1.673-9.066-2.408-13.28-4.35-4.557-2.1-5.51-3.69-5.121-9.733" fill="#FFF"/>
      <path d="M387.991 137.115c-13.784-5.417-24.727-18.09-26.683-31.256 9.07 11.188 17.075 21.953 26.683 31.256" fill="#FFF"/>
      <path d="M190.965 50.664c.61 1.478.49 2.68.084 3.73-2.06 5.333-1.636 10.613-.063 15.97.63 2.145.694 4.496-2.106 5.262-2.374.65-4.521-.303-5.187-2.663-1.5-5.31.129-18.563 7.272-22.299" fill="#FFF"/>
      <path d="M387.292 488.249c14.211 5.849 18.103 14.977 8.128 27.979.435-10.434-1.69-19.409-8.128-27.979" fill="#FFF"/>
      <path d="M407.25 513.856c1.561-6.445 2.703-12.383-.065-18.206 4.127-2.815 6.192.141 8.616 2.263 2.263 1.983 1.97 3.57.756 6.336-3.547 8.074-3.434 8.404-9.307 9.607" fill="#FFF"/>
      <path d="M552.473 202.202c3.98 3.111 4.958 6.711 5.412 10.494.21 1.757-3.057 11.886-4.265 14.057-4.188-1.263-5.258-4.489-4.442-8.188 1.135-5.149 2.303-10.296 3.295-16.363" fill="#FFF"/>
      <path d="M502.219 232.831c-7.73-2.55-14.543-7.518-23.31-4.129 1.77-4.824 1.77-4.824 9.787-5.232 1.674-1.77.598-5.954 5.369-5.839.445 5.995 5.334 9.811 8.154 15.2" fill="#FFF"/>
      <path d="M226.522 361.212c.653-3.688 1.25-7.901 2.007-11.6.222-1.088.621-2.465 1.423-3.044 1.567-1.132 7.36-1.717 7.36-1.717s-1.648 9.029-1.988 10.985c-.538 3.102-1.047 5.376-1.047 5.376s-4.35 1.029-7.755 0" fill="#FFF"/>
      <path d="M270.223 322.469c-.575-1.69-1.99-2.93-3.745-2.81-3.922.272-3.618-4.43-7.62-5.146-5.83 1.872-10.93 4.474-15.375 8.319-1.656 1.433-2.5 3.427-.294 4.396 2.805 1.232 5.086 2.836 7.192 4.963.583.589 1.86.679 2.643-.312-4.642-3.884-5.797-6.038-4.587-8.55.959-1.987 7.9-4.662 10.092-3.866 3.28 1.194 4.638 3.706 4.229 6.998-.402 3.23-7.148 2.019-5.692 4.517.914 1.568-3.896 6.885-9.238 4.902-1.632-.605-2.637-.642-3.633-1.883-1.12 4.094-4.393 9.452.62 11.994 2.1-.31 3.295-4.313 6.285-1.451.845 2.148-2.072 7.084 3.514 8.94 7.33-3.25 4.793-9.671 6.747-9.003 9.023 3.085 9.857-1.943 7.874-8.83-.99-.465-4.69 1.136-5.665 1.159-2.147.05-4.92.249-5.04-2.546-.121-2.82 2.247-.696 5.316-2.232 1.847-1.964 1.32-5.222 4.037-6.476 1.415-.652 3.02-1.082 2.34-3.083" fill="#FFF"/>
      <path d="M243.045 331.897c-2.566-3.022-6.272-5.188-8.198-2.914-4.867 5.745-11.77 8.308-17.716 12.347-.88.599-2.1 1.274-.851 3.147l26.765-12.58z" fill="#FFF"/>
      <path d="M135.534 358.413c22.525-11.532 43.574-24.035 64.01-37.49 20.383-13.418 40.78-26.868 60.009-42.536 9.709 8.195 19.637 16.202 30.132 23.48 12.734 8.83 25.539 17.548 38.59 25.91 19.397 12.425 39.19 24.165 59.467 35.095 3.76 2.026 3.735 2.074 2.238 5.215-12.62-5.808-24.616-12.785-36.194-20.378-9.285-6.089-18.517-12.26-28.036-17.967-17.102-10.252-33.408-21.667-49.48-33.426-4.261-3.117-8.11-6.795-12.173-10.186-3.522-2.94-5.151-3.087-8.355-.52-15.841 12.684-32.89 23.645-49.946 34.55-16.876 10.788-33.732 21.637-51.273 31.35-4.066 2.251-8.086 4.593-12.231 6.688-1.69.854-3.512 2.141-6.758.215" fill="#FFF"/>
      <path d="M387.672 392.584c-23.293-12.685-44.965-27.138-66.404-41.976-9.27-6.415-19.112-12.012-27.748-19.325-2.445-2.07-5.635-3.773-5.4-7.803.023-.373-.436-.988-.812-1.137-3.937-3.655-5.093-6.873-7.642-9.11-.765-.671 2.343-2.938 3.064-2.382 3.014 2.329 7.04 1.707 10.054 3.962 24.888 18.624 51.115 35.191 77.995 50.76 5.018 2.907 10.049 5.759 15.343 8.117 3.808 1.696 4.37 5.545 3.84 8.426-.634 3.458 1.953 7.825-2.29 10.468" fill="#FFF"/>
      <path d="M151.418 359.566c12.544-6.08 24.118-13.85 36.11-20.89.542-.318 26.636-16.812 36.65-23.58 2.739-1.85 6.632-1.259 9.657-3.146 1.107-.69 2.492.605 3.213 1.57.643.86.005 1.886-.846 2.576-2.683 2.177-4.524 5.327-7.933 6.69-.877.35-2.07 1.064-2.255 1.822-1.804 7.44-8.938 9.464-14.014 13.156-8.797 6.401-18.12 12.16-27.75 17.348-11.242 6.058-22.39 12.292-33.618 18.378-1.099.596-2.22 1.6-3.987.945-1.199-3.5-1.993-6.348-2.917-10.149.659-1.874 6.38-4.085 7.69-4.72" fill="#FFF"/>
      <path d="M289.5 483.198c-1.6-.248-2.857-.993-2.694-2.938.786-9.394.971-23.863 1.137-28.255.082-2.182 27.039-1.049 26.846 0-.502 2.726-.47 23.273-.845 30.453-.803.128-22.355 1.063-24.444.74m132.889-36.676c-67.664.311-134.999-1.042-202.762-1.064 1.859 5.39 6.728 9.588 2.937 15.977 10.034-.177 19.245.113 26.543 7.878.454-1.569.771-9.036.67-12.416-.119-3.97.109-5.308 2.232-5.382 8.268-.284 19.91.416 23.934.49 1.113.02 3.664.49 3.5 3.726-.355 7.001.188 14.974-.065 22.527-.165 4.943-1.978 6.175-6.98 5.774-4.696-.378-9.433-.775-14.61-.188 2.568 3.7 4.218 7.151 2.984 11.37-1.579 5.391-1.486 5.446 3.114 8.057 8.761 4.972 9.994 9.696 4.518 17.974-1.463 2.211-1.648 3.886.834 5.375.993.595 1.831 1.444 2.81 2.067 3.263 2.077 4.313 4.762 2.729 8.454-.575 1.34-.966 2.95 1.05 4.032 4.225-2.498 7.876-5.833 11.128-9.602 2.211-2.562 13.238-11.073 13.924-14.38.654-3.158-4.484-3.653-6.652-5.376-1.592-1.264-2.492-2.197-2.747-4.849-.447-4.653-.537-6.986.803-11.415 2.289-7.569 28.077-9.82 30.045-.988 1.19 5.34 11.871-4.633 18.074-13.25 1.375-1.91 1.187-9.304 1-12-.302-4.378-.242-9.189.057-13.5.176-2.537 1.445-3.453 3.859-3.434 6.925.054 13.856-.122 20.776.076 4.783.137 5.417.994 5.072 5.612-.393 5.268-.25 10.364-.764 15.621-.188 1.93-.345 4.738 1.625 4.875 2.65.186 4.653 1.001 6.625-.375.094-6.845.97-14.437.746-21.098-.102-3.066 1.614-4.572 4.659-4.565 5.619.013 11.242.168 16.855.001 3.502-.104 4.591 1.374 4.654 4.72.064 3.422-1.576 6.711-.741 10.761 6.464-3.017 13.165-3.74 20.204-4.627-2.345-5.57-2.549-11.029-2.64-16.858" fill="#FFF"/>
      <path d="M182.706 417.817c23.509 0 46.582.057 69.653-.018 17.936-.058 35.872-.38 53.807-.399 18.418-.019 36.836.213 55.254.29 10.604.045 21.209-.013 31.814.013 1.154.003 2.673-.169 3.4.461 4.177 3.607 9.376 4.568 14.415 6.16-3.617 0-7.26.27-10.85-.047-14.78-1.299-29.583-.543-44.373-.704-45.378-.49-90.761-.599-136.134-1.356-11.142-.186-22.294-.504-33.444-.662-2.362-.033-4.46-.213-3.542-3.738" fill="#FFF"/>
      <path d="M329.88 432.817c-4.878-.17-13.437-.159-18.043-.164-22.647-.023-45.295-.105-67.943-.143-1.847-.003-6.123-.127-8.021-.043-16.06-.239-52.115-.462-54.505-.868l-1.217 2.933c16.976.891 33.705.79 50.43.824 1.149.003 72.203-1.094 101.845 1.094.287.022.584.032.893.026 4.158-.072 8.324.161 12.477.012 14.074-.508 28.175-.229 42.239-.402 11.694-.145 23.53.011 35.29.491 1.817.073 4.236.777 4.484-3.029-32.576.11-65.074-.227-97.928-.73" fill="#FFF"/>
      <path d="M297.272 345.02c-8.04-7-17.505-10.376-27.77-12.012-.939-2.371.788-3.784 2.173-5.024 2.022-1.813 3.318.338 5.06 1.12 6.661 2.995 12.897 6.559 18.442 11.345 1.284 1.106 2.544 2.058 2.094 4.57" fill="#FFF"/>
      <path d="M276.371 362.153c-.062-6.047.902-11.674 1.772-17.282 2.843-.434 4.301-.146 7.031 1.14-.522 5.613-1.397 11.052-1.874 16.468-3.98.105-4.432-.1-6.929-.326" fill="#FFF"/>
      <path d="M266.456 539.565c-7.492-3.11-14.522-7.06-23.025-3.88.078-2.79 1.466-3.32 2.627-3.704 5.923-1.96 11.894-2.77 17.955-.423 3.872 1.498 4.651 3.555 2.443 8.007" fill="#FFF"/>
      <path d="M394.377 376.102c-.324-5.834 3.457-8.018 7.277-10.011 3.811-1.986 7.291-.347 10.297 1.874 2.397 1.773.164 4.61.617 7.342-5.96-3.606-11.924-3.553-18.191.795" fill="#FFF"/>
      <path d="M266.436 545.527c-7.478 5.371-16.725 3.612-22.111-3.864 5.386-2.456 14.772-.888 22.111 3.864" fill="#FFF"/>
      <path d="M190.16 131.494c1.857 1.805.911 2.845-.416 3.842-6.853 5.151-13.005 10.858-15.455 19.504-.396 1.398-.537 3.141-2.739 2.674-2.619-.557-1.72-2.427-1.28-3.916 1.39-4.714 2.547-9.407 7.793-11.879 2.534-1.195 4.693-3.515 6.471-5.963 1.36-1.872 3.062-3.485 5.626-4.262" fill="#FFF"/>
      <path d="M371.486 409.878c.322-4.721.791-10.221 1.903-15.021 6.804 1.965 7.46 3.044 5.992 10.286-1.165 5.747-1.165 5.747-7.895 4.735" fill="#FFF"/>
      <path d="M541.54 298.66c5.516-2.378 9.716-3.063 13.14 1.77 1.988 2.805 5.287 3.757 8.85 5.262-2.04 2.175-3.945 3.672-6.545 2.457-5.224-2.443-10.279-5.228-15.446-9.489" fill="#FFF"/>
      <path d="M170.494 98.12c.221-8.38 1.9-16.434 4.883-24.635 3.161 1.985 4.513 4.164 3.478 7.292-1.709 5.162-3.53 10.288-5.299 15.431-.44 1.28-.86 2.575-3.062 1.912" fill="#FFF"/>
      <path d="M295.96 222.725c3.817-3.661 7.028-4.396 11.38-2.474 2.252.995 4.594-3.5 9.437.313 1.606.92 3.972 3.648 3.782 4.219-.657 1.968-5.59 1.845-6.282 1.53-1.375-.624-4.643 4.25-7.062 4.25-1.957 0-2.875-3.687-5-4-2.5.563-8.054-2.111-6.254-3.838" fill="#FFF"/>
      <path d="M295.152 362.31h-6.734c.61-5.457.943-10.082 1.234-15.623 6.742 2.522 6.584 6.459 5.5 15.623" fill="#FFF"/>
      <path d="M213.577 510.475c-1.121-1.138-.736-2.238-.711-3.136.23-8.351-3.368-12.222-12.034-12.851-2.854-.208-6.103.43-7.73-3.083 9.41-3.115 17.468 2.247 21.888 8.253 2.473 3.36 1.802 7.2-1.413 10.817" fill="#FFF"/>
      <path d="M186.759 444.73c-4.75 6.4-5.151 6.508-11.041 4.542-2.992-.998-6.084-1.505-9.254-1.688-1.732-.101-3.636.34-5.43-1.041 2.042-2.793 4.899-3.274 7.837-2.88 5.707.767 11.383 1.733 17.888 1.066" fill="#FFF"/>
      <path d="M214.998 270.222c13.084-1.023 26.144-2.354 39.388-2.727-.096 1.988-.938 2.752-2.21 2.823-12.305.678-24.613 1.306-36.92 1.948l-.258-2.044" fill="#FFF"/>
      <path d="M337.049 230.643c6.064 1.058 6.018 1.054 5.524 6.517-.507 5.626-.904 11.26-1.37 16.89a6.275 6.275 0 0 0 .075 1.438l-3.418.242s.835-8.813 1.029-12.846c.014-4.54 1.306-6.205-2.236-6.205-1.76 0-.166-2.866.396-6.036" fill="#FFF"/>
      <path d="M356.832 151.122c4.309-2.954 12.188-.265 18.537 5.99-3.948 1.914-7.858 1.451-12.061 1.954-2.069.248-2.013-1.72-1.993-3.199.042-2.93-1.219-4.612-4.483-4.745" fill="#FFF"/>
      <path d="M272.07 348.266c-.46 5.548-.456 14.133-1.831 14.11-1.78-.03-5.372.119-7.011-.707 1.028-7.812.05-8.97 8.843-13.403" fill="#FFF"/>
      <path d="M536.2 214.352c-4.394-6.46-6.677-13.72-8.886-21.047 5.073 1.733 8.753 4.069 8.12 10.298-.352 3.46 2.106 6.881.765 10.75" fill="#FFF"/>
      <path d="M67.07 266.635c-2.099 3.71-4.835 6.62-5.137 10.848-.18 2.529-2.549 2.214-4.304 1.723-2.709-.756-3.563-2.773-2.796-5.37 1.308-4.43 5.695-7.088 12.237-7.201" fill="#FFF"/>
      <path d="M179.606 163.97c-.89-8.26 3.732-15.91 13.922-22.6-.279 2.198-1.542 3.545-2.529 4.894-3.147 4.302-6.114 8.625-6.979 14.08-.367 2.313-1.707 3.924-4.414 3.627" fill="#FFF"/>
      <path d="M221.634 123.045c-3.446 2.544-7.341 3.15-10.617 5.077-1.77 1.04-3.236-.14-4.38-1.314-1.262-1.3-.664-2.782.223-4.073 2.316-3.372 6.274-4.233 9.96-2.228 1.448.787 2.915 1.538 4.814 2.538" fill="#FFF"/>
      <path d="M305.752 362.404c-1.923.172-3.564.38-5.45-.222-.517-3.18.011-6.43.468-9.624.357-2.5 2.588-3.679 4.734-3.423 2.209.265 2.234 2.321 1.932 4.345-.435 2.903.066 5.96-1.684 8.924" fill="#FFF"/>
      <path d="M346.644 235.173c3.433 1.457 4.877 2.95 4.1 6.355-.696 4.857-.653 8.368-1.674 13.542-1.71.348-2.642.58-4.36.28.632-6.248 1.252-13.431 1.935-20.177" fill="#FFF"/>
      <path d="M543.328 215.273c-.819-6.213-2.63-12.238-1.887-18.499.2-1.687.997-3.41 3.102-3.25 2.035.156 2.045 2.104 2.041 3.483-.018 6.228-.717 12.368-3.256 18.266" fill="#FFF"/>
      <path d="M237.633 549.23c-6.497.057-12.377-1.393-17.9-4.008l.288-1.379c3.5-.394 7.048-.555 10.492-1.237 5.524-1.095 4.166 4.971 7.12 6.624" fill="#FFF"/>
      <path d="M364.277 145.24c-.904 1.645-2.157 1.347-2.879 1.035-2.454-1.06-4.389-1.453-6.467 1.048-1.258 1.513-3.592 1.612-5.577.541-1.592-.859-3.203-1.662-5.082-1.674 1.982-8.122 6.355-9.759 12.32-4.717 2.242 1.895 5.171 2.112 7.685 3.766" fill="#FFF"/>
      <path d="M213.663 360.958c1.13-5.476.427-13.398 9.99-13.396-1.229 4.626-2.813 13.473-2.813 13.473s-3.583.444-7.177-.077" fill="#FFF"/>
      <path d="M145.162 384.046c-1.736 5.896-2.324 11.302-4.364 16.4-7.17-4.957-5.682-11.12 4.364-16.4" fill="#FFF"/>
      <path d="M148.76 362.339c3.04-1.734 5.53-.785 7.104 1.989 1.29 2.278.474 4.602-1.63 6.084-1.645 1.159-3.57 1.679-5.535.353-1.81-1.221-2.794-2.81-2.362-5.007.217-1.106 1.972-3.357 2.423-3.42" fill="#000"/>
      <path d="M516.524 169.398c5.88 6.458 3.825 14.757 7.298 22.155-4.442-.635-6.444-1.58-5.73-5.767.765-4.492-1.499-8.749-2.148-13.16-.116-.793-.69-1.526.58-3.228" fill="#FFF"/>
      <path d="M360.284 255.042c-3.356.374-6.425.166-6.425.166s.308-2.329.468-4.52c.236-3.236.783-5.874 1.28-9.741 3.651 1.189 4.84 3.077 4.757 7.354-.046 2.387-.08 4.547-.08 6.741" fill="#FFF"/>
      <path d="M234.697 534.425c-5.086-2.074-9.366-.956-13.87-.891 9.113-7.683 12.448-8.583 16.728-4.588-.592 1.932-2.717 2.848-2.858 5.479" fill="#FFF"/>
      <path d="M216.13 177.148c3.078-2.091 5.705-4.225 8.093-6.575 2.575 2.161 5.473 6.737 6.767 10.585-2.461.872-11.256-1.702-14.86-4.01" fill="#FFF"/>
      <path d="M130.323 475.099c-.1.583-.07.803-.163.887-8.577 7.81-6.863 7.559-14.435-.806 4.521-2.15 9.533-2.2 14.598-.081" fill="#FFF"/>
      <path d="M211.777 349.505c-1.057 4.678-2.466 11.816-2.466 11.816s-4.218.282-7.409-.068c-.35-2.866.166-6.68 1.936-8.721 2.973-3.43 4.772-2.515 7.94-3.027" fill="#FFF"/>
      <path d="M166.389 90.176c-1.443-.29-1.723-1.575-1.512-1.938 2.438-4.175-.494-7.917-.815-11.848-.18-2.207-1.825-4.87.769-6.363 2.644-1.523 3.753 1.726 5.946 2.478-1.802 5.992-4.058 11.58-4.388 17.67" fill="#FFF"/>
      <path d="M186.166 485.776c-9.679-2.872-18.543.124-27.47 3.585 1.185-6.41 20.848-9.243 27.47-3.585" fill="#FFF"/>
      <path d="M119.28 118.463c3.65-1.65 7.298-3.301 11.472-5.19 1.051 3.489 1.63 6.734 1.377 10.777-4.706-1.43-8.36-4.308-12.98-4.626l.131-.961" fill="#FFF"/>
      <path d="M347.01 152.873c-3.856.089-4.854 2.196-4.687 5.278.14 2.585-1.232 3.287-3.667 3.484-2.89.233-5.42 1.158-9.273.461 5.43-3.994 10.08-7.504 14.85-10.844.922-.646 1.746.488 2.777 1.621" fill="#FFF"/>
      <path d="M250.73 262.047c-.181-4.91-3.016-10.533 5.967-13.53-.236 4.827.663 8.153.455 12.422-2.438.312-4.054.826-6.422 1.108" fill="#FFF"/>
      <path d="M288.05 229.575c.272 3.486-.27 6.823.17 9.24-2.884-.366-5.351.293-7.072.416-.285-8.125-.574-8.276 6.903-9.656" fill="#FFF"/>
      <path d="M267.144 240.87v10.03c-2.302.81-4.537 1.774-6.38 4.333.826-5.353-1.615-11.755 6.38-14.364" fill="#FFF"/>
      <path d="M317.201 162.215l21.113-16.604c-.536 6.2-5.203 7.46-8.93 10.536-3.857 2.417-7.435 4.887-11.047 7.459l-1.136-1.391" fill="#FFF"/>
      <path d="M178.6 104.364c-2.34-4.666 3.139-7.07 2.833-11.142 3.127 1.924 4.507 4.656 6.254 8.052-3.923-.576-5.577 3.111-9.086 3.09" fill="#FFF"/>
      <path d="M232.61 519.213c-4.076 1.7-7.47 2.887-10.645 4.503-3.213 1.636-6.21 3.696-9.335 5.59 1.156-5.644 12.662-11.897 19.98-10.093" fill="#FFF"/>
      <path d="M324.965 227.78l-.971 9.01c-1.781.766-3.87 1.471-5.031-.179-1.375-1.954-.793-4.672-.096-6.749.8-2.387 3.38-1.992 6.098-2.083" fill="#FFF"/>
      <path d="M307.904 202.773c4.168 1.401 6.936 4.79 9.404 7.446a46.651 46.651 0 0 1-2.205 1.75s-.774-.722-1.226-1.112c-6.359-5.489-5.959-4.925-11.662.83-.178.178-2.5-.843-3.188-1.155 3.2-4.385 5-5.476 8.877-7.759" fill="#FFF"/>
      <path d="M301.83 403.228c-.178 2.522-.158 4.102-.56 5.964h-7.358c-.88-5.94.74-6.236 7.918-5.964" fill="#FFF"/>
      <path d="M371.047 254.897c-2.15.042-4.958.304-7.108.042.337-2.792.625-5.282.557-8.022 6.385 1.618 6.53 3.063 6.55 7.98" fill="#FFF"/>
      <path d="M559.672 230.807c1.347-6.39 1.915-7.713 4.73-11.378 2.133 1.417 2.995 3.658 4.3 5.988-2.916 1.866-5.387 3.886-9.03 5.39" fill="#FFF"/>
      <path d="M203.009 532.813c-3.898-4.22-3.867-5.144.34-7.194 3.008-1.467 5.704-3.233 7.67-5.946 1.027-1.414 1.953-2.726 4.11-1.67-3.837 5.126-10.216 7.98-12.12 14.81" fill="#FFF"/>
      <path d="M291.712 229.575c5.462 1.528 5.686 2.995 6.065 3.707.25.47-.125 4.945-.718 5.063-1.631.323-5.157.281-5.157.281s.027-4.356-.011-5.506c-.031-.91-.133-2.093-.18-3.545" fill="#FFF"/>
      <path d="M306.48 409.034c.172-2.562-.065-3.986.503-5.873 2.281-.19 4.606 0 6.678.72-.322 2.285-.389 3.595-.73 5.452-2.251.043-4.21.353-6.45-.299" fill="#FFF"/>
      <path d="M231.586 409.191c.19-2.33.19-3.62.19-6.139 1.001.33 7.583-.989 7.251 2.552 0 3.753-1.124 3.805-7.44 3.587" fill="#FFF"/>
      <path d="M252.009 403.636c-.222 5.883-.454 6.02-7.322 5.627-.306-5.75-.256-6.7 7.322-5.627" fill="#FFF"/>
      <path d="M225.275 403.383c-.232 2.084.184 3.68-.08 5.07-.268 1.41-2.746.784-4.534.808-2.746.036-2.467-2.008-2.185-3.881.301-1.997.89-2.2 6.8-1.997" fill="#FFF"/>
      <path d="M328.578 228.196c4.255.509 6.456 4.21 4.312 7.439-.895 1.35-2.349 1.057-3.597.915-1.424-.161-1.779-1.38-1.639-2.595.225-1.943.536-3.411.924-5.76" fill="#FFF"/>
      <path d="M536.303 221.81c-2.844 2.92-5.27 1.488-7.521-.258-3.012-2.338-.454-4.291.65-7.113 1.942 3.23 4.87 4.71 6.87 7.371" fill="#FFF"/>
      <path d="M311.547 353.856c2.137 1.547 3.574 2.594 5.018 3.631 1.273.914 2.224 1.974 1.804 3.713-.525 2.17-2.277 1.44-3.636 1.481-1.123.034-2.338.216-3.398-.848-.67-2.313.087-4.72.212-7.977" fill="#FFF"/>
      <path d="M429.89 153.256c-7.75 3.495-17.554 5.832-25.458 7.296-18.78 3.012-76.443 7.85-83.654 8.959-.206 1.053.035 2.529 1.375 2.553 4.076.07 24.695-1.395 24.697-1.395.157-.012 16.425-1.342 23.816-2.183 8.754-.994 39.553-4.018 52.578-6.69 1.239-.072 2.207-.28 2.989-.69.005-.001.003-.002.006-.003 1.893-1 2.706-3.225 3.652-7.847" fill="#FFF"/>
      <path d="M188.028 402.807c0 2.29.234 3.119.065 4.995-3.303.153-4.398.153-6.457.34-.618-6.023-.254-5.903 6.392-5.335" fill="#FFF"/>
      <path d="M385.412 157.84c-5.773-3.57-11.74-6.862-16.404-12.06 6.447 2.607 11.748 6.954 17.648 10.383l-1.244 1.678" fill="#FFF"/>
      <path d="M193.488 108.871c-3.997 6.5-3.997 6.5-13.286 3.785 4.032-2.71 8.341-2.766 13.286-3.785" fill="#FFF"/>
      <path d="M276.777 403.228c0 2.296-.178 3.99-.656 5.923-2.469.133-6.519.43-6.56 0-.139-1.435.034-5.923.341-6.099.51-.29 4.25.175 6.875.175" fill="#FFF"/>
      <path d="M288.435 403.871c.272 1.962-.032 3.755.077 5.32-2.172.184-4.65.256-6.567-.11-.281-5.83-.281-5.83 6.49-5.21" fill="#FFF"/>
      <path d="M80.594 471.42c-3.1 3.73-7.95 5.67-10.816 4.438-.822-.352-1.053-.126-1.105-2.288 4.214-.45 7.76-2.66 11.92-2.15" fill="#FFF"/>
      <path d="M257.57 403.636c2.522 0 6.44-.372 6.618 0 .527 1.115.477 3.802.152 5.562-2.625 0-3.562.182-6.572.019-.178-2.466-.358-3.73-.198-5.581" fill="#FFF"/>
      <path d="M194.944 403.106c.402-.712 4.366-.3 6.167-.3.06 2.038-.411 3.618-.348 5.337-3.091.7-6.797 0-6.797 0s-.436-2.535.978-5.037" fill="#FFF"/>
      <path d="M245.636 254.552c.49 4.558.49 5.386 1.052 7.995-2.037.084-6.035 1.704-7.285-.187-1.184-3.88 3.824-5.68 6.233-7.808" fill="#FFF"/>
      <path d="M333.887 242.413c-3.805.105-7.604.365-12.054.6l.006.005c-8.092.645-34.081 2.682-42.146 3.322 0 .003.002.006.003.008-2.07-.07-4.098.395-6.101.498-1.224 3.323-1.674 6.401.507 9.601 2.075-2.439.457-5.353 1.685-7.963l4.627-.724c8.116-.598 46.277-3.635 47.279-3.555 4.343.346 4.764.637 4.677 4.972-.048 2.41-.133 5.052-.133 7.27 1.3.041 2.708-.3 2.708-.3s.784-7.862 1.044-11.479c.093-1.308-.757-2.293-2.102-2.255" fill="#FFF"/>
      <path d="M430.295 212.153c-3.761-1.016-5.914-3.909-8.441-6.249-.92-.854-.524-2.239.653-2.973.966-.603 2.085-.465 2.585.55 1.48 3.01 3.244 5.848 5.203 8.672" fill="#FFF"/>
      <path d="M206.528 408.522c.262-2.017-.22-3.327.916-4.887 1.868-.828 2.78-.53 5.917-.53-.144 2.781-.416 5.688-.416 5.688-2.167-.064-3.633-.339-6.417-.272" fill="#FFF"/>
      <path d="M485.59 402.044c-.338-2.587-.825-4.843 1.17-6.846 3.046 1.02 3.727 3.674 4.87 6.379-2.276 1.433-4.087.69-6.04.467" fill="#FFF"/>
      <path d="M387.763 409.995c-4.817.115-5.294-1.212-3.356-8.21 2.455 1.14 2.455 1.14 3.356 8.21" fill="#FFF"/>
      <path d="M315.111 229.813c-.584 3.203-.42 5.835-.738 8.532-2.287-.244-4.408.45-4.944-2.016-.733-3.38 3.645-4.672 5.682-6.517" fill="#FFF"/>
      <path d="M89.692 464.445c-.29-2.006-1.654-5.507-.832-8.59.192-.722 1.417-.286 1.826-.286.924 2.036 1.918 7.658 1.435 7.963-.844.532-2.366 1.351-2.429.913" fill="#FFF"/>
      <path d="M126.879 492.938c1.98-.005 1.174 7.627 1.335 11.81-2.533-1.7-4.33-6.79-2.938-11.227.162-.514 1.04-.58 1.603-.583" fill="#FFF"/>
      <path d="M277.08 233.41v6.882c-2.052.577-3.88 1.646-5.208 2.12-.36.128.132-2.408.239-3.306.408-3.415 2.286-4.162 4.969-5.697" fill="#FFF"/>
      <path d="M169.944 407.735c.583-5.906.917-5.886 6.13-5.174.357 2.055.838 4.977-.463 5.293-1.5.365-4.136-.408-5.667-.119" fill="#FFF"/>
      <path d="M301.027 213.532c-4.199 3.244-8.43 6.77-12.746 9.545 4.587-5.748 9.34-10.777 9.34-10.777s1.602.258 3.406 1.232" fill="#FFF"/>
      <path fill="#FFF" d="M319.902 257.534h-2.875l.25-9.386 3.292-.335z"/>
      <path d="M198.544 354.575l-1.851 7.195c-3.478-.327-4.166-.207-6.853-.207 1.82-3.33 5.308-4.876 8.704-6.988" fill="#FFF"/>
      <path d="M324.809 222.564c-2.731-.344-5.371-5.862-8.781-9.094.875-.938 2.562-1.938 2.562-1.938s4.783 7.125 6.219 11.031" fill="#FFF"/>
      <path d="M182.88 121.22c-2.526 2.736-4.087 4.95-6.459 6.402-3.135-4.192-2.267-5.15 6.458-6.402" fill="#FFF"/>
      <path d="M353.736 153.071c.771 1.99.43 3.651.432 5.278.001 1.17-.732 1.814-1.872 1.866-1.175.053-1.699-.675-2.03-1.745-.967-3.119-.173-4.482 3.47-5.399" fill="#FFF"/>
      <path d="M80.823 470.923c.105-3.05-.943-7.658-.42-10.276.18-.913.395-.776 1.756-.776 2.343 4.223 2.06 7.817-1.336 11.052" fill="#FFF"/>
      <path d="M197.694 540.334c-.312-1.541-20.373-11.198-21.67-11.93-4.253-2.395-6.519-1.803-8.876 2.686-3.616 6.89-7.034 13.884-10.639 20.779-1.038 1.986-2.19 3.656-.28 4.694 7.423 3.438 20.714 11.188 28.548 13.742.644-.679 1.806-2.453 0-3.114-5.733-2.098-22.033-10.434-25.625-12.166-1.5-.375 7.138-15.615 10.081-21.892 1.312-2.797 2.946-3.204 5.46-1.807 1.18.657 18.434 9.378 21.647 10.737.406.172 1.498-1.021 1.354-1.729" fill="#FFF"/>
      <path d="M394.756 196.705c-1.217-4.682-4.035-5.245-8.025-5.208-10.992.101-21.903 1.12-32.848 1.841-1.818-.15-5.001-.712-8.525.596 2.138 1.774 8.437 4.681 10.578 5.557 6.186 3.781 12.229 7.798 18.3 11.765 1.85 1.208 3.259 3.18 6.042 3.471-1.917-11.594 8.617-13.152 14.478-18.022" fill="#FFF"/>
      <path d="M300.277 231.798c2.622.4 5.575 1.349 5.317 4.62-.154 1.95-.79 2.042-4.805 1.862-.178-1.518-.265-4.368-.512-6.482" fill="#FFF"/>
      <path d="M128.25 447.94c-.5-4.03-3.499-1.229-5.281-2.794 1.529-1.624 2.954-2.912 5.143-1.943 1.763.78 1.776 2.191.138 4.737" fill="#FFF"/>
      <path d="M88.168 344.786c-4.539 4.906-4.607 4.905-6.839.2 2.102-.637 4.174-.408 6.839-.2" fill="#FFF"/>
      <path d="M313.515 342.792c-2.964.038-5.224-2.076-5.188-4.857.03-2.513 2.597-5.1 5.156-5.198 2.497-.094 5.139 2.51 5.164 5.09.026 2.658-2.321 4.929-5.132 4.965" fill="#000"/>
      <path d="M351.083 367.685c-2.926-.025-5.046-2.191-4.946-5.053.101-2.941 2.23-4.982 5.158-4.944 2.255.03 4.808 2.624 4.817 4.895.013 2.876-2.207 5.127-5.029 5.102" fill="#000"/>
      <path d="M576.068 263.45c6.06.013 11.334 5.721 11.313 12.243-.02 6.925-5.307 12.02-12.458 12.005-6.812-.014-12.66-5.435-12.558-12.074.123-7.913 6.224-12.867 13.703-12.174" fill="#000"/>
      <path d="M312.325 370.781c.146 8.23-1.108 15.507-1.913 23.211-43.367-.54-86.12-1.07-129.396-1.61 1.636-7.122 3.197-13.682 4.628-20.27.594-2.732 2.548-2.599 4.58-2.559 12.131.241 24.263.592 36.395.684 24.083.184 48.161.95 72.248.555 4.383-.073 8.768-.01 13.458-.01" fill="#000"/>
      <path d="M116.425 520.24c.844.187 7.038 1.117 12.405 1.387-2.098 3.368-3.801 6.224-5.963 8.042-1.34 1.126-8.757-7.396-6.442-9.43" fill="#000"/>
      <path d="M134.315 514.584c-1.925 1.796-2.417 2.542-3.246 2.436-.77-.099-2.02-1.914-2.786-2.666-.773-.759.593-3.234 1.995-3.292.999-.042 4.975 2.647 4.037 3.522" fill="#000"/>
      <path d="M102.152 478.906c.22.407-1.969 2.188-2.875 2.75-2.745-2.81-6.233-6.7-8.53-9.655 1.53-1.892 3.034-3.036 5.22-.364 1.417 1.736 4.697 4.5 6.185 7.27" fill="#000"/>
      <path d="M96.038 483.128c-3.266 3.04-3.41 2.94-9.964-6.552 2.819-2.374 2.819-2.374 9.964 6.552" fill="#000"/>
      <path d="M351.216 140.439c2.124.219 2.85 1.462 2.862 2.974.015 1.694-1.15 2.683-2.974 2.582-1.514-.084-2.6-.816-2.737-2.358-.188-2.13 1.522-2.98 2.849-3.198" fill="#000"/>
      <path d="M335.746 39.657c-2.99-2.977-11.443-11.68-12.879-12.926-.608-.527 16.576-8.214 16.576-11.333 0-1.297-38.403-5.424-40-3.083-1 1.466 11.428 10.03 16.446 14.435.342.301 3.385-2.226 3.592-2.383-1.178-1.178-8.368-7.477-8.788-7.886-.423-.412 3.793.375 8.57.834 3.852.37 7.582.582 10.14.582-2.257 1.325-31.052 19.26-31.052 20.79 0 1.282 2.832 3.658 3.901 3.051.615-.349 9.87-7.925 13.704-10.627-.067 2.494-3.366 19.08-2.429 19.452 1.875.746 2.783.68 5.903.452 1.57-.114.438-12.765 1.303-19.922 1.616 1.924 9.273 9.752 12.17 12.345 1.08.967 2.116 2.015 3.77.042 1.515-1.807.01-2.892-.927-3.823" fill="#000"/>
      <path d="M209.311 372.741c-.143 5.83-1.577 10.94-2.392 16.303-2.574 1-5.177.39-7.947.463-.008-5.865 1.8-11.147 2.618-16.766h7.721z" fill="#FFF"/>
      <path d="M291.728 374.042c2.412-.824 4.39-.362 6.685-.453.546 5.895-.555 11.497-1.29 16.825-.796 1.033-1.632 1-2.46 1.011-5.226.069-4.97.091-4.57-4.961.327-4.125 1.096-8.147 1.635-12.422" fill="#FFF"/>
      <path d="M265.39 390.397c-.39-5.668 2.033-10.753 2.2-16.3 2.53-.756 4.873-.951 7.378-.172l-2.107 16.48c-2.45.534-4.83.58-7.471-.008" fill="#FFF"/>
      <path d="M253.14 373.313c-.163 5.247-1.272 10.1-1.982 15-.456 3.146-2.965 2.113-4.718 2.07-1.976-.05-2.177-1.498-1.815-3.246.672-3.236 1.144-6.512 1.72-9.767.847-4.798.92-4.841 6.796-4.058" fill="#FFF"/>
      <path d="M231.142 375.78c-.646 4.04-1.334 8.071-1.924 12.118-.355 2.438-2.02 2.074-3.701 1.981-1.926-.109-3.42-.847-3.03-2.94.775-4.183 1.793-8.325 2.83-12.454.565-2.246 2.58-1.773 4.106-1.657 1.666.127 1.949 1.51 1.719 2.952" fill="#FFF"/>
      <path d="M282.777 210.064l-12.5 9" stroke="#000" stroke-width="2" stroke-linecap="round" stroke-linejoin="round"/>
      <path d="M177.277 244.814l2.5.75" stroke="#000" stroke-width="2" stroke-linecap="round" stroke-linejoin="round"/>
      <path d="M180.277 246.064c5.801 1.5 11.205 3.853 16 7.5" stroke="#000" stroke-width="2" stroke-linecap="round" stroke-linejoin="round"/>
      <path d="M446.277 82.064c3.412.982 6.285 3.1 9.5 4.5" stroke="#000" stroke-width="2" stroke-linecap="round" stroke-linejoin="round"/>
      <path d="M361.777 226.064l-16.5-11" stroke="#000" stroke-width="2" stroke-linecap="round" stroke-linejoin="round"/>
      <path d="M324.277 133.814l2.5.75" stroke="#000" stroke-width="2" stroke-linecap="round" stroke-linejoin="round"/>
      <path d="M396.777 237.064c-.484 1.982 1.191 3.57 1 5.5" stroke="#000" stroke-width="2" stroke-linecap="round" stroke-linejoin="round"/>
      <path d="M270.027 248.564c-.728 1.42.33 3.138-.75 4.5" stroke="#000" stroke-width="2" stroke-linecap="round" stroke-linejoin="round"/>
      <path d="M411.277 49.313c2.672-.769 4.912.148 7.006 1.743 1.143.872 1.43 1.824.494 3.008" stroke="#000" stroke-width="2" stroke-linecap="round" stroke-linejoin="round"/>
      <path d="M287.277 270.813c-1.42.73-3.138-.328-4.5.75" stroke="#000" stroke-width="2" stroke-linecap="round" stroke-linejoin="round"/>
      <path d="M576.277 355.313c-3.518-.661-7.037-1.411-10.5.25" stroke="#000" stroke-width="2" stroke-linecap="round" stroke-linejoin="round"/>
      <path d="M217.277 266.813c-3.37 1.416-6.889 2.689-7 7.25" stroke="#000" stroke-width="2" stroke-linecap="round" stroke-linejoin="round"/>
      <path d="M390.527 499.563l1.75 6.5" stroke="#000" stroke-width="2" stroke-linecap="round" stroke-linejoin="round"/>
      <path d="M558.777 157.064c-4.857 4.322-6.885 10.632-10.85 15.618-1.06 1.334-2.486 2.657-3.15 4.382" stroke="#000" stroke-width="2" stroke-linecap="round" stroke-linejoin="round"/>
      <path d="M427.027 313.563l-.75 2.5" stroke="#000" stroke-width="2" stroke-linecap="round" stroke-linejoin="round"/>
      <path d="M200.527 172.564l.75 3.5" stroke="#000" stroke-width="2" stroke-linecap="round" stroke-linejoin="round"/>
      <path d="M442.777 66.564c.49 4.56 3.713 4.335 7 4" stroke="#000" stroke-width="2" stroke-linecap="round" stroke-linejoin="round"/>
      <path d="M456.777 299.063c-.27 2.822-2.139 4.656-3.999 6.502-3.323 3.295-6.039 6.988-7.5 11.498" stroke="#000" stroke-width="2" stroke-linecap="round" stroke-linejoin="round"/>
      <path d="M247.277 537.813c-1.333.083-2.667.168-4 .25" stroke="#000" stroke-width="2" stroke-linecap="round" stroke-linejoin="round"/>
      <path d="M475.277 230.064c3.781 1.353 7.723-.96 11.5.5" stroke="#000" stroke-width="2" stroke-linecap="round" stroke-linejoin="round"/>
      <path d="M421.777 497.563c.562 2.15-1.293 3.897-1 6" stroke="#000" stroke-width="2" stroke-linecap="round" stroke-linejoin="round"/>
      <path d="M320.277 147.064c-3.594-3.212-8.463-1.87-12.5-3.5" stroke="#000" stroke-width="2" stroke-linecap="round" stroke-linejoin="round"/>
      <path d="M268.277 134.314c-4.236-.815-7.844-4.047-12.5-3.25" stroke="#000" stroke-width="2" stroke-linecap="round" stroke-linejoin="round"/>
      <path d="M168.027 50.563c-.639 1.084.202 2.483-.75 3.5" stroke="#000" stroke-width="2" stroke-linecap="round" stroke-linejoin="round"/>
      <path d="M9.777 268.063c-2.163 3.96-3.255 8.935-9 9.5" stroke="#000" stroke-width="2" stroke-linecap="round" stroke-linejoin="round"/>
      <path d="M118.277 162.564c2.014-.002 4.1.268 5.988-.53 4.637-1.956 8.23.65 12.012 2.53" stroke="#000" stroke-width="2" stroke-linecap="round" stroke-linejoin="round"/>
      <path d="M558.027 224.564l-.75 2.5" stroke="#000" stroke-width="2" stroke-linecap="round" stroke-linejoin="round"/>
      <path d="M449.277 296.313c2.264-.901 4.638-.772 7-.75" stroke="#000" stroke-width="2" stroke-linecap="round" stroke-linejoin="round"/>
      <path d="M340.277 144.064c-1.684-.052-3.115.322-4.532 1.46-6.76 5.422-13.634 10.707-20.468 16.04" stroke="#000" stroke-width="2" stroke-linecap="round" stroke-linejoin="round"/>
      <path d="M327.777 160.064c4.105-3.782 9.734-5.678 13-10.5" stroke="#000" stroke-width="2" stroke-linecap="round" stroke-linejoin="round"/>
      <path d="M369.277 143.064c5.116 1.636 8.617 5.757 13.044 8.428 3.072 1.852 6.407 3.183 7.456 7.072" stroke="#000" stroke-width="2" stroke-linecap="round" stroke-linejoin="round"/>
      <path d="M134.777 425.063c-3.236 2.928-7.465 4.805-9.5 9" stroke="#000" stroke-width="2" stroke-linecap="round" stroke-linejoin="round"/>
      <path d="M118.277 470.813c4.446 1 9.133.137 13.5 1.75" stroke="#000" stroke-width="2" stroke-linecap="round" stroke-linejoin="round"/>
      <path d="M132.777 440.563c.777 3.509 3.76 4.132 6.51 4.4 2.688.263 5.345.594 7.99 1.1" stroke="#000" stroke-width="2" stroke-linecap="round" stroke-linejoin="round"/>
      <path d="M505.777 384.063c2.174-6.227 2.065-6.662-2-8" stroke="#000" stroke-width="2" stroke-linecap="round" stroke-linejoin="round"/>
      <path d="M499.777 204.564c3.506-2.254 5.676-5.696 8-9" stroke="#000" stroke-width="2" stroke-linecap="round" stroke-linejoin="round"/>
      <path d="M529.777 258.063c-3.064 1.86-5.538 4.845-9.5 5" stroke="#000" stroke-width="2" stroke-linecap="round" stroke-linejoin="round"/>
      <path d="M508.277 266.563c-3.244.656-4.7-2.265-7-3.5" stroke="#000" stroke-width="2" stroke-linecap="round" stroke-linejoin="round"/>
      <path d="M47.777 275.563c-4.212 3.613-7.016 8.651-11.945 11.593-1.01.6-2.136.745-3.055 1.407" stroke="#000" stroke-width="2" stroke-linecap="round" stroke-linejoin="round"/>
      <path d="M173.777 72.064c-2.694 5.012-3.676 10.606-4.805 16.04-.535 2.573-1.357 4.576-2.945 6.46" stroke="#000" stroke-width="2" stroke-linecap="round" stroke-linejoin="round"/>
      <path d="M114.777 107.064c-2.36-1.38-4.843-2.327-7.482-.965-1.735.895-3.082.213-4.518-.535" stroke="#000" stroke-width="2" stroke-linecap="round" stroke-linejoin="round"/>
      <path d="M460.277 241.814l8.5.25" stroke="#000" stroke-width="2" stroke-linecap="round" stroke-linejoin="round"/>
      <path d="M475.027 215.064c-4.664-2.624-9.414-2.797-14.25-.5" stroke="#000" stroke-width="2" stroke-linecap="round" stroke-linejoin="round"/>
      <path d="M319.027 384.563l-.25 2" stroke="#000" stroke-width="2" stroke-linecap="round" stroke-linejoin="round"/>
      <path d="M523.777 219.564c.834 1 1.762 1.936 2.482 3.012 2.207 3.297 5.152 4.549 9.018 3.488" stroke="#000" stroke-width="2" stroke-linecap="round" stroke-linejoin="round"/>
      <path d="M154.277 425.563c-3.333 1.834-6.667 3.668-10 5.5" stroke="#000" stroke-width="2" stroke-linecap="round" stroke-linejoin="round"/>
      <path d="M62.777 359.063c-1.025-.013-2.086.184-3-.5" stroke="#000" stroke-width="2" stroke-linecap="round" stroke-linejoin="round"/>
      <path d="M68.777 478.063c5.042 3.166 8.58-1.17 11.8-3.303 2.3-1.524 4.611-4.368 6.2-7.197" stroke="#000" stroke-width="2" stroke-linecap="round" stroke-linejoin="round"/>
      <path d="M480.777 402.563c2.21 3.372 6.03 1.91 9 3" stroke="#000" stroke-width="2" stroke-linecap="round" stroke-linejoin="round"/>
      <path d="M354.277 150.564c3.117-6.08 8.518-.743 12.5-2.5 4.073 3.757 10.91 4.63 12 11.5" stroke="#000" stroke-width="2" stroke-linecap="round" stroke-linejoin="round"/>
      <path d="M240.777 389.563c4.667 2.559 9.333 4.04 14 0" stroke="#000" stroke-width="2" stroke-linecap="round" stroke-linejoin="round"/>
      <path d="M218.777 388.563c4.46 3.238 9.093 4.03 14 1" stroke="#000" stroke-width="2" stroke-linecap="round" stroke-linejoin="round"/>
      <path d="M195.777 389.563c4.667 2.415 9.333 2.415 14 0" stroke="#000" stroke-width="2" stroke-linecap="round" stroke-linejoin="round"/>
      <path d="M277.777 373.563c-4.333-2.346-8.667-2.346-13 0" stroke="#000" stroke-width="2" stroke-linecap="round" stroke-linejoin="round"/>
      <path d="M255.777 373.563c-4.628-3.5-8.912-2.515-13 1" stroke="#000" stroke-width="2" stroke-linecap="round" stroke-linejoin="round"/>
      <path d="M309.777 402.063c.043-.854.051-2.246-.973-1.913-3.679 1.197-7.408-.784-11.027.413" stroke="#000" stroke-width="2" stroke-linecap="round" stroke-linejoin="round"/>
      <path d="M262.777 390.563c4.333 2.02 8.667 3.062 13 0" stroke="#000" stroke-width="2" stroke-linecap="round" stroke-linejoin="round"/>
      <path d="M210.777 372.563c-4-1.563-8-2.705-12 0" stroke="#000" stroke-width="2" stroke-linecap="round" stroke-linejoin="round"/>
      <path d="M286.777 390.563c3.795 2.8 7.836 2.635 12 1" stroke="#000" stroke-width="2" stroke-linecap="round" stroke-linejoin="round"/>
      <path d="M85.527 405.563c.781 1.762-.403 3.79.75 5.5" stroke="#000" stroke-width="2" stroke-linecap="round" stroke-linejoin="round"/>
      <path d="M302.277 374.063c-4.037-3.407-8.25-2.426-12.5-.5" stroke="#000" stroke-width="2" stroke-linecap="round" stroke-linejoin="round"/>
      <path d="M219.277 97.064c-3.375 2.89-2.1 7.894-5 11" stroke="#000" stroke-width="2" stroke-linecap="round" stroke-linejoin="round"/>
      <path d="M266.777 401.563c3.163-2.04 6.545-1.877 10-1" stroke="#000" stroke-width="2" stroke-linecap="round" stroke-linejoin="round"/>
      <path d="M86.777 463.063c-.245.988.544 2.147-.5 3" stroke="#000" stroke-width="2" stroke-linecap="round" stroke-linejoin="round"/>
      <path d="M114.027 393.563l-.25 3" stroke="#000" stroke-width="2" stroke-linecap="round" stroke-linejoin="round"/>
      <path d="M466.277 286.563c2.003 2.886.645 7.185 4 9.5" stroke="#000" stroke-width="2" stroke-linecap="round" stroke-linejoin="round"/>
      <path d="M565.277 216.564l8 8.5" stroke="#000" stroke-width="2" stroke-linecap="round" stroke-linejoin="round"/>
      <path d="M295.277 242.314l2.5-.75" stroke="#000" stroke-width="2" stroke-linecap="round" stroke-linejoin="round"/>
      <path d="M418.277 211.564c4.473-2.406 7.604-.113 10.5 3" stroke="#000" stroke-width="2" stroke-linecap="round" stroke-linejoin="round"/>
      <path d="M342.277 148.564c2.823-.538 4.787 1.803 7.051 2.23 2.502.474 5.263-.666 6.95 2.27" stroke="#000" stroke-width="2" stroke-linecap="round" stroke-linejoin="round"/>
      <path d="M345.277 302.063c-5.52 3.935-2.979 8.49-1 13" stroke="#000" stroke-width="2" stroke-linecap="round" stroke-linejoin="round"/>
      <path d="M235.277 363.813c-.667.084-1.333.168-2 .25" stroke="#000" stroke-width="2" stroke-linecap="round" stroke-linejoin="round"/>
      <path d="M310.277 400.313c1.693-.457 3.361-.397 5 .25" stroke="#000" stroke-width="2" stroke-linecap="round" stroke-linejoin="round"/>
      <path d="M116.897 97.98c.94 1.343-.485 1.072-.62 1.584" stroke="#000" stroke-width="2" stroke-linecap="round" stroke-linejoin="round"/>
      <path d="M148.277 531.563c.057 1.648 1.886 2.706 1.5 4.5" stroke="#000" stroke-width="2" stroke-linecap="round" stroke-linejoin="round"/>
      <path d="M209.777 483.313c-1.466.762-2.912 1.545-3.5 3.25" stroke="#000" stroke-width="2" stroke-linecap="round" stroke-linejoin="round"/>
      <path d="M222.777 373.563c3.667-2.878 7.333-2.878 11 0" stroke="#000" stroke-width="2" stroke-linecap="round" stroke-linejoin="round"/>
      <path d="M420.777 485.313l-3 2.25" stroke="#000" stroke-width="2" stroke-linecap="round" stroke-linejoin="round"/>
      <path d="M388.027 438.063l.25 3" stroke="#000" stroke-width="2" stroke-linecap="round" stroke-linejoin="round"/>
      <path d="M141.277 174.564c.694 1.823 2.717 3.163 2 5.5" stroke="#000" stroke-width="2" stroke-linecap="round" stroke-linejoin="round"/>
      <path d="M351.027 360.063c.444 1.045.374 2.046-.25 3" stroke="#000" stroke-width="2" stroke-linecap="round" stroke-linejoin="round"/>
      <path d="M497.027 158.064l.25 2" stroke="#000" stroke-width="2" stroke-linecap="round" stroke-linejoin="round"/>
      <path d="M205.277 86.064l-1.25-1" stroke="#000" stroke-width="2" stroke-linecap="round" stroke-linejoin="round"/>
      <path d="M260.027 411.063l.25 1.5" stroke="#000" stroke-width="2" stroke-linecap="round" stroke-linejoin="round"/>
      <path d="M142.736 519.979c-1.134 2.375-2.684 3.23-3.513 3.125-.771-.1-3.773-2.319-4.54-3.072-.772-.759 2.26-2.72 3.178-3.57.735-.678 5.296 2.635 4.875 3.517" fill="#000"/>
      <path fill="#000" d="M125.027 527.349l2.356 1.705-.493 4.106-4.992-3.586z"/>
      <path d="M440.524 45.058c-3.769-1.739-9.436 12.594-7.5 13.5 37.671 17.628 94.283 79.162 98.334 91 .397 1.162 16.397-5.906 15.333-8.333-14.134-32.23-74.83-81.709-106.167-96.167" fill="#FFF"/>
      <path d="M532.44 128.73c2.671.292 4.171 1.375 4.838 4.55-.25 4.7-2.524 5.501-5.334 5.575-2.041.054-4.332-1.458-4.578-3.958.14-1.584-1.302-5.084 5.073-6.167" fill="#000"/>
      <path d="M519.91 114.376c2.672.292 4.172 1.375 4.84 4.55-.252 4.7-2.525 5.501-5.335 5.575-2.042.054-4.333-1.458-4.579-3.958.14-1.584-1.3-5.084 5.074-6.167" fill="#000"/>
      <path d="M507.419 100.796c2.672.292 4.172 1.375 4.839 4.55-.251 4.7-2.524 5.501-5.334 5.575-2.042.054-4.333-1.458-4.58-3.958.14-1.584-1.3-5.084 5.075-6.167" fill="#000"/>
      <path d="M494.419 89.482c2.672.292 4.172 1.375 4.839 4.55-.251 4.7-2.524 5.5-5.334 5.575-2.042.054-4.333-1.458-4.58-3.958.14-1.584-1.3-5.084 5.075-6.167" fill="#000"/>
      <path d="M481.169 77c2.672.293 4.172 1.376 4.839 4.55-.251 4.7-2.524 5.502-5.334 5.576-2.042.053-4.333-1.459-4.58-3.959.14-1.584-1.3-5.084 5.075-6.166" fill="#000"/>
      <path fill="#FFF" d="M305.388 258.284h-2.875l.25-9.386 3.292-.335z"/>
      <path fill="#FFF" d="M289.777 260.21h-2.875l.25-9.386 3.292-.335z"/>
      <path d="M202.711 341.4c-2.964.037-5.224-2.077-5.188-4.858.031-2.513 2.597-5.1 5.156-5.198 2.497-.094 5.14 2.51 5.164 5.09.026 2.658-2.32 4.93-5.132 4.965" fill="#000"/>
      <path d="M238.372 361.766c.653-3.688 1.857-12.086 2.658-12.664 1.568-1.133 6.065 1.84 6.154 2.522.154 1.188-1.056 10.142-1.056 10.142s-4.351 1.029-7.756 0" fill="#FFF"/>
      <path d="M250.372 361.766c.653-3.688.239-4.76 1.158-5.121 1.61-.634 6.736-1.35 7.248.419.362 1.248-.65 4.702-.65 4.702s-4.351 1.029-7.756 0" fill="#FFF"/>
    </g>
  </g>
</svg>
