<?xml version="1.0" standalone="no"?>
<!DOCTYPE svg PUBLIC "-//W3C//DTD SVG 20010904//EN"
 "http://www.w3.org/TR/2001/REC-SVG-20010904/DTD/svg10.dtd">
<svg version="1.0" xmlns="http://www.w3.org/2000/svg"
 width="772.000000pt" height="772.000000pt" viewBox="0 0 772.000000 772.000000"
 preserveAspectRatio="xMidYMid meet">
<metadata>
Created by potrace 1.11, written by Peter Selinger 2001-2013
</metadata>
<g transform="translate(0.000000,772.000000) scale(0.100000,-0.100000)"
fill="#000000" stroke="none">
<path d="M3625 7704 c-483 -51 -630 -80 -945 -183 -297 -98 -553 -215 -805
-368 -282 -171 -487 -333 -736 -582 -232 -233 -336 -364 -604 -761 -139 -207
-327 -666 -414 -1015 -41 -166 -92 -475 -102 -625 -12 -168 -6 -540 11 -705
66 -631 281 -1234 623 -1745 157 -235 287 -392 501 -605 560 -558 1245 -916
2028 -1059 166 -31 398 -56 513 -56 l85 0 0 244 c0 236 1 244 22 272 34 44 50
53 91 54 53 0 105 -26 124 -63 19 -37 32 -187 32 -376 l1 -134 98 7 c1660 115
3072 1307 3467 2928 84 346 108 580 102 988 -5 327 -15 432 -67 690 -31 155
-110 450 -158 591 -52 150 -201 475 -269 581 -13 21 -37 64 -54 95 -48 88
-192 294 -279 396 -118 141 -382 409 -494 503 -140 116 -411 310 -567 405
-440 266 -974 441 -1539 504 -138 15 -580 28 -665 19z m541 -439 c263 -28 404
-55 628 -120 536 -156 860 -329 1313 -701 27 -23 11 -22 -54 2 -38 14 -212 74
-388 134 -176 59 -356 122 -399 140 -140 56 -394 189 -529 279 -73 48 -141 90
-151 94 -14 6 -28 0 -50 -21 -43 -41 -58 -43 -105 -20 l-42 21 -23 -22 c-28
-26 -38 -26 -61 -1 -22 24 -43 25 -74 4 -17 -12 -26 -13 -34 -5 -6 6 -18 11
-27 11 -8 0 -75 -54 -148 -119 -158 -142 -186 -161 -406 -275 -93 -49 -228
-123 -300 -166 -169 -100 -629 -330 -661 -330 -2 0 13 28 34 63 33 54 45 65
92 83 59 24 136 87 180 146 48 67 119 335 119 448 -1 159 -92 253 -166 171
-41 -46 -91 -61 -207 -61 -90 0 -191 -16 -282 -45 -47 -15 38 26 131 63 289
116 585 190 894 226 271 32 427 32 716 1z m-1189 -291 c6 -17 -7 -96 -29 -172
-11 -39 -11 -45 5 -53 23 -13 21 -36 -4 -50 -19 -10 -21 -17 -15 -59 5 -35 3
-50 -8 -59 -8 -7 -20 -29 -27 -49 -6 -20 -19 -43 -28 -50 -9 -7 -23 -27 -31
-45 -10 -21 -24 -33 -40 -35 -14 -2 -35 -13 -47 -24 -29 -27 -67 -21 -71 12
-4 41 10 53 43 38 25 -11 29 -10 47 12 19 23 19 25 2 37 -10 7 -30 13 -44 13
-14 0 -35 6 -46 14 -17 13 -17 16 -4 30 13 13 22 14 52 4 43 -13 81 -5 108 22
30 30 24 40 -19 40 -22 0 -43 5 -47 11 -10 17 49 71 97 88 50 19 60 38 25 47
-34 8 -33 30 4 78 35 47 27 64 -19 39 -30 -17 -33 -17 -45 0 -18 23 -28 22
-56 -8 -23 -25 -27 -50 -14 -117 5 -30 3 -38 -9 -38 -9 0 -17 10 -19 22 -2 13
-11 24 -21 26 -24 5 -51 -61 -44 -105 4 -24 2 -33 -8 -33 -36 0 -30 91 13 178
14 28 23 54 20 57 -3 3 -21 -2 -41 -11 -37 -18 -65 -66 -90 -154 -10 -34 -18
-45 -32 -45 -30 0 -23 54 13 114 27 43 29 50 14 53 -42 9 -59 -4 -90 -68 -18
-35 -32 -71 -32 -79 0 -17 -35 -21 -45 -5 -3 5 1 24 10 41 22 41 7 59 -31 38
-37 -19 -80 -80 -105 -151 -23 -61 -33 -67 -83 -48 -31 11 -33 27 -6 55 11 12
38 57 59 101 44 91 76 124 146 155 28 12 62 32 76 46 26 24 28 24 57 9 41 -21
41 -21 53 14 12 33 22 36 59 15 35 -20 53 -18 79 6 22 21 25 21 51 5 38 -22
55 -20 77 7 10 12 25 21 34 19 8 -1 31 4 50 12 44 19 48 19 56 0z m-592 -12
c-6 -5 -43 -30 -84 -57 -89 -59 -121 -105 -152 -222 -20 -77 -24 -84 -43 -78
-12 3 -38 9 -58 12 -34 5 -38 9 -38 35 0 37 -16 68 -36 68 -8 0 -13 4 -10 9 8
12 176 111 307 181 113 59 132 68 114 52z m2138 -39 c-3 -27 -12 -55 -19 -64
-8 -8 -14 -30 -14 -49 0 -18 -16 -67 -35 -110 -40 -89 -42 -105 -16 -120 31
-16 49 -2 66 50 9 27 23 54 32 62 9 7 22 28 30 47 l14 34 38 -37 c32 -32 43
-36 87 -36 36 0 59 -7 86 -25 20 -14 48 -25 62 -25 25 0 66 30 66 48 0 10 -56
35 -115 52 -103 29 -125 41 -145 80 -11 21 -29 41 -40 45 -16 5 -20 15 -20 51
0 24 2 44 4 44 3 0 70 -43 149 -95 79 -52 186 -113 238 -136 179 -79 405 -166
576 -223 95 -32 175 -62 179 -67 6 -11 7 -11 -164 27 -112 25 -124 26 -139 12
-14 -15 -12 -18 25 -37 46 -23 61 -41 37 -41 -28 0 -150 39 -323 102 -89 33
-169 58 -177 54 -32 -12 -12 -38 75 -98 49 -35 90 -66 90 -70 0 -12 -100 30
-152 63 -49 31 -138 121 -138 139 0 17 -29 11 -40 -9 -7 -14 -7 -28 0 -47 17
-43 4 -39 -22 8 -18 33 -29 43 -48 43 -21 0 -26 -6 -30 -35 l-5 -34 -12 27
c-9 19 -20 27 -39 27 -26 0 -26 0 -20 -57 l7 -58 -28 50 c-19 34 -34 50 -48
50 -17 0 -21 -8 -25 -65 l-5 -65 -20 40 c-27 54 -49 52 -55 -5 l-5 -45 -23 42
c-12 23 -26 44 -31 47 -5 4 -22 -12 -38 -34 -15 -22 -31 -40 -34 -40 -4 0 -4
20 -2 43 8 68 -17 70 -78 5 l-49 -53 17 48 c17 47 17 49 -2 63 -27 20 -36 14
-70 -44 -16 -29 -34 -52 -41 -52 -19 0 -24 26 -12 58 26 69 -19 82 -77 22 -48
-50 -68 -52 -63 -7 3 27 0 32 -21 35 -17 3 -36 -8 -68 -40 l-45 -43 6 38 c5
27 3 39 -7 43 -21 8 -70 -14 -92 -42 -20 -26 -21 -26 -52 -8 -31 18 -32 18
-65 -6 -21 -15 -44 -23 -64 -22 -21 2 -55 -10 -97 -33 -68 -37 -127 -59 -127
-46 0 9 164 109 247 150 34 17 97 45 140 62 116 46 190 95 361 242 50 42 97
77 105 77 24 0 49 -36 45 -67 -2 -23 -13 -33 -60 -56 -69 -33 -74 -53 -17 -64
l42 -8 -58 -39 -58 -38 26 -25 c23 -23 28 -24 61 -13 20 6 42 19 48 29 15 21
50 41 72 41 13 0 16 -12 16 -55 0 -51 2 -55 24 -55 18 0 27 9 40 40 9 22 18
57 22 77 6 37 5 39 -40 60 -44 22 -60 43 -33 43 7 0 21 6 32 13 17 13 17 15
-6 46 -27 37 -20 59 25 74 21 7 32 5 46 -8 18 -17 21 -17 45 -1 14 10 29 24
32 32 11 30 20 12 16 -33z m-2660 -304 c11 -7 41 -12 66 -13 42 -1 46 -3 55
-35 7 -24 19 -37 42 -47 30 -13 32 -17 27 -49 -3 -20 1 -55 11 -86 10 -28 15
-53 13 -55 -2 -2 -20 8 -40 21 -52 36 -85 46 -147 47 -30 0 -58 6 -62 12 -4 6
-5 28 -1 48 3 23 -1 57 -11 89 -25 74 -8 97 47 68z m566 -68 c11 -11 23 -37
27 -58 8 -48 20 -63 49 -63 20 0 24 7 30 56 7 55 28 81 45 55 10 -17 22 -165
14 -185 -9 -24 -32 -19 -59 12 l-23 27 -31 -29 -30 -29 -18 31 c-21 37 -33 40
-58 12 -51 -57 -74 20 -35 122 27 71 53 85 89 49z m-719 -85 c0 -35 -3 -78 -6
-95 -6 -27 -11 -31 -38 -31 -40 0 -56 -15 -56 -52 0 -60 -50 -115 -64 -70 -8
27 -8 92 0 150 7 50 10 56 78 112 39 32 74 56 78 54 4 -3 8 -34 8 -68z m536
-63 c-10 -11 -76 31 -76 48 0 32 15 30 48 -6 19 -20 31 -39 28 -42z m2766 -42
c164 -99 313 -161 388 -161 37 0 61 -7 90 -26 30 -20 46 -24 69 -19 26 5 41 0
89 -32 32 -22 85 -47 118 -57 32 -9 68 -21 79 -26 48 -21 -34 -9 -135 20 -58
16 -135 34 -170 39 -92 15 -219 60 -368 130 -70 34 -132 61 -136 61 -5 0 3
-15 16 -32 35 -46 61 -99 53 -106 -9 -9 -88 78 -131 143 -32 47 -58 124 -38
113 5 -3 39 -24 76 -47z m-3091 -21 c71 -36 90 -66 65 -104 -24 -37 -20 -58
15 -89 l32 -28 -24 -26 c-33 -35 -116 -73 -161 -73 -26 0 -45 7 -60 23 -19 18
-35 22 -83 23 -61 1 -110 18 -100 34 3 4 32 11 66 15 48 6 64 4 78 -9 27 -24
47 -19 75 17 35 46 34 72 -4 86 -34 11 -52 7 -95 -24 -33 -24 -87 -45 -116
-45 -27 0 -24 36 6 65 13 14 35 25 49 25 33 0 58 38 54 81 -3 29 1 33 32 45
58 21 106 17 171 -16z m280 -10 c4 -14 7 -44 8 -68 1 -35 -3 -44 -21 -51 -18
-6 -88 -4 -88 3 0 0 11 23 25 50 14 27 25 57 25 66 0 39 40 39 51 0z m3321 1
c64 -38 204 -46 298 -16 11 4 33 -7 61 -31 24 -20 55 -41 69 -46 38 -14 175
-45 275 -61 99 -17 145 -31 145 -47 0 -13 7 -14 -150 12 -83 14 -169 21 -222
20 -80 -2 -88 -1 -102 20 -14 20 -23 22 -75 20 -55 -3 -59 -2 -65 22 -7 28
-17 32 -113 40 -87 8 -163 43 -163 77 0 13 4 12 42 -10z m-4044 -40 c16 -53
15 -68 -8 -91 -27 -27 -35 -26 -66 15 l-27 36 38 39 c22 22 42 40 45 40 4 0
12 -17 18 -39z m842 -5 c7 -42 27 -44 38 -4 4 18 16 34 25 36 14 3 17 -5 17
-41 0 -30 5 -47 14 -50 16 -6 26 4 50 51 17 33 43 42 52 18 3 -8 -2 -29 -11
-46 -18 -34 -10 -58 9 -26 22 39 56 66 81 66 14 0 25 -6 25 -12 0 -7 -36 -47
-80 -88 -44 -41 -80 -83 -80 -92 0 -33 -12 -48 -40 -48 -43 0 -60 10 -60 34 0
13 -15 43 -34 67 -35 45 -61 125 -50 154 10 25 38 13 44 -19z m-925 -127 c33
-5 66 -9 73 -9 6 0 12 -4 12 -9 0 -4 -39 -11 -87 -15 -49 -3 -101 -9 -117 -13
l-29 -6 29 37 c19 23 34 34 44 30 8 -3 42 -10 75 -15z m1373 -64 c2 -21 -1
-42 -7 -48 -18 -18 -12 -36 14 -43 21 -5 32 1 63 37 29 31 43 41 56 36 16 -7
18 -17 14 -90 -3 -63 -11 -96 -33 -142 -21 -45 -29 -55 -32 -40 -6 28 -31 45
-66 45 l-29 0 7 50 c8 60 3 62 -78 24 -64 -29 -86 -24 -107 25 -11 27 -9 35
13 74 27 46 85 92 133 107 42 12 49 8 52 -35z m-1308 -14 c-13 -9 -44 -33 -69
-54 -57 -50 -88 -62 -118 -46 -25 14 -41 55 -27 69 5 5 43 16 84 24 41 9 89
20 105 25 40 11 54 1 25 -18z m35 -18 c-4 -10 -14 -40 -21 -68 -17 -62 -42
-96 -77 -108 -38 -12 -57 -2 -57 30 0 22 16 43 71 95 71 68 98 84 84 51z m665
-28 c0 -32 6 -51 21 -66 l20 -20 -35 -40 c-29 -31 -36 -47 -36 -80 0 -52 -13
-74 -50 -88 -51 -17 -76 -1 -85 56 -9 64 -29 108 -60 137 -27 25 -26 52 2 42
20 -8 152 54 177 83 31 34 46 27 46 -24z m-606 -37 c5 -43 4 -48 -14 -48 -16
0 -20 7 -20 33 0 43 11 80 20 70 4 -4 10 -29 14 -55z m92 31 c24 -11 46 -29
49 -40 10 -32 49 -45 75 -26 22 15 25 14 72 -25 72 -61 92 -98 86 -160 -6 -59
-24 -78 -75 -78 -28 0 -34 4 -38 28 -10 43 -19 55 -54 67 -37 12 -60 46 -61
87 0 19 -12 36 -40 60 -36 28 -80 84 -80 102 0 11 23 6 66 -15z m-436 -34 l13
-45 -74 -78 c-73 -78 -74 -78 -102 -65 -17 9 -25 18 -21 26 20 33 157 207 164
207 4 0 13 -20 20 -45z m1140 -15 c0 -22 -37 -119 -52 -138 -9 -10 -15 -9 -29
4 -23 20 -24 40 -5 47 8 3 20 25 27 49 18 62 59 89 59 38z m-766 -125 c27 -27
37 -46 42 -83 5 -43 11 -52 45 -73 47 -29 53 -45 44 -115 -9 -78 -13 -79 -99
-10 -20 16 -51 32 -69 35 -26 6 -32 11 -29 32 14 139 14 158 -1 188 -33 66 11
82 67 26z m971 13 c-23 -73 1 -97 53 -53 16 14 35 25 41 25 22 0 23 -30 1 -57
l-22 -28 45 -13 c59 -17 68 -39 22 -58 -19 -7 -52 -14 -74 -14 -39 0 -48 -5
-74 -43 -11 -16 -14 -16 -46 11 -30 25 -33 32 -27 63 4 18 10 59 14 89 9 64
29 100 56 100 14 0 17 -5 11 -22z m-1279 -45 c30 -32 39 -36 83 -37 72 -2 80
-14 71 -108 -5 -42 -12 -82 -15 -89 -5 -7 -23 -9 -47 -6 -28 4 -42 1 -51 -10
-52 -66 -87 -88 -102 -63 -9 15 22 66 55 90 31 22 39 57 18 78 -17 17 -48 15
-84 -7 -28 -17 -33 -26 -39 -80 -4 -34 -10 -63 -14 -66 -5 -2 -11 38 -14 90
-5 80 -4 101 12 137 18 41 72 108 87 108 3 0 21 -16 40 -37z m5423 -41 c82
-124 142 -224 138 -229 -3 -2 -25 -7 -49 -10 -24 -3 -55 -12 -71 -20 -25 -12
-31 -11 -71 12 -55 32 -87 32 -126 -1 -28 -24 -34 -25 -55 -14 -34 18 -99 7
-146 -26 -50 -34 -50 -44 0 -31 64 17 144 -6 192 -55 l39 -41 26 27 c31 30 92
49 128 40 14 -3 41 -24 61 -45 19 -21 39 -39 44 -39 5 0 28 9 52 20 24 11 50
20 57 20 17 0 100 -175 167 -352 30 -79 53 -144 51 -145 -6 -6 -231 -71 -234
-68 -3 2 -7 44 -10 94 -4 86 -4 89 17 93 21 3 21 4 -9 46 -18 24 -40 42 -51
42 -11 0 -32 -18 -50 -42 l-30 -43 23 -5 c20 -5 23 -13 26 -56 l3 -51 -62 -7
c-34 -3 -93 -6 -130 -6 -66 0 -69 -1 -69 -24 0 -21 6 -24 54 -30 30 -4 70 -4
90 0 20 3 57 3 82 -1 61 -9 57 -34 -11 -55 -28 -8 -55 -18 -61 -22 -6 -4 -48
9 -93 30 l-81 37 2 45 3 45 123 2 c68 1 126 4 129 6 3 3 2 15 -2 26 -6 20 -14
21 -131 21 -124 0 -125 0 -122 22 2 16 12 24 31 28 l28 5 -31 38 c-18 20 -40
37 -52 37 -11 0 -36 -17 -57 -37 l-36 -38 28 -3 c19 -2 27 -9 27 -23 0 -10 -4
-19 -8 -19 -20 0 -202 43 -360 85 -344 91 -573 110 -1162 96 -438 -11 -1520
-65 -1630 -81 -36 -5 -73 -10 -84 -10 -30 0 -1 27 37 35 42 9 92 47 123 95 21
31 26 52 28 121 3 80 5 84 37 111 38 32 118 61 142 53 30 -12 27 -35 -9 -73
-53 -56 -58 -102 -11 -102 27 0 58 20 113 72 54 52 106 60 171 28 l45 -22 45
22 c47 23 143 31 192 16 31 -10 19 -19 -60 -45 -74 -24 -144 -77 -151 -115 -7
-37 22 -38 72 -5 61 41 111 52 221 47 85 -3 104 -7 158 -36 34 -18 66 -30 71
-27 5 3 11 18 15 34 12 54 81 96 135 80 55 -16 76 -11 92 24 21 43 77 71 126
64 35 -6 72 -32 72 -51 0 -6 4 -17 9 -25 7 -11 19 -7 59 23 128 94 215 86 326
-27 47 -49 56 -54 86 -49 29 4 38 0 61 -27 26 -31 27 -32 40 -13 8 10 25 25
38 32 21 11 30 10 58 -5 33 -18 34 -18 56 3 27 25 74 29 103 7 30 -22 41 -18
54 20 22 66 89 81 178 40 66 -31 66 -31 106 0 36 27 71 31 111 13 24 -11 29
-9 45 12 18 24 18 25 -3 48 -32 35 -91 62 -148 69 -42 5 -55 2 -81 -17 -29
-22 -32 -22 -58 -6 -16 9 -50 16 -79 16 -44 0 -56 -5 -90 -35 -21 -19 -41 -35
-44 -35 -2 0 -31 16 -63 35 -67 41 -101 43 -157 13 -28 -16 -41 -19 -44 -11
-12 36 -53 79 -83 90 -45 15 -175 16 -199 1 -15 -9 -25 -6 -55 17 -44 34 -104
42 -169 22 -36 -12 -55 -13 -81 -5 -44 14 -116 -5 -158 -41 -25 -20 -42 -25
-92 -26 -40 -1 -75 -9 -103 -23 -33 -17 -47 -20 -68 -12 -33 13 -110 13 -153
0 -29 -8 -39 -5 -72 16 -56 37 -152 49 -266 32 -90 -13 -92 -13 -125 9 -68 47
-180 53 -259 14 -32 -15 -41 -16 -105 -3 -54 11 -77 12 -100 3 -23 -8 -32 -8
-43 2 -11 12 -1 24 59 75 94 80 158 105 264 105 71 0 89 -4 156 -36 43 -19 80
-40 84 -46 14 -23 45 -10 70 29 53 84 134 79 264 -15 44 -32 56 -31 78 5 32
56 140 59 165 5 15 -34 38 -39 68 -15 14 11 48 31 75 44 67 32 103 26 207 -34
74 -43 84 -47 96 -32 6 9 12 24 12 33 0 24 38 49 75 49 16 0 50 -9 74 -20 57
-26 67 -25 109 11 30 26 40 30 70 24 20 -4 57 -18 84 -31 62 -32 73 -31 119
11 47 42 75 44 132 11 40 -24 44 -24 74 -9 45 21 76 10 110 -37 41 -57 68 -62
92 -16 33 60 138 78 218 37 55 -27 74 -27 104 5 42 46 65 48 130 14 49 -25 62
-28 86 -19 15 5 43 7 63 4 31 -5 39 -2 65 26 30 32 97 68 125 69 8 0 26 -17
39 -38z m-3475 2 c24 -9 19 -30 -10 -53 l-27 -21 47 0 c25 0 46 -5 46 -10 0
-6 -9 -27 -20 -47 -11 -21 -20 -44 -20 -51 0 -11 -11 -12 -52 -6 -69 11 -161
6 -209 -10 -44 -15 -59 -6 -59 35 0 27 52 84 114 124 49 33 152 53 190 39z
m-2178 -117 c3 -10 0 -31 -6 -47 -11 -28 -10 -31 39 -80 64 -64 78 -88 56 -97
-9 -3 -28 3 -43 14 -24 18 -35 34 -62 93 -17 36 -96 15 -107 -28 -8 -32 26
-62 71 -62 21 0 44 -10 66 -30 l35 -29 -53 -1 c-34 0 -65 7 -89 20 -60 32 -83
24 -83 -30 0 -28 13 -31 64 -16 34 10 56 12 81 5 58 -16 42 -51 -24 -56 -45
-3 -64 -22 -55 -57 14 -55 67 -46 107 18 19 30 40 49 67 60 67 27 91 0 65 -74
-21 -61 -19 -87 10 -106 30 -19 58 -12 75 22 15 26 14 30 -24 116 -9 22 -12
39 -6 43 5 3 16 -11 25 -32 9 -21 29 -54 44 -74 46 -57 64 -144 36 -172 -12
-12 -22 -13 -52 -5 -34 9 -39 8 -60 -16 -12 -14 -27 -26 -33 -26 -23 0 -62 35
-81 71 -24 48 -24 58 2 85 11 12 23 42 26 66 l6 43 -30 -40 c-61 -83 -145
-134 -220 -135 -46 0 -63 17 -63 64 0 20 -8 29 -32 39 -55 23 -64 41 -49 95
18 67 47 110 92 133 41 21 42 26 7 65 -19 21 -19 22 36 113 31 50 63 103 72
117 l17 24 33 -37 c18 -21 36 -46 40 -56z m1192 37 c14 -22 22 -51 22 -78 0
-23 7 -69 16 -101 23 -89 7 -155 -37 -155 -22 0 -23 6 -9 47 19 54 -26 118
-107 155 -23 10 -45 23 -49 29 -12 20 19 70 56 89 20 10 42 26 49 34 20 24 34
19 59 -20z m-243 -62 c26 -14 -41 -55 -94 -57 -28 -2 -49 -8 -56 -19 -14 -18
-31 -21 -40 -6 -10 15 23 68 53 85 28 16 107 14 137 -3z m413 -29 c-3 -30 -25
-42 -34 -19 -9 22 2 46 21 46 12 0 15 -8 13 -27z m442 -19 c0 -3 -12 -39 -26
-80 -15 -40 -24 -80 -21 -87 3 -7 32 -24 65 -36 64 -23 81 -45 63 -80 -15 -27
-64 -35 -117 -21 -52 15 -74 3 -74 -39 0 -23 6 -28 45 -40 57 -17 105 -60 105
-94 0 -14 -4 -28 -9 -31 -5 -3 -35 14 -67 39 -31 25 -61 45 -66 45 -8 0 -35
-28 -62 -65 -22 -30 -31 -10 -29 60 l3 64 -45 20 c-34 15 -49 29 -60 55 -18
43 -18 41 1 60 9 9 32 16 55 16 45 0 51 -17 19 -57 -26 -33 -25 -37 5 -51 29
-14 24 -22 75 125 39 111 93 203 121 203 10 0 19 -3 19 -6z m419 -66 c26 -14
59 -42 75 -66 l30 -42 -21 -28 c-20 -27 -20 -28 -2 -51 11 -13 19 -29 19 -35
0 -16 -89 -101 -125 -119 -48 -24 -90 -29 -134 -17 -71 19 -136 93 -101 115 5
3 14 22 19 42 13 45 -7 94 -51 126 -36 27 -36 43 2 62 94 49 209 54 289 13z
m-1778 2 c50 -14 99 -59 99 -93 0 -13 -6 -37 -14 -53 -12 -23 -13 -37 -3 -71
6 -23 8 -45 4 -49 -12 -13 -103 -24 -143 -18 -32 5 -42 11 -51 34 -6 17 -26
37 -49 49 l-39 20 38 -6 c63 -10 99 43 63 92 -13 18 -18 18 -79 6 -82 -16
-101 -7 -52 26 30 20 43 23 76 18 32 -6 40 -4 45 12 11 29 37 54 50 49 7 -3
32 -10 55 -16z m566 -26 c71 -34 85 -63 53 -106 -20 -27 -22 -36 -13 -75 10
-41 9 -44 -14 -49 -52 -13 -149 1 -190 28 -25 17 -52 26 -75 25 -43 -1 -102
38 -73 49 10 4 53 2 97 -5 72 -11 82 -11 99 5 23 20 25 62 4 70 -8 3 -43 -1
-78 -10 -151 -38 -195 -4 -70 55 35 16 46 18 63 7 17 -11 23 -9 47 15 34 34
67 32 150 -9z m-287 -240 c30 -47 69 -63 90 -36 15 18 17 16 28 -44 26 -135
14 -165 -69 -172 -66 -5 -85 10 -69 52 14 38 12 124 -5 171 -27 73 -12 90 25
29z m703 10 c68 -34 107 -88 107 -146 0 -18 9 -52 20 -75 10 -24 18 -43 17
-44 -10 -4 -453 -76 -455 -75 -1 2 7 13 18 26 11 13 20 27 20 32 0 4 25 20 55
35 46 23 58 34 71 70 16 42 16 133 -1 175 -4 11 -1 18 12 21 29 9 101 -1 136
-19z m-248 -24 c4 -6 -1 -22 -9 -35 -10 -15 -14 -35 -10 -49 9 -37 -19 -91
-55 -106 -25 -10 -34 -22 -43 -56 -7 -24 -17 -45 -23 -48 -7 -2 -29 6 -51 18
-42 23 -42 23 -32 131 2 17 -1 47 -5 67 l-8 38 43 -6 c35 -5 54 -1 103 24 67
33 81 37 90 22z m-575 -91 c0 -59 -11 -84 -46 -102 -14 -7 -35 -31 -47 -52
-12 -21 -29 -43 -38 -48 -21 -13 -103 0 -130 22 l-21 17 26 31 c16 19 31 54
38 90 6 32 12 60 14 62 2 2 16 -2 32 -8 25 -11 37 -9 88 13 83 34 84 34 84
-25z m-924 -9 c19 0 20 -6 16 -96 -3 -64 0 -103 8 -119 13 -25 69 -59 115 -69
17 -4 45 -19 63 -32 18 -14 48 -28 68 -31 50 -8 25 -20 -60 -27 -64 -6 -85 -3
-211 33 -77 23 -150 41 -162 41 -13 0 -23 4 -23 8 0 13 32 104 80 225 l42 109
22 -21 c12 -12 31 -21 42 -21z m2345 -50 c66 -50 85 -79 102 -162 l14 -66 -41
-5 c-27 -4 -59 1 -96 14 -108 39 -181 61 -186 56 -3 -3 0 -15 6 -27 6 -12 9
-24 6 -27 -12 -12 -57 30 -97 88 -36 53 -40 64 -30 85 14 32 23 30 41 -9 17
-37 91 -79 130 -75 23 3 26 8 32 66 4 34 10 72 13 82 10 31 48 24 106 -20z
m-2041 -49 c0 -45 9 -59 56 -92 49 -33 55 -58 24 -89 -34 -34 -86 -27 -132 20
-33 32 -44 38 -68 34 -15 -3 -37 -1 -48 5 -30 16 -65 77 -57 101 7 23 19 25
63 9 27 -9 39 -7 84 14 70 33 78 33 78 -2z m4510 -15 c0 -57 12 -86 35 -86 25
0 35 -30 35 -105 0 -44 -10 -55 -51 -55 -14 0 -19 -7 -19 -27 0 -48 10 -54 73
-43 32 5 62 12 67 15 7 4 8 62 4 161 l-7 155 44 -3 c44 -3 44 -3 47 -45 3 -34
7 -42 25 -45 20 -3 22 -8 22 -78 l0 -75 -43 -3 c-34 -3 -42 -7 -38 -18 3 -9 6
-24 6 -35 0 -18 6 -20 58 -17 l57 3 6 105 c4 58 7 127 8 153 1 48 1 48 34 45
31 -3 32 -5 32 -46 0 -27 4 -42 13 -42 8 0 12 -22 12 -75 0 -68 -2 -75 -20
-75 -16 0 -20 -7 -20 -35 0 -32 3 -35 28 -35 15 0 32 4 38 8 7 4 14 62 18 142
4 74 9 137 11 139 2 2 16 0 31 -3 23 -6 26 -11 21 -39 -3 -21 1 -35 11 -43 23
-16 7 -130 -19 -137 -13 -3 -19 -14 -19 -32 0 -24 3 -26 38 -23 31 3 37 7 39
28 1 14 5 69 8 123 7 94 8 97 31 97 20 0 24 -5 24 -29 0 -17 5 -33 10 -36 6
-3 10 -33 10 -67 0 -51 -3 -61 -20 -65 -11 -3 -20 -9 -20 -13 0 -5 -3 -15 -6
-24 -5 -13 1 -16 33 -16 l40 0 6 116 c3 64 8 118 10 121 3 3 15 2 26 -2 15 -4
21 -15 21 -36 0 -16 5 -29 10 -29 11 0 14 -91 4 -127 -3 -11 -14 -23 -25 -26
-31 -8 -22 -24 18 -30 20 -4 38 -5 40 -3 2 2 7 55 11 117 6 92 10 114 22 114
11 0 14 -9 12 -32 -1 -18 2 -33 8 -33 6 0 10 -30 10 -70 0 -56 -3 -70 -15 -70
-8 0 -15 -9 -15 -21 0 -16 5 -20 28 -17 27 3 27 3 37 112 7 79 14 111 24 114
12 4 13 -15 8 -118 -3 -67 -7 -124 -9 -125 -2 -1 -34 1 -73 6 -95 11 -487 11
-665 -1 -178 -11 -335 -41 -595 -114 -242 -69 -440 -133 -680 -221 -99 -37
-218 -79 -265 -95 -154 -50 -1059 -413 -1545 -618 -104 -44 -260 -109 -345
-145 -201 -84 -893 -385 -1082 -471 -128 -58 -168 -73 -168 -63 0 1 -18 97
-40 212 -22 115 -40 215 -40 222 0 7 27 22 61 34 90 33 94 44 81 191 -6 67
-16 126 -21 131 -6 6 -27 4 -57 -7 -97 -33 -94 -37 -94 128 l0 144 30 11 30
10 0 -126 0 -125 33 6 c17 4 48 9 67 12 l36 6 12 -114 c25 -237 26 -253 8
-270 -9 -9 -41 -22 -71 -29 -75 -17 -80 -25 -66 -102 15 -77 52 -209 61 -220
8 -10 318 107 337 126 8 9 9 62 3 207 -5 107 -10 323 -12 480 l-3 284 180 53
c397 116 879 253 882 249 1 -1 7 -52 14 -114 10 -94 15 -112 28 -108 51 14
123 28 125 25 9 -9 27 -322 19 -329 -4 -3 -37 -15 -72 -25 -34 -10 -65 -25
-68 -32 -3 -8 -2 -60 2 -118 l7 -104 66 24 c37 13 105 40 152 59 l85 34 -4
401 c-3 334 -1 401 10 404 25 7 594 149 616 154 23 5 23 7 38 -140 5 -45 10
-57 21 -53 7 3 36 8 63 12 l49 6 7 -114 c4 -63 6 -123 3 -134 -2 -13 -21 -25
-58 -38 -30 -11 -58 -25 -62 -30 -4 -6 -8 -51 -8 -99 0 -66 3 -89 14 -93 15
-6 159 40 240 76 l48 22 -8 306 c-8 332 -8 352 4 364 11 11 308 52 326 45 12
-5 16 -22 16 -69 0 -85 5 -91 76 -87 l59 4 7 -45 c3 -25 7 -66 7 -91 l1 -46
-62 -24 -63 -25 -3 -56 c-2 -31 1 -71 6 -90 8 -32 10 -33 61 -32 35 1 70 11
109 30 l57 29 0 285 0 285 108 14 c126 17 122 20 132 -76 l7 -65 46 4 c42 3
47 1 53 -22 4 -14 7 -50 8 -81 l1 -56 -52 -14 -53 -15 3 -74 c2 -41 7 -78 11
-83 7 -7 181 44 210 62 11 7 12 46 3 237 -6 126 -7 233 -3 237 4 4 41 7 82 5
l74 -3 3 -61 3 -61 37 1 37 1 7 -74 c9 -85 8 -87 -60 -97 l-44 -7 7 -56 c11
-97 3 -93 110 -58 l95 31 2 201 3 200 38 3 37 3 0 -60 0 -60 34 6 c38 6 46 -8
46 -89 0 -42 -2 -47 -30 -57 -28 -9 -30 -13 -30 -60 0 -29 5 -51 11 -51 5 0
42 5 81 12 l70 11 -7 179 -8 178 42 0 c37 0 41 -3 41 -24z m-3845 -62 c9 -14
31 -32 48 -39 44 -18 47 -23 35 -51 -16 -35 -107 -60 -157 -43 -48 17 -55 40
-22 72 16 14 31 40 34 57 8 38 38 40 62 4z m1780 -9 c-36 -30 -77 -42 -173
-51 l-74 -7 4 29 c3 28 5 29 88 40 47 6 108 12 135 12 l50 1 -30 -24z m-1528
-27 c18 -13 33 -26 33 -29 0 -8 -52 -19 -85 -19 -18 0 -24 7 -27 30 -3 17 -2
32 0 35 12 12 48 3 79 -17z m-662 -8 c7 -21 69 -43 158 -55 26 -3 47 -10 47
-16 0 -5 -6 -9 -12 -9 -7 0 -76 -9 -153 -20 -77 -11 -143 -20 -147 -20 -4 0 8
21 28 48 20 26 41 57 47 70 13 27 24 28 32 2z m1464 -84 c21 -22 31 -39 25
-44 -10 -9 -403 -112 -427 -112 -10 0 -17 21 -24 70 -9 67 -8 71 11 76 78 19
354 59 366 53 8 -4 31 -23 49 -43z m4448 -167 c37 -140 77 -372 93 -528 21
-215 5 -749 -26 -852 -4 -14 -30 -11 -230 22 -125 21 -228 39 -230 41 -2 2 1
116 6 253 6 159 6 363 0 560 -6 171 -11 359 -13 419 l-2 109 45 15 c78 27 305
90 315 88 6 -2 25 -58 42 -127z m-5048 61 c19 -87 16 -98 -26 -109 -326 -85
-506 -131 -509 -129 -1 2 -6 37 -9 78 -9 94 3 130 42 130 16 1 118 18 228 39
110 22 214 40 232 40 30 1 32 -1 42 -49z m-1435 -39 c103 -38 189 -70 191 -73
2 -2 -2 -41 -10 -87 -56 -317 -81 -629 -65 -814 18 -223 76 -587 144 -910 10
-50 11 -70 2 -73 -60 -22 -370 -123 -373 -121 -12 12 -82 229 -113 352 -75
294 -104 532 -104 855 0 231 11 368 45 570 24 143 78 370 88 370 4 0 92 -31
195 -69z m5996 -33 c0 -6 -10 -8 -22 -5 -13 3 -51 9 -85 13 -60 6 -63 8 -63
34 l0 27 85 -30 c47 -16 85 -34 85 -39z m-5312 -41 c6 -7 12 -50 14 -97 l3
-85 -223 -63 c-123 -35 -226 -61 -229 -58 -9 9 29 226 41 234 17 11 318 80
352 81 17 1 36 -5 42 -12z m5153 -30 c81 -14 152 -27 158 -31 6 -4 11 -30 11
-58 l0 -50 -42 5 c-235 32 -444 33 -702 2 -290 -34 -665 -158 -1195 -394 -288
-129 -994 -506 -1751 -936 -195 -111 -391 -221 -435 -245 -44 -24 -233 -130
-420 -235 -187 -106 -473 -265 -635 -355 -162 -89 -363 -202 -446 -251 -83
-49 -153 -89 -156 -89 -4 0 -20 22 -36 49 l-31 49 67 33 c36 19 71 42 76 51
10 17 -6 264 -18 276 -3 3 -60 -19 -127 -49 -67 -30 -125 -55 -129 -57 -9 -3
-95 186 -88 194 16 16 241 92 256 87 9 -4 30 -17 45 -30 16 -13 37 -23 48 -23
10 0 101 42 202 93 100 51 256 129 347 172 180 86 206 104 215 145 3 15 14 35
24 44 10 9 89 48 177 87 87 38 252 115 366 171 l206 101 28 -22 c32 -25 44
-23 134 29 36 21 138 75 228 120 153 77 162 84 162 111 0 35 18 48 135 95 48
19 132 58 186 85 106 53 123 56 153 34 29 -22 46 -19 148 25 123 54 168 84
168 113 0 38 36 61 185 122 77 31 145 59 152 62 6 2 14 -5 18 -16 10 -31 34
-26 161 34 85 40 115 59 111 69 -8 21 7 30 111 66 70 25 96 30 105 21 18 -18
44 -13 123 23 63 29 74 38 71 57 -2 20 8 26 87 51 90 28 106 28 106 2 0 -19 8
-18 90 12 50 19 74 34 80 49 13 34 190 76 190 44 0 -7 10 -9 28 -5 83 21 102
28 102 40 0 20 137 43 162 27 25 -15 84 -14 101 3 23 23 50 25 302 21 192 -4
269 -9 386 -28z m-273 -164 c-2 -22 -9 -29 -30 -31 -25 -3 -28 0 -28 27 0 28
3 31 31 31 27 0 30 -3 27 -27z m112 -3 c0 -25 -4 -30 -25 -30 -14 0 -28 7 -31
15 -10 25 4 45 31 45 21 0 25 -5 25 -30z m-240 -14 c0 -30 -3 -34 -32 -39 -18
-2 -34 -4 -34 -3 -1 0 -5 15 -8 33 -8 33 0 39 52 42 19 1 22 -4 22 -33z m360
25 c0 -27 -15 -41 -41 -41 -24 0 -29 4 -29 25 0 22 4 25 35 25 19 0 35 -4 35
-9z m108 -23 c-3 -25 -34 -36 -50 -20 -17 17 -1 42 27 42 22 0 26 -4 23 -22z
m-640 -30 c-3 -39 -6 -43 -30 -46 -26 -3 -28 -1 -28 37 0 39 8 49 43 50 15 1
18 -6 15 -41z m-158 -35 c0 -35 -4 -39 -39 -54 -22 -10 -42 -14 -45 -11 -3 3
-6 22 -6 43 0 32 4 39 28 47 52 20 62 15 62 -25z m-230 -73 c0 -22 1 -43 3
-47 1 -4 -6 -9 -15 -11 -14 -3 -18 3 -18 29 0 31 -1 32 -39 26 -37 -5 -39 -4
-28 14 12 20 27 26 70 28 25 1 27 -2 27 -39z m880 -39 c34 -7 34 -7 -32 -24
-72 -18 -338 -25 -338 -8 0 5 21 18 48 29 42 19 60 20 167 15 66 -3 136 -8
155 -12z m-1096 -17 c3 -9 6 -31 6 -50 0 -27 -4 -34 -19 -34 -14 0 -21 8 -23
28 -2 15 -7 26 -13 25 -5 -1 -28 -4 -50 -8 l-40 -8 29 32 c23 24 38 31 67 31
24 0 39 -5 43 -16z m1356 -151 c0 -241 -12 -623 -20 -623 -4 0 -39 41 -79 90
-101 127 -111 123 -111 -47 l0 -105 -72 67 c-94 86 -208 161 -278 183 -87 27
-329 23 -439 -6 -111 -30 -241 -96 -241 -123 0 -5 21 -14 46 -20 28 -7 60 -26
85 -50 22 -21 53 -46 69 -56 l29 -16 -24 -48 c-26 -50 -67 -89 -95 -89 -10 0
-30 21 -47 49 -40 64 -119 105 -204 105 l-59 1 0 66 c0 51 4 70 18 82 13 12
21 14 29 6 13 -13 51 5 103 49 29 25 33 32 22 45 -10 12 -10 16 1 20 8 3 20 2
27 -3 20 -12 99 41 97 65 -2 15 4 20 28 20 40 0 96 40 88 62 -5 13 -2 15 17
10 31 -8 111 38 103 59 -3 9 8 28 31 49 l36 33 192 -8 c105 -5 201 -4 214 0
12 5 38 23 58 40 31 28 36 38 36 75 0 55 16 71 82 79 29 4 70 12 92 17 37 10
38 12 33 45 l-6 34 70 0 69 0 0 -157z m-1041 78 c9 -27 8 -36 -1 -43 -9 -5
-19 5 -31 33 -16 34 -16 43 -6 50 17 10 23 3 38 -40z m221 11 c0 -20 -2 -21
-175 -120 -124 -71 -1016 -535 -1062 -553 -26 -10 -97 16 -88 31 4 6 19 17 35
25 23 12 34 13 48 4 30 -19 78 9 75 43 -2 30 33 50 47 28 12 -19 100 34 100
59 0 22 23 34 37 20 15 -15 84 21 81 40 -2 11 6 16 27 17 38 1 94 30 102 52 9
23 25 33 45 26 22 -7 81 24 72 38 -9 15 17 28 43 21 28 -6 73 21 73 43 0 13 7
15 30 10 44 -8 81 11 74 40 -7 28 25 41 56 22 17 -11 26 -10 58 7 24 13 37 27
37 40 0 17 7 20 42 21 43 0 73 17 73 39 0 17 32 29 40 15 4 -7 26 0 61 19 65
35 69 36 69 13z m268 -8 c73 -3 135 -10 137 -14 3 -4 -2 -13 -10 -20 -11 -9
-50 -11 -158 -5 -79 4 -150 11 -157 15 -21 13 8 43 34 36 12 -2 81 -8 154 -12z
m-620 -39 c16 -34 15 -55 -1 -55 -15 0 -49 64 -40 74 13 13 30 5 41 -19z
m-534 -82 c7 -59 -1 -80 -28 -70 -11 4 -16 19 -16 43 l0 36 -57 -7 -58 -7 19
21 c20 22 64 39 107 40 25 1 27 -3 33 -56z m386 11 c24 -55 24 -50 5 -58 -22
-8 -62 83 -43 96 18 11 17 13 38 -38z m590 36 c0 -5 -5 -21 -12 -35 -8 -18
-19 -25 -40 -25 -34 0 -34 3 -7 41 19 27 59 40 59 19z m118 -8 c23 -15 -3 -62
-33 -62 -23 0 -25 3 -19 23 13 42 28 54 52 39z m172 -11 c0 -5 -4 -21 -10 -35
-7 -20 -16 -26 -40 -26 -32 0 -38 16 -20 51 11 20 70 28 70 10z m-1012 -48
c14 -48 15 -58 2 -58 -13 0 -51 81 -42 89 14 15 30 3 40 -31z m-96 -80 c31
-70 16 -93 -19 -31 -32 56 -39 88 -20 88 8 0 25 -25 39 -57z m-114 -64 c21
-50 21 -76 0 -63 -10 6 -48 89 -48 105 0 5 6 9 13 9 7 0 23 -23 35 -51z m-132
-34 c28 -65 28 -65 11 -65 -17 0 -62 94 -53 109 12 18 16 13 42 -44z m-321 23
c2 -7 1 -44 -3 -81 -6 -62 -10 -70 -39 -88 l-33 -21 0 72 0 73 -65 -6 -66 -5
33 25 c18 13 44 26 58 29 14 3 30 7 35 9 25 9 76 4 80 -7z m192 -102 c29 -58
32 -76 13 -76 -12 0 -72 119 -65 130 12 19 21 10 52 -54z m-129 -105 c20 -34
20 -51 2 -51 -6 0 -50 73 -50 84 0 3 6 6 13 6 7 0 23 -17 35 -39z m-400 -23
c2 -11 -11 -23 -42 -37 -25 -11 -65 -33 -90 -50 -25 -17 -47 -31 -50 -31 -3 0
-6 17 -8 38 -3 32 -7 37 -30 40 -16 2 -28 9 -28 16 0 8 33 18 93 28 114 20
151 19 155 -4z m230 -41 c25 -59 26 -67 12 -67 -13 0 -61 100 -54 112 11 17
21 6 42 -45z m1653 -49 c97 -36 157 -74 224 -143 60 -62 302 -371 377 -482 22
-32 43 -59 47 -61 14 -5 20 54 10 93 -6 21 -38 79 -71 128 -76 115 -100 163
-131 262 -23 73 -31 117 -28 154 2 22 24 -2 80 -87 35 -55 49 -84 45 -99 -5
-17 -1 -22 18 -25 18 -2 35 -25 74 -96 70 -126 94 -204 94 -300 -1 -48 -6 -86
-15 -102 -8 -14 -14 -32 -15 -41 0 -8 36 -70 80 -138 l80 -122 -21 -44 c-12
-25 -27 -45 -34 -45 -20 0 -107 134 -198 306 -89 169 -247 433 -307 512 -48
63 -78 67 -112 15 -41 -63 -49 -98 -32 -138 16 -38 18 -81 5 -89 -4 -3 -19 6
-31 19 -15 16 -34 25 -54 25 -23 0 -34 6 -41 23 -8 18 -20 23 -70 27 l-60 5
35 22 c21 14 51 23 73 23 37 0 39 2 63 58 14 31 42 74 61 94 l36 37 -27 35
c-38 50 -51 55 -131 45 -38 -5 -110 -10 -160 -11 -80 -2 -97 1 -150 26 -33 15
-88 36 -122 47 -35 11 -63 24 -63 29 0 37 166 72 315 65 63 -2 110 -11 156
-27z m-1797 -34 c16 -51 16 -58 2 -72 -14 -14 -16 -14 -22 4 -4 10 -15 39 -26
63 -14 35 -16 46 -6 53 25 16 35 7 52 -48z m-350 -38 l9 -70 -39 -35 -39 -36
-5 70 c-8 93 -11 97 -68 90 l-47 -6 35 31 c31 28 41 30 90 28 l55 -3 9 -69z
m1230 -4 c2 -4 -3 -17 -12 -29 -16 -21 -28 -22 -372 -32 -195 -6 -372 -14
-392 -16 -42 -6 -56 7 -36 35 12 18 32 20 303 25 160 3 319 10 355 14 89 11
148 12 154 3z m-1054 -124 c0 -5 -7 -8 -16 -8 -22 0 -70 110 -52 121 9 7 20
-7 40 -49 15 -31 27 -60 28 -64z m150 38 c0 -2 3 -11 6 -20 8 -20 -108 -105
-320 -233 -173 -104 -196 -112 -196 -62 0 25 85 75 103 61 20 -17 140 65 134
90 -4 14 6 24 42 43 29 14 52 20 57 15 13 -13 99 45 99 66 0 8 11 22 25 29 24
14 50 19 50 11z m730 -103 c-33 -43 -60 -86 -60 -95 0 -22 -15 -31 -40 -23
-32 10 -24 37 38 118 50 67 61 76 89 77 l33 0 -60 -77z m-136 61 c12 -5 13
-10 4 -30 -9 -20 -18 -24 -54 -24 -43 0 -43 1 -32 25 13 29 48 42 82 29z m936
-4 c12 -7 8 -18 -23 -63 -20 -29 -37 -65 -37 -78 0 -14 15 -43 34 -65 48 -56
65 -96 72 -162 8 -72 -2 -81 -52 -47 -31 21 -48 25 -107 25 -76 0 -107 15
-107 53 0 11 -13 35 -30 54 -48 54 -39 94 25 108 51 12 74 32 81 72 7 42 38
99 57 107 21 8 71 6 87 -4z m-1426 -22 c-39 -44 -84 -125 -84 -151 0 -20 -5
-27 -20 -27 -42 0 -35 51 20 148 28 48 33 52 67 52 l36 0 -19 -22z m200 1
c-15 -17 -27 -20 -62 -16 -48 5 -57 11 -47 26 3 6 34 11 67 11 l61 0 -19 -21z
m81 -56 c-30 -43 -55 -86 -55 -96 0 -13 -6 -18 -22 -15 -36 5 -32 27 18 111
43 72 48 77 80 77 l34 0 -55 -77z m687 58 c24 -10 51 -28 61 -39 25 -27 33
-91 15 -115 -14 -18 -15 -18 -55 2 -51 27 -77 19 -69 -20 6 -33 0 -35 -51 -14
-61 26 -73 42 -73 100 0 73 26 105 85 105 24 0 63 -8 87 -19z m781 3 c6 -6
-54 -124 -64 -124 -5 0 -48 77 -67 122 -4 9 122 11 131 2z m-225 -36 c16 -20
55 -138 49 -145 -10 -9 -92 25 -111 46 -29 32 -25 71 9 92 37 22 40 22 53 7z
m-1385 -18 c5 -4 -3 -26 -18 -49 -26 -38 -31 -41 -72 -41 l-45 0 27 48 c16 26
30 50 32 54 4 9 64 -1 76 -12z m-895 -12 c-3 -7 -96 -69 -209 -140 l-204 -127
-5 47 -5 47 -64 5 c-73 6 -73 6 39 78 83 53 107 61 243 82 137 22 210 25 205
8z m302 -20 c19 -31 18 -48 -1 -48 -12 0 -49 61 -43 72 10 16 24 8 44 -24z
m896 14 c9 -5 7 -16 -5 -42 -17 -37 -37 -46 -77 -36 l-25 7 22 39 c23 40 55
52 85 32z m2152 -17 c217 -36 203 -32 198 -58 -42 -193 -147 -552 -174 -594
-6 -9 -19 1 -46 33 -65 77 -67 86 -51 194 8 52 15 117 15 143 0 58 -38 176
-81 252 -17 30 -28 55 -24 55 4 0 77 -11 163 -25z m-3304 -116 c29 -67 33 -99
13 -99 -15 0 -67 112 -67 143 0 37 29 14 54 -44z m1480 27 c3 -13 23 -39 44
-58 38 -34 40 -35 150 -41 72 -4 123 -12 143 -23 30 -15 31 -18 24 -57 -15
-93 -16 -92 40 -90 28 1 67 5 88 8 49 9 88 -7 132 -57 50 -55 45 -76 -27 -105
-31 -12 -81 -25 -110 -27 -29 -2 -58 -6 -63 -7 -17 -5 -95 12 -101 22 -7 11
-51 12 -58 0 -9 -14 135 -74 191 -79 68 -6 148 23 251 90 73 48 102 55 102 22
0 -26 -54 -69 -150 -119 -120 -61 -182 -82 -320 -106 -125 -21 -147 -32 -115
-55 25 -19 58 -14 150 19 42 16 104 28 158 33 77 6 87 5 87 -10 0 -32 -66 -78
-155 -106 -55 -17 -65 -27 -65 -65 0 -17 -11 -54 -25 -81 -14 -28 -21 -52 -16
-57 31 -31 161 77 161 134 0 23 12 36 72 78 64 45 98 61 98 46 0 -3 -31 -47
-68 -97 -38 -51 -81 -112 -96 -135 -21 -35 -32 -43 -55 -43 -39 0 -61 -24 -61
-66 0 -28 5 -36 26 -44 64 -25 114 3 114 63 0 26 13 48 59 102 69 80 137 199
176 308 15 42 32 77 38 77 16 0 2 -118 -23 -190 -13 -36 -38 -95 -56 -132 -39
-77 -40 -92 -18 -147 19 -47 51 -63 71 -35 10 14 16 15 25 6 16 -16 43 -15 58
3 16 20 0 66 -40 111 -16 19 -30 42 -30 51 0 8 19 56 41 107 47 103 59 188 40
291 -11 59 -11 59 19 86 16 15 32 24 35 20 8 -14 26 -208 34 -371 7 -143 10
-159 34 -201 29 -50 33 -79 16 -128 -10 -29 -9 -36 20 -71 21 -26 31 -50 31
-73 0 -39 18 -59 73 -82 23 -9 35 -20 31 -27 -9 -15 -131 -4 -180 17 -38 16
-40 15 -53 -4 -18 -27 -70 -28 -104 -1 -32 26 -87 115 -122 200 -15 36 -31 69
-35 74 -5 5 -24 -22 -43 -60 -45 -89 -73 -115 -132 -122 -46 -5 -46 -5 -39 22
10 40 -30 80 -70 72 -16 -4 -38 -14 -48 -23 -17 -15 -21 -14 -73 21 l-56 37
30 28 c18 17 31 39 31 53 0 13 9 48 19 78 10 30 22 83 26 118 6 57 6 62 -13
62 -11 0 -25 -7 -32 -15 -18 -22 -33 -19 -87 15 -52 33 -85 37 -173 18 -81
-16 -105 -7 -135 52 -17 33 -33 52 -49 56 -14 3 -32 14 -41 24 -23 26 -30 91
-13 123 l14 27 17 -33 c24 -44 65 -67 121 -67 51 0 83 12 141 52 22 15 62 32
88 37 26 5 50 11 53 14 11 10 -7 28 -49 47 -26 13 -52 36 -70 62 -15 24 -43
62 -62 86 -30 38 -35 51 -35 98 0 42 -6 63 -26 94 -27 40 -27 70 0 70 7 0 17
-11 20 -24z m1257 -83 c67 -125 211 -371 260 -445 41 -63 38 -67 -31 -43 -23
8 -56 15 -73 15 -37 0 -89 -31 -107 -65 -31 -58 -44 -17 -58 174 -9 124 -12
139 -45 203 -31 60 -34 73 -25 94 9 19 9 40 -1 86 -10 50 -10 62 1 69 7 5 16
9 20 9 3 0 30 -44 59 -97z m-2242 51 c-18 -19 -20 -27 -11 -36 7 -7 12 -18 12
-25 0 -23 -25 -14 -43 16 -17 29 -17 29 14 55 38 32 60 24 28 -10z m100 -27
c8 -10 7 -19 -4 -33 -20 -26 -19 -29 10 -42 26 -12 33 -36 14 -47 -10 -7 -96
20 -113 35 -8 8 61 100 75 100 4 0 12 -6 18 -13z m800 -57 c35 -92 31 -102
-58 -150 -32 -18 -49 -34 -55 -55 -5 -16 -23 -39 -40 -50 -47 -30 -71 -87 -71
-167 0 -56 4 -70 24 -91 12 -14 39 -29 59 -34 27 -6 42 -19 61 -51 15 -23 36
-49 48 -57 35 -24 132 -45 210 -45 40 0 73 -3 73 -7 0 -5 -17 -17 -38 -28 -48
-26 -74 -76 -69 -132 3 -24 1 -43 -4 -43 -13 0 -37 -51 -58 -129 -33 -117 -85
-165 -211 -192 -67 -14 -110 -35 -110 -53 0 -41 138 -86 262 -86 82 0 92 -2
124 -27 18 -16 34 -31 34 -35 0 -15 -27 -8 -54 13 -25 20 -28 20 -52 4 -45
-29 -56 -93 -29 -160 9 -20 13 -45 10 -56 -6 -18 -12 -19 -53 -13 -26 4 -59
17 -74 29 -14 12 -44 25 -66 28 -22 4 -52 14 -68 22 -60 31 -99 9 -148 -84
-20 -39 -45 -75 -56 -81 -10 -5 -54 -10 -98 -10 -56 0 -117 -9 -203 -31 -149
-37 -231 -73 -289 -125 -46 -42 -86 -116 -73 -137 4 -6 6 -21 5 -33 -7 -51
139 -125 322 -165 88 -20 136 -40 136 -58 0 -5 12 -23 26 -40 42 -50 87 -43
172 29 41 35 41 35 144 36 163 2 278 33 369 99 57 41 62 42 96 15 56 -44 130
-7 156 78 30 92 32 172 5 172 -5 0 -24 -10 -41 -22 l-31 -23 21 35 c13 22 25
65 31 118 9 72 13 85 37 104 15 12 36 40 46 62 10 23 19 36 19 29 0 -7 10 -17
21 -24 18 -9 35 -7 89 12 l68 23 114 -19 115 -18 85 26 c103 32 220 38 197 11
-28 -34 -269 -230 -434 -354 -332 -249 -458 -320 -720 -410 -285 -97 -724
-215 -741 -198 -3 4 -14 38 -23 76 -10 38 -31 93 -47 121 -36 68 -137 161
-211 197 -52 26 -69 28 -177 31 -106 2 -121 4 -142 24 l-23 22 40 59 c32 47
45 59 60 54 10 -3 27 -8 37 -11 12 -3 28 10 54 44 52 68 53 74 18 95 -34 20
-34 30 3 76 26 33 37 36 77 15 l29 -15 42 57 c23 32 46 63 52 70 6 9 -1 17
-27 30 -20 9 -35 22 -32 29 3 7 39 59 80 116 42 58 76 108 76 111 0 4 -97 7
-215 7 l-216 0 26 37 c14 21 25 43 25 49 0 8 -28 15 -75 19 -63 6 -75 10 -73
24 4 17 19 18 84 7 44 -8 47 -5 80 87 12 33 11 38 -1 42 -8 3 -22 7 -30 10
-11 3 -12 10 -4 35 13 35 11 34 68 15 52 -19 62 -13 97 57 30 59 30 66 0 79
l-25 12 26 38 c21 32 30 38 47 32 44 -14 60 -8 94 36 32 42 33 46 16 58 -17
12 -16 15 16 48 19 20 39 34 45 32 50 -19 52 -18 90 33 36 49 37 52 19 65 -18
13 -18 14 2 35 19 20 26 21 68 12 53 -11 58 -7 81 58 19 53 20 49 -10 60 -29
11 -31 26 -10 57 14 20 17 20 56 7 39 -14 43 -13 84 11 69 40 75 50 75 116 0
32 2 59 5 59 3 0 23 -9 43 -19 38 -19 38 -19 70 1 26 16 32 27 32 54 l0 34 93
0 93 0 38 51 c21 28 39 49 41 47 2 -1 13 -28 24 -58z m956 15 c33 -9 65 -17
72 -20 9 -3 7 -23 -8 -77 -24 -87 -32 -98 -71 -98 -16 0 -41 -9 -55 -20 -48
-38 -77 -15 -62 49 5 20 9 66 9 103 0 85 9 90 115 63z m-2929 -13 c6 -4 14
-57 18 -122 l7 -116 -60 -41 c-57 -41 -59 -42 -65 -20 -3 12 -6 70 -6 130 l0
107 -67 0 -67 0 50 35 c44 31 56 35 114 35 36 0 70 -4 76 -8z m969 -10 c0 -6
-76 -80 -169 -164 -264 -239 -257 -233 -267 -217 -5 8 -9 16 -9 19 0 19 419
381 435 376 6 -1 10 -8 10 -14z m616 -17 c46 -24 57 -45 24 -45 -11 0 -75 25
-94 37 -5 3 7 33 14 33 3 0 28 -11 56 -25z m-1272 -40 c10 -28 25 -64 34 -81
12 -23 13 -34 4 -43 -22 -22 -34 -10 -65 67 -36 85 -38 98 -19 105 22 9 28 2
46 -48z m395 17 c5 -9 -57 -72 -133 -135 -33 -27 -47 -34 -53 -25 -18 29 -4
49 74 107 80 59 101 70 112 53z m2417 -15 c19 -13 51 -53 73 -91 37 -63 40
-76 47 -173 4 -57 10 -122 14 -144 6 -34 4 -39 -12 -39 -26 0 -60 25 -136 101
l-67 66 0 61 c0 34 -5 72 -11 86 -10 21 -7 35 17 90 16 36 31 66 35 66 3 0 21
-10 40 -23z m-1876 -82 c98 -34 180 -66 182 -71 1 -5 -1 -16 -6 -24 -8 -12
-38 -5 -188 44 -98 32 -193 65 -212 72 -33 14 -34 15 -16 34 13 14 25 18 39
14 12 -4 102 -35 201 -69z m149 45 c44 -18 56 -33 37 -44 -7 -5 -128 30 -140
40 -2 2 -1 11 3 20 7 18 28 15 100 -16z m-950 -67 c-2 -21 -6 -108 -10 -195
-6 -156 -6 -156 -35 -184 -16 -15 -31 -25 -34 -22 -4 4 -35 281 -35 319 0 8
18 25 40 38 43 24 45 28 30 51 -10 16 4 30 32 30 13 0 15 -8 12 -37z m579 -23
c37 -13 67 -28 67 -34 0 -6 -8 -21 -18 -34 l-17 -22 -70 24 c-117 40 -110 34
-79 68 16 15 33 27 39 25 5 -2 40 -14 78 -27z m1065 -47 c21 -16 32 -33 32
-49 0 -28 -23 -40 -98 -50 -55 -7 -87 5 -97 35 -7 22 15 71 46 102 18 18 21
18 52 3 17 -9 47 -27 65 -41z m-851 -29 c47 -18 53 -32 25 -57 -15 -13 -25
-14 -61 -5 -48 12 -58 26 -41 57 13 25 22 26 77 5z m-337 -39 c39 -19 70 -39
70 -44 0 -5 -17 -28 -39 -52 l-38 -43 -67 28 c-37 16 -76 36 -88 45 -20 16
-19 17 26 59 25 23 50 42 56 42 6 0 42 -16 80 -35z m-862 -67 c14 -38 17 -57
9 -66 -16 -20 -26 -11 -52 45 -22 49 -23 53 -7 63 27 15 29 13 50 -42z m1151
1 c76 -29 92 -41 73 -53 -7 -4 -182 41 -191 49 -8 9 9 35 23 35 8 0 51 -14 95
-31z m-1599 -21 c0 -7 -132 -98 -292 -203 -161 -104 -347 -231 -414 -282
l-122 -92 -6 31 c-3 17 -6 70 -6 119 l0 88 -67 3 -67 3 164 95 c91 51 215 124
277 161 l112 68 148 9 c228 14 273 14 273 0z m1486 -44 c58 -20 72 -30 58 -44
-6 -6 -32 -2 -74 11 -72 22 -75 24 -65 38 9 15 23 14 81 -5z m-321 -26 c47
-18 85 -37 85 -41 0 -5 -33 -43 -74 -85 l-74 -75 -101 38 c-55 20 -101 43
-101 49 0 13 156 146 171 146 5 0 47 -14 94 -32z m-1079 -126 c30 -76 32 -88
19 -101 -8 -8 -17 -13 -19 -10 -3 3 -23 47 -45 99 -36 88 -38 96 -23 113 19
22 20 21 68 -101z m3481 49 c12 -6 31 -11 42 -11 11 0 32 -11 48 -24 15 -13
42 -26 59 -30 37 -8 53 -23 97 -91 29 -45 36 -50 82 -58 92 -15 93 -39 1 -78
-46 -19 -55 -27 -65 -60 -22 -73 -72 -92 -110 -41 -37 49 -41 52 -73 52 -51 0
-110 36 -150 91 l-37 52 5 121 c7 157 7 156 47 119 18 -17 42 -36 54 -42z
m-3078 42 c0 -10 -6 -39 -12 -65 -11 -45 -20 -54 -192 -194 -99 -80 -186 -151
-192 -156 -10 -8 -13 5 -13 60 l0 71 61 42 c55 37 60 43 54 67 -4 15 -8 33 -9
41 -1 13 157 131 175 131 4 0 10 -9 14 -20 6 -18 8 -18 53 10 55 35 62 36 61
13z m944 -14 c74 -25 97 -37 97 -49 0 -15 -24 -12 -106 12 -67 19 -86 33 -67
51 9 9 5 10 76 -14z m2559 -34 c41 -41 51 -122 18 -155 -26 -26 -99 -27 -128
-2 -11 9 -28 44 -37 77 l-17 59 27 23 c38 33 104 32 137 -2z m-2638 -46 c39
-15 56 -27 56 -40 0 -10 -4 -21 -10 -24 -10 -6 -150 33 -150 43 0 9 32 42 41
42 4 0 32 -10 63 -21z m-430 -83 c42 -19 76 -39 76 -43 0 -5 -18 -26 -39 -47
-38 -37 -40 -38 -78 -26 -21 7 -62 23 -92 36 l-53 24 48 45 c27 24 52 44 56
45 4 0 41 -15 82 -34z m-251 5 c16 -6 12 -13 -30 -51 -26 -24 -155 -143 -286
-264 -132 -122 -243 -222 -248 -224 -5 -2 -9 23 -9 55 0 57 1 59 43 88 23 17
49 30 58 30 26 1 99 64 92 81 -8 20 41 70 75 77 33 7 152 112 152 135 1 10 20
32 43 49 41 32 73 39 110 24z m624 -16 c74 -28 89 -38 79 -53 -4 -6 -42 2 -98
20 -104 33 -103 33 -93 47 10 17 39 13 112 -14z m2848 -16 l26 -40 -46 -86
c-130 -239 -234 -383 -408 -560 -123 -125 -130 -131 -156 -121 -39 16 -199 15
-254 -1 -35 -10 -68 -12 -125 -6 -162 18 -311 5 -346 -31 -11 -11 -15 -6 -20
27 -7 46 -37 109 -59 128 -12 10 -18 8 -29 -8 -13 -19 -16 -15 -31 52 -10 40
-17 82 -17 95 0 47 -34 156 -75 238 -23 46 -40 84 -36 83 3 0 35 -34 71 -74
104 -118 201 -165 334 -165 83 1 110 13 141 65 l23 37 32 -61 c21 -39 52 -77
87 -106 49 -40 61 -45 105 -45 33 0 64 7 90 22 34 20 41 21 61 8 54 -34 80
-42 117 -37 84 11 137 81 148 195 l7 65 72 17 c82 19 97 29 123 80 10 20 36
48 58 62 49 33 72 81 72 152 0 31 2 56 5 56 3 0 16 -18 30 -41z m-4431 -142
c25 -68 46 -128 46 -135 0 -6 -9 -16 -20 -22 -23 -12 -18 -21 -82 154 -39 109
-39 125 -2 126 6 0 32 -55 58 -123z m1469 87 l56 -25 -27 -39 c-15 -22 -32
-39 -38 -40 -5 0 -41 11 -80 24 l-69 23 41 42 c23 22 46 41 52 41 5 0 35 -11
65 -26z m-727 8 c-14 -23 -86 -60 -126 -66 l-45 -7 28 28 c17 18 46 32 80 39
68 15 69 15 63 6z m2254 -27 c0 -12 -53 -111 -64 -117 -18 -12 -53 -9 -59 5
-9 23 21 71 63 100 23 16 60 23 60 12z m-1957 -54 c37 -13 67 -27 67 -33 0 -5
-18 -31 -41 -58 l-40 -48 -82 30 c-45 16 -86 33 -90 37 -10 10 92 103 107 98
6 -2 41 -14 79 -26z m-1689 -83 c3 -57 9 -153 12 -214 l6 -110 -84 -61 -85
-61 -7 82 c-3 44 -6 145 -6 223 0 78 -3 143 -7 145 -5 2 -63 1 -131 -2 -121
-5 -123 -5 -100 13 12 10 43 31 68 45 45 27 99 35 271 40 l57 2 6 -102z m926
19 c0 -41 3 -135 7 -210 l6 -137 -80 0 -80 0 -6 98 c-4 53 -7 124 -7 158 l0
60 73 52 c39 28 75 51 80 52 4 0 7 -33 7 -73z m1092 11 c128 -47 130 -48 119
-67 -8 -12 -27 -8 -113 22 -173 60 -166 56 -144 73 11 8 21 14 23 14 1 0 53
-19 115 -42z m-102 -78 c35 -16 66 -32 67 -37 2 -5 -3 -17 -10 -27 -13 -17
-18 -17 -115 13 -56 18 -102 36 -102 41 0 5 12 18 27 29 29 24 33 23 133 -19z
m-760 22 c0 -18 -26 -32 -57 -32 -35 0 -41 8 -21 28 13 13 78 17 78 4z m3390
-31 c31 -22 92 -113 82 -122 -4 -4 -24 -12 -45 -17 -33 -9 -41 -8 -58 9 -10
10 -19 31 -19 45 0 14 -11 40 -25 56 -20 24 -23 33 -14 44 14 16 42 11 79 -15z
m-3035 -41 c28 -15 50 -32 50 -37 0 -6 -19 -31 -42 -56 l-42 -46 -63 26 c-35
14 -74 30 -88 35 -25 10 -25 10 35 64 66 60 68 60 150 14z m-1312 -155 l45
-130 -25 -18 c-13 -11 -26 -17 -28 -15 -5 6 -95 257 -95 267 0 14 43 42 51 33
3 -4 27 -65 52 -137z m1652 105 c66 -22 126 -42 132 -45 17 -6 5 -35 -14 -35
-18 0 -240 69 -266 82 -15 7 -16 12 -6 24 16 20 20 19 154 -26z m1690 -69 c28
-82 15 -92 -24 -20 -18 33 -22 53 -17 73 4 16 9 26 12 24 2 -3 15 -37 29 -77z
m-1802 -1 c37 -16 67 -36 67 -43 0 -6 -9 -23 -19 -36 l-18 -24 -97 24 c-53 13
-102 26 -109 31 -8 5 0 19 28 48 45 46 46 46 148 0z m-320 -65 c20 -8 20 -10
7 -36 -10 -17 -22 -19 -145 -19 -73 0 -136 4 -139 9 -4 5 20 32 51 59 l57 50
75 -28 c42 -16 84 -31 94 -35z m2071 25 c24 -60 20 -67 -19 -30 -27 27 -32 37
-24 52 15 27 25 22 43 -22z m-3034 -67 l0 -78 -143 -107 c-122 -91 -150 -108
-200 -118 -64 -13 -69 -17 -235 -168 -100 -92 -124 -104 -138 -68 -6 15 19 40
246 245 125 113 149 131 172 127 37 -7 163 88 163 123 0 17 19 37 65 71 36 27
66 49 68 49 1 1 2 -34 2 -76z m2978 17 c27 -36 29 -55 5 -45 -10 4 -31 12 -48
18 -41 14 -41 14 -20 37 25 27 37 25 63 -10z m-1892 -15 c18 -13 17 -14 -18
-15 -36 0 -47 8 -31 23 10 11 28 8 49 -8z m1831 -47 c29 -13 51 -27 49 -33 -4
-12 -163 -8 -186 5 -12 7 -5 13 30 29 55 25 45 25 107 -1z m183 -18 c0 -39 -1
-40 -33 -40 -19 0 -37 3 -41 7 -7 7 52 73 66 73 4 0 8 -18 8 -40z m-1650 -35
l-33 -34 -641 6 c-353 3 -643 7 -644 9 -2 1 4 14 15 28 l18 25 659 1 660 0
-34 -35z m-2446 -51 l47 -7 86 -146 c47 -80 88 -149 90 -153 13 -24 -24 0 -93
61 -72 62 -214 217 -222 241 -4 12 26 13 92 4z m1226 -50 c0 -3 -65 -81 -145
-172 -123 -141 -145 -172 -145 -199 0 -33 0 -33 -50 -33 l-50 0 0 34 c0 36 56
110 228 304 63 71 65 72 113 72 27 0 49 -3 49 -6z m1330 -1 c0 -16 -33 -41
-48 -36 -26 9 -42 24 -36 34 6 10 84 12 84 2z m-1020 -10 c0 -3 -14 -28 -31
-55 l-31 -48 -124 0 c-68 0 -124 3 -124 6 0 3 19 28 42 55 l41 49 114 0 c62 0
113 -3 113 -7z m560 2 c0 -4 -19 -33 -42 -65 l-42 -60 -134 0 c-152 0 -148 -4
-85 80 l37 50 133 0 c73 0 133 -2 133 -5z m210 -5 c0 -6 -26 -41 -57 -79 -110
-131 -233 -316 -233 -350 0 -29 -2 -31 -39 -31 -33 0 -40 4 -45 24 -9 35 -3
46 97 191 49 72 106 155 127 185 39 57 38 57 138 68 6 1 12 -3 12 -8z m-643
-82 c-36 -46 -90 -123 -122 -171 -54 -83 -57 -92 -51 -133 6 -43 5 -44 -24
-44 -16 0 -40 4 -54 10 -21 8 -26 16 -26 45 0 30 20 63 126 205 l127 170 44 0
44 0 -64 -82z m1163 76 c0 -9 -59 -92 -70 -99 -10 -6 -122 27 -149 44 -11 7
-10 13 4 35 17 25 20 26 116 26 55 0 99 -3 99 -6z m1400 -43 c0 -16 -28 -51
-42 -51 -15 0 -8 53 9 72 13 14 18 16 25 6 4 -7 8 -19 8 -27z m-1613 -68 c117
-43 213 -80 213 -83 0 -3 -8 -15 -18 -27 l-17 -22 -206 83 c-242 97 -234 93
-218 112 6 8 17 14 23 14 6 0 107 -35 223 -77z m-1627 64 c0 -2 -23 -23 -50
-46 -49 -41 -55 -43 -206 -72 -86 -17 -159 -28 -162 -25 -16 17 41 41 209 90
177 52 209 60 209 53z m3106 -74 c-20 -147 -156 -299 -314 -352 -77 -26 -203
-29 -222 -5 -22 26 6 40 116 57 56 9 126 27 157 41 98 43 186 141 217 241 24
78 56 91 46 18z m-1721 -15 c25 -12 45 -25 45 -29 0 -13 -42 -59 -53 -59 -7 0
-29 11 -50 26 l-38 25 21 30 c12 16 23 29 25 29 3 0 25 -10 50 -22z m1859 -22
c-9 -23 -44 -41 -45 -24 -3 27 3 43 19 56 13 10 18 10 24 -2 4 -8 5 -22 2 -30z
m-2801 -9 c-4 -7 -34 -48 -67 -90 l-58 -77 -57 1 c-31 1 -84 4 -118 8 l-63 6
67 83 67 82 118 0 c95 0 117 -3 111 -13z m521 -13 c13 -5 7 -19 -31 -72 -77
-111 -63 -104 -191 -95 l-111 8 52 82 52 83 107 0 c58 0 113 -3 122 -6z m1686
-56 c-11 -29 -20 -54 -20 -55 0 -2 -13 -3 -30 -3 -16 0 -30 3 -30 8 0 11 80
102 91 102 5 0 0 -24 -11 -52z m-1080 7 c61 -31 69 -38 61 -54 -25 -45 -38
-46 -112 -11 -38 19 -69 39 -69 45 0 15 29 55 41 55 5 0 41 -16 79 -35z m1172
-36 c-7 -29 -13 -35 -40 -37 -42 -4 -41 10 6 67 32 40 37 43 40 24 2 -11 -1
-36 -6 -54z m96 9 c-3 -41 -5 -43 -36 -46 l-33 -3 17 33 c36 71 57 77 52 16z
m-1534 -3 c17 -13 17 -45 -1 -45 -18 1 -55 38 -49 49 9 15 27 14 50 -4z
m-1546 -72 l-47 -47 -165 -4 c-181 -5 -194 -1 -128 43 33 22 61 28 208 43 93
10 171 17 174 15 2 -2 -17 -25 -42 -50z m1880 -89 c2 -1 -1 -12 -7 -23 -11
-20 -15 -19 -141 44 -72 36 -130 69 -130 73 0 4 5 13 11 19 8 8 46 -6 137 -50
70 -33 128 -61 130 -63z m838 -36 c-10 -107 -17 -139 -30 -135 -15 5 -28 177
-14 194 6 7 19 13 31 13 18 0 19 -4 13 -72z m-1033 -28 c9 -8 -32 -80 -45 -80
-13 0 -178 79 -178 85 0 4 14 23 32 44 l32 38 75 -40 c42 -22 80 -43 84 -47z
m697 41 c23 -45 1 -91 -45 -91 -25 0 -55 33 -55 62 0 44 79 67 100 29z m-2287
-17 c26 -9 47 -19 47 -23 0 -3 -36 -42 -80 -86 l-80 -80 -45 24 c-25 13 -45
27 -45 31 0 6 147 147 156 150 0 0 21 -7 47 -16z m2434 -43 c32 -47 29 -75
-11 -119 -40 -43 -57 -37 -33 13 21 43 21 72 2 105 -19 33 -18 42 2 38 10 -2
28 -18 40 -37z m-2038 -31 l45 0 -49 -51 c-28 -28 -57 -54 -66 -59 -23 -13
-229 51 -229 71 0 5 10 19 21 30 21 21 28 21 127 15 58 -3 126 -6 151 -6z
m2951 5 c0 -3 -8 -17 -17 -31 -14 -21 -14 -27 -3 -34 10 -6 7 -10 -12 -15 -15
-4 -34 -15 -44 -26 -21 -23 -30 -24 -38 -2 -5 11 8 31 41 65 41 42 73 60 73
43z m-1905 -67 c58 -29 105 -56 105 -60 0 -4 -9 -12 -20 -18 -16 -8 -39 -1
-122 41 -57 28 -105 53 -107 55 -6 5 20 34 30 34 5 0 56 -24 114 -52z m-577
-10 c-23 -29 -68 -79 -99 -111 l-55 -57 -45 13 c-24 8 -84 27 -134 42 -49 15
-92 29 -94 31 -2 2 22 33 54 69 l57 65 180 0 180 0 -44 -52z m1362 18 c23 -15
40 -29 37 -32 -2 -2 -24 3 -48 11 -24 9 -66 19 -93 23 -28 4 -51 13 -54 21 -9
26 110 9 158 -23z m-1042 5 c22 -6 19 -11 -50 -84 l-73 -78 -67 27 c-38 15
-68 31 -68 36 0 5 21 31 46 58 l47 50 71 -1 c39 -1 81 -4 94 -8z m1012 -69
c20 -13 22 -17 8 -20 -20 -4 -78 25 -78 39 0 13 36 3 70 -19z m-2034 -18 l103
-36 -51 -44 c-29 -24 -55 -44 -60 -44 -8 0 -168 87 -177 96 -6 5 60 63 73 64
6 0 56 -16 112 -36z m1177 -29 c42 -25 77 -52 77 -59 0 -7 -17 -33 -39 -57
l-38 -43 -87 38 c-48 21 -89 42 -91 46 -6 10 76 120 90 120 6 0 45 -20 88 -45z
m1295 11 c7 -8 -17 -41 -57 -81 -34 -32 -45 -38 -59 -29 -9 6 -18 23 -20 38
-4 29 0 31 27 14 15 -9 23 -9 35 1 22 18 20 38 -5 51 -16 9 -18 14 -9 25 10
12 17 12 48 -1 20 -8 38 -16 40 -18z m-1601 -110 c-10 -30 -38 -30 -123 -1
-113 39 -113 39 -86 68 l23 25 95 -41 c52 -22 93 -45 91 -51z m-514 8 c97 -32
166 -61 164 -67 -2 -6 -15 -19 -29 -30 l-25 -19 -139 52 c-76 29 -155 59 -174
67 l-35 14 24 20 c13 10 28 19 35 19 6 0 87 -25 179 -56z m405 -89 c5 -4 -103
-141 -119 -150 -8 -5 -102 27 -129 45 -12 8 -1 23 59 84 l74 74 55 -24 c31
-14 58 -27 60 -29z m324 9 c65 -26 118 -50 118 -54 0 -4 -8 -14 -17 -22 -16
-14 -30 -11 -143 34 -68 27 -126 51 -129 53 -7 8 21 35 37 35 9 0 69 -21 134
-46z m-126 -82 c49 -15 91 -31 92 -37 4 -19 -78 -125 -98 -125 -20 0 -190 39
-203 47 -6 3 109 144 117 143 0 0 42 -13 92 -28z m206 -124 c2 -35 4 -63 3
-63 -4 -6 -115 10 -115 16 0 12 90 109 100 109 5 0 10 -28 12 -62z"/>
<path d="M4950 6680 c-23 -43 -17 -47 218 -126 129 -43 175 -55 184 -46 25 25
-6 43 -220 128 -159 64 -170 67 -182 44z"/>
<path d="M5507 4923 c-15 -4 -17 -13 -15 -51 l3 -47 43 -3 42 -3 0 55 c0 55
-1 56 -27 55 -16 -1 -36 -3 -46 -6z"/>
<path d="M5733 4923 c-8 -3 -13 -23 -13 -49 0 -44 0 -44 35 -44 l35 0 0 50 c0
45 -2 50 -22 49 -13 0 -29 -3 -35 -6z"/>
<path d="M5890 4880 c0 -47 2 -50 25 -50 23 0 25 3 25 50 0 47 -2 50 -25 50
-23 0 -25 -3 -25 -50z"/>
<path d="M6020 4875 c0 -37 3 -45 19 -45 19 0 31 25 31 68 0 17 -6 22 -25 22
-23 0 -25 -4 -25 -45z"/>
<path d="M5243 4903 c-12 -4 -20 -113 -8 -113 2 0 27 5 55 11 l50 11 0 49 0
49 -42 -1 c-24 0 -49 -3 -55 -6z"/>
<path d="M6140 4860 c0 -33 3 -40 20 -40 17 0 20 7 20 40 0 33 -3 40 -20 40
-17 0 -20 -7 -20 -40z"/>
<path d="M6250 4851 c0 -27 5 -41 16 -45 21 -8 20 -9 27 42 5 39 4 42 -19 42
-21 0 -24 -4 -24 -39z"/>
<path d="M4945 4861 l-40 -6 -3 -57 c-3 -67 -4 -67 93 -40 45 13 60 22 59 35
-4 81 -2 77 -36 76 -18 -1 -51 -5 -73 -8z"/>
<path d="M6365 4834 c-6 -34 -1 -54 10 -42 3 3 9 22 12 42 7 48 -13 48 -22 0z"/>
<path d="M6446 4819 c-8 -42 0 -50 9 -9 4 17 5 34 2 36 -2 3 -7 -10 -11 -27z"/>
<path d="M4595 4789 c-38 -5 -94 -14 -122 -20 l-53 -10 0 -70 c0 -38 3 -69 6
-69 3 0 68 21 146 46 129 42 139 47 134 67 -3 12 -6 32 -6 45 0 24 2 24 -105
11z"/>
<path d="M4052 4665 c-78 -19 -161 -39 -182 -45 l-40 -11 0 -84 c0 -63 3 -85
13 -85 13 0 248 83 345 121 l52 21 0 59 c0 72 10 71 -188 24z"/>
<path d="M3530 4510 c-41 -13 -613 -177 -642 -184 l-28 -6 0 -105 c0 -57 4
-106 9 -109 20 -13 668 224 689 251 13 18 17 164 5 162 -5 0 -19 -4 -33 -9z"/>
<path d="M2510 4210 c-30 -10 -253 -79 -495 -154 -242 -74 -469 -145 -505
-158 l-65 -23 4 -140 c2 -77 4 -141 5 -142 2 -3 1121 403 1135 412 12 7 16
181 5 209 -8 20 -15 19 -84 -4z"/>
<path d="M6955 4675 c-99 -49 -155 -124 -105 -140 22 -7 74 24 90 55 5 10 30
28 55 40 36 17 45 27 43 44 -4 30 -26 30 -83 1z"/>
<path d="M7033 4543 c-7 -2 -13 -13 -13 -23 0 -14 9 -20 33 -22 24 -2 33 -8
35 -25 3 -18 -7 -27 -47 -48 -28 -14 -74 -28 -103 -33 -47 -6 -53 -10 -56 -33
-6 -47 20 -55 96 -31 37 12 92 36 122 54 51 31 55 36 58 74 4 57 -26 94 -76
93 -20 0 -43 -3 -49 -6z"/>
<path d="M6930 4176 c0 -54 0 -55 -32 -58 -28 -2 -34 -8 -36 -30 -3 -26 -1
-28 32 -28 l36 0 0 -60 c0 -57 1 -60 25 -60 23 0 24 4 27 62 2 35 8 63 15 65
8 3 10 -8 6 -34 -7 -57 24 -93 83 -93 58 0 84 25 84 82 0 33 3 39 12 30 7 -7
11 -34 10 -62 -2 -47 0 -50 22 -50 31 0 40 27 31 87 -11 76 -34 90 -158 98
l-107 7 3 47 c2 43 0 46 -25 49 -28 3 -28 2 -28 -52z m185 -151 c0 -25 -4 -30
-25 -30 -21 0 -26 5 -28 33 -3 31 -2 33 25 30 24 -3 28 -8 28 -33z"/>
<path d="M6998 3784 c-31 -16 -48 -43 -48 -73 0 -27 24 -27 74 2 50 28 64 50
47 71 -16 20 -38 20 -73 0z"/>
<path d="M7093 3721 c-44 -21 -68 -54 -81 -117 -11 -53 -32 -56 -32 -5 0 37
-2 41 -25 41 -22 0 -25 -4 -25 -40 0 -36 -3 -40 -24 -40 -24 0 -41 -23 -30
-41 3 -5 16 -9 30 -9 23 0 24 -3 24 -55 0 -52 1 -55 25 -55 24 0 25 3 25 56 0
63 21 72 31 13 3 -19 9 -41 13 -48 22 -36 143 -55 180 -28 13 10 18 28 18 80
1 39 -3 72 -10 79 -6 6 -39 14 -73 16 l-61 5 7 36 c9 49 23 63 59 59 27 -3 32
-8 36 -38 4 -29 10 -36 32 -38 22 -3 27 2 33 27 22 100 -50 148 -152 102z m61
-214 c12 -9 17 -23 14 -42 -3 -32 -22 -41 -64 -31 -19 5 -24 13 -24 40 0 45
36 61 74 33z"/>
<path d="M539 4675 c-31 -17 -52 -62 -47 -101 2 -24 11 -31 48 -44 55 -19 79
-55 64 -97 -12 -36 -57 -40 -62 -6 -4 29 -26 45 -54 41 -20 -3 -23 -9 -26 -58
-4 -69 9 -80 96 -80 57 0 67 3 92 29 18 18 32 44 36 69 7 48 18 67 33 58 6 -4
8 -24 4 -51 -4 -36 -2 -46 11 -51 23 -9 44 12 48 49 3 27 7 32 27 29 44 -5 58
51 18 69 -22 10 -23 14 -13 50 12 44 0 61 -39 57 -15 -2 -21 -13 -25 -42 -9
-69 -40 -54 -54 26 -4 21 -16 44 -29 53 -27 19 -93 19 -128 0z m96 -64 c3 -10
3 -26 -1 -35 -9 -23 -58 -17 -62 7 -8 40 51 66 63 28z"/>
<path d="M640 4331 c-33 -20 -46 -35 -48 -54 -3 -24 0 -27 25 -27 33 0 123 53
123 73 0 18 -21 37 -39 36 -9 0 -36 -13 -61 -28z"/>
<path d="M456 4241 c-9 -10 -21 -33 -26 -52 -24 -82 -6 -109 76 -118 57 -6 59
-7 62 -37 4 -37 -27 -80 -51 -71 -9 3 -23 22 -31 42 -12 29 -20 35 -45 35 -36
0 -45 -21 -35 -85 4 -29 13 -49 25 -55 27 -15 84 -12 129 6 44 18 72 59 84
127 9 47 26 48 26 2 0 -28 4 -35 19 -35 24 0 43 23 39 47 -2 13 3 18 22 18 20
0 26 6 28 27 3 23 -1 27 -25 30 -27 3 -28 5 -25 50 3 37 0 49 -12 54 -25 9
-46 -15 -46 -52 0 -53 -18 -49 -43 8 -26 59 -54 78 -116 78 -24 0 -44 -7 -55
-19z m112 -83 c3 -24 0 -28 -21 -28 -34 0 -54 25 -37 45 21 25 54 15 58 -17z"/>
<path d="M645 3926 c-65 -29 -86 -88 -33 -94 35 -4 100 52 96 82 -4 26 -24 30
-63 12z"/>
<path d="M660 3785 c-8 -9 -10 -29 -6 -52 3 -21 9 -70 12 -109 6 -69 6 -71
-22 -93 -20 -15 -36 -20 -54 -16 -42 10 -58 39 -65 120 -7 70 -9 76 -33 82
-37 9 -52 -18 -52 -91 0 -70 26 -136 62 -160 39 -25 127 -30 168 -9 57 30 75
73 74 178 0 103 -20 165 -52 165 -11 0 -25 -7 -32 -15z"/>
<path d="M645 3420 c-3 -5 4 -46 16 -90 21 -75 21 -82 6 -97 -22 -23 -29 -13
-34 49 -8 109 -22 128 -87 128 -32 0 -50 -6 -70 -25 -23 -21 -26 -31 -26 -92
0 -72 12 -128 33 -157 10 -13 20 -16 41 -10 31 7 30 0 9 147 -3 23 0 43 8 53
23 27 32 -3 34 -110 2 -57 6 -109 9 -115 16 -25 56 -11 81 29 29 47 42 50 47
14 4 -37 32 -54 54 -32 16 16 16 20 -4 67 -25 57 -26 61 -12 61 6 0 20 -16 31
-35 12 -19 27 -35 35 -35 19 0 18 35 -2 66 -15 22 -15 26 -1 42 8 9 17 26 19
37 2 16 -3 20 -27 20 -26 0 -30 4 -35 35 -7 44 -17 60 -35 60 -21 0 -23 -20
-9 -75 16 -59 17 -75 5 -75 -5 0 -17 34 -26 75 -13 61 -20 75 -35 75 -10 0
-22 -4 -25 -10z"/>
<path d="M698 3033 c-142 -62 -155 -75 -145 -160 4 -39 12 -54 44 -84 38 -35
122 -69 171 -69 27 0 52 26 52 55 0 26 -17 35 -63 35 -51 0 -106 19 -117 41
-6 11 -10 34 -8 52 3 28 9 34 63 56 118 47 185 80 185 90 0 24 -14 41 -34 40
-11 -1 -78 -26 -148 -56z"/>
<path d="M6102 4588 c-7 -7 -12 -27 -12 -46 0 -32 1 -33 38 -30 36 3 37 4 40
46 3 40 2 42 -25 42 -16 0 -34 -5 -41 -12z"/>
<path d="M6200 4560 c0 -35 3 -40 23 -40 33 0 46 12 53 48 6 32 6 32 -35 32
l-41 0 0 -40z"/>
<path d="M6307 4593 c-4 -3 -7 -19 -7 -35 0 -26 3 -28 40 -28 25 0 40 5 40 13
0 6 3 22 6 35 6 20 3 22 -33 22 -22 0 -43 -3 -46 -7z"/>
<path d="M5997 4584 c-4 -4 -7 -25 -7 -46 0 -33 3 -38 23 -38 35 0 49 14 50
51 2 31 -1 34 -28 37 -17 2 -34 0 -38 -4z"/>
<path d="M6414 4576 c-12 -31 1 -51 32 -54 27 -3 32 1 37 25 3 16 0 31 -6 35
-20 13 -57 9 -63 -6z"/>
<path d="M5892 4571 c-21 -13 -5 -81 18 -81 39 0 50 11 50 51 0 36 -2 39 -27
39 -16 0 -34 -4 -41 -9z"/>
<path d="M6516 4556 c-9 -35 -1 -46 34 -46 23 0 31 5 36 25 8 31 6 33 -33 41
-27 5 -31 3 -37 -20z"/>
<path d="M5813 4562 c-32 -3 -33 -5 -33 -48 0 -47 7 -51 58 -38 18 5 22 13 22
45 0 43 -3 46 -47 41z"/>
<path d="M6614 4535 c-8 -31 -8 -31 32 -39 29 -6 32 -4 37 21 6 31 -6 43 -40
43 -16 0 -25 -8 -29 -25z"/>
<path d="M5677 4544 c-10 -10 -9 -82 1 -88 5 -3 22 -2 38 3 26 7 29 12 29 47
0 36 -2 39 -30 42 -17 2 -34 0 -38 -4z"/>
<path d="M5600 4531 c-22 -6 -25 -13 -28 -59 -2 -29 0 -52 3 -52 3 0 21 7 40
14 33 14 35 18 35 60 0 48 -3 50 -50 37z"/>
<path d="M5493 4499 c-30 -9 -33 -13 -33 -47 0 -53 11 -67 46 -55 26 9 29 14
32 61 2 29 -1 52 -5 51 -4 0 -23 -5 -40 -10z"/>
<path d="M5363 4470 c-20 -8 -23 -17 -23 -59 0 -27 4 -52 10 -56 5 -3 25 1 45
9 35 15 36 17 33 63 -3 52 -19 62 -65 43z"/>
<path d="M5257 4433 c-15 -4 -17 -13 -15 -56 2 -43 6 -52 23 -55 38 -5 54 18
48 71 -6 48 -11 52 -56 40z"/>
<path d="M5160 4401 c-23 -6 -25 -11 -22 -57 5 -60 12 -68 45 -53 24 11 27 18
27 66 0 56 -2 57 -50 44z"/>
<path d="M5061 4364 l-34 -14 6 -56 c3 -31 8 -58 10 -61 3 -2 19 3 36 12 28
14 31 20 31 63 0 65 -7 73 -49 56z"/>
<path d="M4951 4324 l-34 -14 7 -56 c4 -31 9 -61 12 -65 7 -12 64 18 65 34 3
28 -3 102 -9 109 -4 4 -22 0 -41 -8z"/>
<path d="M4833 4278 c-28 -13 -30 -21 -25 -87 l4 -53 31 6 c56 11 67 36 51
115 -7 33 -22 38 -61 19z"/>
<path d="M4722 4230 c-42 -19 -42 -19 -42 -72 0 -77 10 -88 57 -62 35 20 38
26 41 73 4 75 -4 84 -56 61z"/>
<path d="M4615 4193 c-44 -11 -55 -33 -55 -105 0 -37 2 -68 5 -68 12 0 84 40
90 50 8 13 -4 130 -13 129 -4 -1 -16 -4 -27 -6z"/>
<path d="M4478 4119 c-38 -19 -38 -20 -38 -84 0 -35 4 -67 10 -70 5 -3 27 4
50 15 38 20 40 22 40 68 0 51 -9 92 -19 92 -3 -1 -23 -10 -43 -21z"/>
<path d="M4352 4066 c-19 -6 -37 -18 -42 -26 -10 -20 0 -140 12 -140 17 0 89
41 93 53 7 20 -9 120 -20 123 -5 1 -25 -3 -43 -10z"/>
<path d="M4225 4007 c-40 -23 -40 -23 -43 -91 -2 -38 1 -73 5 -77 5 -5 26 2
48 14 39 22 40 24 43 85 4 87 -3 97 -53 69z"/>
<path d="M4071 3942 l-34 -17 6 -83 c3 -46 7 -86 10 -88 7 -7 60 21 81 41 12
12 16 36 16 91 0 70 -1 74 -22 73 -13 0 -38 -8 -57 -17z"/>
<path d="M3943 3880 c-47 -21 -47 -20 -37 -119 8 -69 17 -74 72 -41 l33 20 -3
77 c-2 42 -7 78 -13 79 -5 2 -29 -5 -52 -16z"/>
<path d="M3781 3804 c-51 -23 -53 -25 -48 -56 3 -18 9 -54 13 -80 3 -27 10
-48 14 -48 4 0 30 10 59 21 46 20 51 25 51 53 0 63 -13 136 -24 135 -6 0 -35
-11 -65 -25z"/>
<path d="M3628 3724 c-38 -19 -68 -38 -68 -42 0 -22 24 -128 30 -135 4 -5 35
5 68 22 l60 30 -5 43 c-3 24 -8 59 -12 79 l-6 37 -67 -34z"/>
<path d="M3435 3640 c-22 -11 -43 -24 -48 -29 -5 -5 -4 -45 4 -95 15 -98 10
-96 101 -38 63 41 65 46 45 127 -16 59 -38 67 -102 35z"/>
<path d="M3260 3549 c-35 -17 -66 -31 -67 -33 -5 -5 22 -181 28 -181 2 0 33
15 67 33 59 32 62 35 62 70 0 55 -12 142 -19 141 -3 0 -35 -14 -71 -30z"/>
<path d="M3078 3463 c-31 -14 -59 -31 -61 -37 -5 -13 12 -179 19 -186 3 -2 31
9 62 25 42 22 58 36 60 55 5 34 -8 170 -16 169 -4 0 -33 -12 -64 -26z"/>
<path d="M2883 3372 l-73 -36 1 -71 c0 -38 3 -87 7 -107 l7 -37 79 45 79 46
-7 92 c-4 50 -10 94 -14 97 -4 4 -40 -9 -79 -29z"/>
<path d="M2687 3266 c-100 -42 -108 -50 -103 -104 3 -26 8 -73 11 -104 4 -32
8 -58 10 -58 6 0 107 60 138 82 25 18 27 24 27 91 0 73 -7 117 -19 117 -3 0
-32 -11 -64 -24z"/>
<path d="M2443 3144 c-59 -32 -83 -51 -83 -64 0 -36 22 -175 30 -183 3 -4 33
8 65 28 32 19 65 35 72 35 7 0 17 9 24 21 14 27 2 209 -15 209 -6 0 -48 -21
-93 -46z"/>
<path d="M2200 3022 c-91 -45 -95 -49 -98 -82 -6 -62 9 -181 23 -187 8 -2 59
21 114 52 l101 56 -1 52 c-1 63 -20 149 -34 153 -5 1 -53 -19 -105 -44z"/>
<path d="M1945 2892 c-103 -54 -103 -53 -90 -189 5 -55 10 -73 22 -73 29 0
164 63 178 83 24 34 16 216 -10 223 -5 2 -50 -18 -100 -44z"/>
<path d="M1703 2774 l-93 -45 1 -52 c0 -64 13 -184 20 -191 8 -8 153 70 174
93 16 19 17 32 11 123 -4 57 -10 106 -14 110 -4 3 -49 -14 -99 -38z"/>
<path d="M1442 2643 c-62 -30 -97 -54 -105 -70 -8 -17 -8 -53 0 -129 6 -58 14
-108 17 -111 6 -7 182 86 201 107 12 13 13 38 8 133 -4 75 -10 117 -17 117 -6
-1 -53 -22 -104 -47z"/>
<path d="M1155 2502 c-61 -32 -91 -54 -94 -67 -5 -27 20 -255 29 -255 3 0 52
27 108 60 l101 60 -6 83 c-9 122 -17 162 -33 164 -8 1 -55 -19 -105 -45z"/>
<path d="M6428 3968 c-28 -22 -31 -55 -9 -77 23 -23 43 -26 72 -11 22 12 27
68 7 88 -16 16 -50 15 -70 0z"/>
<path d="M6067 3886 c-54 -15 -87 -41 -87 -68 0 -29 26 -32 80 -9 63 27 92 27
127 -3 53 -44 69 -48 159 -41 70 6 88 5 102 -8 35 -32 69 -37 135 -21 85 21
115 33 121 51 17 43 -49 55 -138 27 -50 -16 -53 -16 -113 10 -49 20 -71 24
-107 20 -40 -6 -52 -3 -87 21 -48 34 -119 42 -192 21z"/>
<path d="M6097 3773 c-4 -3 -7 -19 -7 -35 0 -54 80 -62 88 -9 2 12 -2 29 -8
37 -13 14 -61 19 -73 7z"/>
<path d="M5753 3133 c-33 -13 4 -86 40 -81 18 2 22 9 20 33 -1 16 -10 36 -20
42 -18 14 -21 14 -40 6z"/>
<path d="M5664 3096 c-10 -25 0 -61 18 -64 20 -4 41 38 32 63 -8 19 -43 20
-50 1z"/>
<path d="M5797 3014 c-24 -24 13 -57 52 -47 35 9 24 47 -14 51 -17 2 -34 0
-38 -4z"/>
<path d="M5402 2970 c-48 -30 -42 -39 44 -75 56 -23 78 -17 82 21 6 59 -67 91
-126 54z"/>
<path d="M5348 2899 c-25 -14 -22 -42 8 -78 19 -24 34 -31 60 -31 32 0 34 2
34 33 0 53 -63 99 -102 76z"/>
<path d="M5485 2829 c-8 -12 2 -59 17 -76 6 -7 28 -13 49 -13 39 0 39 0 39 40
0 29 -5 42 -19 50 -25 13 -78 13 -86 -1z"/>
<path d="M5680 2803 c-50 -9 -64 -38 -33 -68 18 -19 73 -15 99 6 22 18 17 48
-12 59 -14 6 -26 9 -27 9 -1 -1 -13 -4 -27 -6z"/>
<path d="M5396 2628 c-20 -11 -21 -42 -1 -58 17 -14 113 -19 133 -7 15 10 16
53 0 63 -18 11 -113 13 -132 2z"/>
<path d="M5225 2577 c-50 -28 -58 -61 -20 -79 23 -10 33 -9 63 7 32 17 37 25
37 55 0 44 -24 49 -80 17z"/>
<path d="M6076 2324 c-11 -29 -6 -69 14 -94 18 -24 20 -24 37 -8 17 18 23 68
10 101 -8 21 -53 23 -61 1z"/>
<path d="M5974 2045 c-9 -37 36 -119 68 -123 37 -5 61 23 52 62 -8 39 -18 52
-57 71 -42 21 -56 19 -63 -10z"/>
<path d="M5726 2031 c-21 -23 -18 -54 6 -59 22 -4 83 51 74 66 -11 19 -61 14
-80 -7z"/>
<path d="M4553 2500 c-32 -13 -56 -55 -49 -84 12 -49 104 -52 143 -5 14 17 -5
62 -35 85 -20 15 -29 16 -59 4z"/>
<path d="M4390 2297 c-141 -51 -171 -77 -134 -118 21 -24 38 -21 136 22 36 16
75 29 86 29 11 0 40 -16 64 -35 134 -107 171 -111 321 -36 128 63 191 79 247
62 47 -14 60 -9 60 25 0 35 -32 62 -85 70 -71 10 -126 -2 -234 -51 -54 -25
-111 -45 -127 -45 -28 0 -40 6 -122 63 -57 40 -127 45 -212 14z"/>
<path d="M5011 2154 c-12 -15 -21 -34 -21 -44 0 -51 93 -68 135 -25 30 29 31
49 5 75 -31 31 -93 27 -119 -6z"/>
<path d="M4350 2119 c-30 -5 -85 -8 -122 -7 -74 1 -98 -10 -98 -47 0 -32 38
-40 183 -37 118 2 119 1 155 -28 20 -16 60 -35 89 -41 46 -11 62 -10 137 11
65 17 97 21 133 15 99 -15 131 -6 119 32 -16 50 -130 69 -232 38 -74 -22 -125
-19 -165 10 -19 13 -43 31 -54 39 -28 19 -80 25 -145 15z"/>
<path d="M4780 1940 c-39 -39 -16 -100 38 -100 32 0 45 8 60 36 15 29 5 59
-24 73 -35 16 -51 14 -74 -9z"/>
<path d="M4155 1904 c-38 -19 -64 -24 -110 -23 -33 1 -67 1 -76 0 -16 -1 -52
-65 -42 -75 13 -13 142 -5 213 14 104 27 122 26 149 -11 46 -62 107 -68 187
-19 39 25 41 24 164 -19 118 -42 170 -41 170 4 0 31 -15 39 -70 41 -32 0 -68
13 -124 42 -92 49 -116 51 -171 17 -49 -30 -67 -31 -91 -4 -27 30 -88 59 -121
58 -15 0 -50 -12 -78 -25z"/>
<path d="M5010 1618 c-27 -29 -22 -58 11 -77 24 -13 29 -13 53 2 36 24 37 73
0 87 -36 14 -41 13 -64 -12z"/>
<path d="M4710 1550 c-68 -24 -110 -25 -192 -4 -53 14 -73 15 -128 5 -123 -23
-181 -64 -129 -91 15 -9 31 -7 67 4 85 28 132 30 208 7 92 -27 117 -26 200 5
88 33 138 29 261 -21 92 -38 118 -40 130 -9 10 27 -29 50 -148 89 -125 40
-187 44 -269 15z"/>
<path d="M4225 1383 c-27 -7 -45 -23 -45 -40 0 -12 10 -14 58 -8 48 5 69 2
131 -21 l73 -27 92 22 c67 17 105 21 139 16 39 -6 48 -4 53 10 4 9 2 21 -4 27
-19 19 -107 22 -158 4 -64 -22 -139 -20 -193 4 -41 19 -101 24 -146 13z"/>
<path d="M6055 1384 c-11 -3 -43 -10 -72 -15 -28 -6 -72 -24 -98 -41 l-48 -32
-68 12 c-91 16 -124 15 -139 -3 -21 -25 -6 -46 50 -71 72 -31 135 -31 209 1
33 13 79 27 103 31 53 8 86 24 118 58 38 41 8 74 -55 60z"/>
<path d="M5501 1234 c-41 -53 -20 -101 52 -120 20 -4 32 0 51 20 34 33 33 61
-3 97 -37 37 -73 38 -100 3z"/>
<path d="M5660 1170 c-26 -26 -27 -90 -2 -113 43 -39 132 2 132 60 0 59 -88
95 -130 53z"/>
<path d="M3924 1032 c-17 -11 -34 -48 -34 -75 0 -38 50 -55 96 -34 32 16 39
30 34 67 -5 39 -63 64 -96 42z"/>
<path d="M4314 752 c-31 -21 -17 -101 21 -116 25 -9 84 20 97 50 11 24 10 29
-15 50 -28 24 -80 32 -103 16z"/>
<path d="M3791 2504 c-27 -34 -26 -49 1 -68 27 -19 62 -21 76 -3 22 28 23 56
3 76 -28 28 -55 26 -80 -5z"/>
<path d="M6255 2380 c-13 -40 5 -96 41 -131 41 -40 59 -30 59 35 0 75 -82 153
-100 96z"/>
<path d="M6407 2262 c-36 -40 -6 -76 56 -70 40 4 47 31 16 64 -27 29 -50 31
-72 6z"/>
<path d="M5546 1815 c-79 -15 -98 -33 -80 -79 8 -21 35 -20 111 5 l63 22 80
-32 c89 -35 134 -39 184 -14 38 18 49 34 39 59 -4 11 -13 14 -32 9 -81 -19
-117 -17 -168 9 -65 32 -110 37 -197 21z"/>
<path d="M5583 1688 c-27 -13 -33 -75 -8 -84 8 -4 53 0 100 7 l85 12 60 -31
c84 -44 125 -49 188 -22 53 23 66 23 171 -1 89 -20 241 11 241 50 0 39 -25 46
-105 26 l-75 -19 -57 24 c-70 29 -132 29 -193 1 -59 -27 -66 -27 -146 11 -57
27 -83 33 -154 35 -50 2 -94 -2 -107 -9z"/>
<path d="M4337 1113 c-13 -12 -7 -44 8 -49 24 -10 47 14 34 37 -10 19 -30 25
-42 12z"/>
</g>
</svg>
