<?xml version="1.0" encoding="UTF-8"?>
<svg width="2500px" height="500px" viewBox="0 0 2500 500" version="1.1" xmlns="http://www.w3.org/2000/svg" xmlns:xlink="http://www.w3.org/1999/xlink">
    <!-- Generator: Sketch 52.6 (67491) - http://www.bohemiancoding.com/sketch -->
    <title>Slice 1</title>
    <desc>Created with Sketch.</desc>
    <g id="Page-1" stroke="none" stroke-width="1" fill="none" fill-rule="evenodd">
        <g id="birdslice" fill="#417505">
            <path d="M1860.59366,218.379419 C1876.14067,215.008903 1888.95708,215.008903 1899.04288,218.379419 C1921.48558,225.879419 1932.70694,237.380721 1932.70694,252.883325 L1949.01553,285.574731 L1911.36319,278.785669 C1894.69019,282.555742 1882.94931,288.813555 1876.14053,297.559106 C1858.22647,320.568872 1862.51914,326.463701 1831.96866,337.957544 C1806.87992,347.396544 1776.14814,351.031961 1739.77334,348.863794 L1714.33584,342.246606 L1695.46084,348.863794 L1625.86709,378.133325 C1601.26769,402.897095 1582.40799,418.603475 1569.28799,425.252465 C1564.79471,427.529582 1566.04113,420.749309 1573.02725,404.911645 C1565.70684,410.495161 1561.32891,412.807335 1559.89346,411.848169 C1558.00209,410.584354 1559.05319,406.049197 1563.04678,398.2427 C1556.07854,399.648405 1552.19833,399.648405 1551.40616,398.2427 C1550.25822,396.205697 1552.19833,392.762989 1557.22647,387.914575 C1548.79554,389.753539 1543.88017,389.753539 1542.48038,387.914575 C1540.48629,385.29488 1542.00778,380.836221 1547.04483,374.538598 L1533.63272,370.145044 L1655.88467,318.717309 L1700.69131,278.785669 C1675.40792,265.544888 1656.35063,255.723274 1643.51944,249.320825 C1631.69522,243.420831 1647.27561,243.420831 1643.51944,241.71145 C1636.36509,238.455606 1619.1884,238.049122 1618.33584,236.139184 C1616.77769,232.648539 1636.33503,235.555341 1631.69522,232.914575 C1623.95098,228.506908 1608.17353,229.153797 1606.41202,226.920434 C1602.55192,222.026351 1623.17655,226.948862 1618.33584,223.283715 C1612.67012,218.993898 1602.91187,220.30735 1596.27725,215.344262 C1592.68383,212.656172 1610.87665,214.263231 1606.41202,211.703637 C1603.39817,209.97579 1591.0235,206.039592 1569.28799,199.895044 C1584.95907,182.035999 1601.30835,173.249541 1618.33584,173.535669 C1669.962,174.403187 1723.51278,182.039906 1778.98819,196.445825 C1801.2315,176.697222 1826.28294,163.313758 1854.14248,156.295434 C1855.02094,156.074134 1864.59481,152.598062 1865.48916,153.289087 C1867.18821,154.601864 1860.45824,160.375431 1864.05801,157.789087 C1869.55264,153.841333 1879.14266,151.029605 1883.19522,152.314965 C1885.22402,152.958446 1875.02676,164.02102 1877.93838,161.179223 C1880.85,158.337426 1895.3938,154.328711 1899.04288,155.265649 C1901.13481,155.802774 1888.06978,169.120966 1894.43432,163.098169 C1898.67735,159.08297 1904.3203,159.08297 1911.36319,163.098169 L1860.59366,218.379419 Z" id="1"></path>
            <path d="M2360.59366,210.729028 C2376.14068,207.358513 2388.95708,207.358513 2399.04288,210.729028 C2421.48559,218.229028 2432.70694,229.73033 2432.70694,245.232934 L2449.01554,277.92434 L2411.36319,271.135278 C2394.6902,274.905352 2382.94931,281.163164 2376.14054,289.908715 C2358.22647,312.918481 2362.51914,318.81331 2331.96866,330.307153 C2306.87992,339.746154 2276.14815,343.38157 2239.77335,341.213403 L2214.33585,334.596215 L2195.46085,341.213403 L2125.8671,370.482934 C2101.2677,395.246705 2082.408,410.953085 2069.288,417.602075 C2064.79472,419.879192 2066.04114,413.098918 2073.02726,397.261255 C2065.70685,402.84477 2061.32892,405.156945 2059.89347,404.197778 C2058.00209,402.933963 2059.0532,398.398807 2063.04679,390.592309 C2056.07854,391.998015 2052.19833,391.998015 2051.40616,390.592309 C2050.25823,388.555306 2052.19833,385.112598 2057.22647,380.264184 C2048.79554,382.103148 2043.88018,382.103148 2042.48038,380.264184 C2040.4863,377.644489 2042.00778,373.185831 2047.04483,366.888208 L2033.63272,362.494653 L2155.88468,311.066919 L2200.69132,271.135278 C2150.80851,226.265145 2121.36775,197.699219 2112.36905,185.4375 C2105.53615,176.126921 2129.5253,179.929688 2120.94718,175.447266 C2115.22843,172.458984 2110.22973,166.258464 2105.95108,156.845703 C2119.649,162.999333 2121.78832,162.999333 2112.36905,156.845703 C2098.24015,147.615258 2100.00166,131.891053 2098.24015,129.657691 C2094.38005,124.763607 2123.17655,139.06749 2118.33585,135.402344 C2112.67012,131.112527 2112.36905,120.958984 2112.36905,112.560547 C2112.36905,108.76329 2156.07978,132.217285 2151.61515,129.657691 C2147.09438,127.06592 2143.51944,108 2143.51944,108 C2143.51944,108 2196.27038,141.962507 2220.61319,147.615258 C2265.82022,158.11298 2291.1171,164.202986 2296.50382,165.885278 C2301.79939,154.354679 2306.52009,148.264673 2310.66593,147.615258 C2310.96036,147.569138 2321.95694,155.329432 2321.95694,150.138696 C2321.95694,145.073576 2323.42048,140.161458 2326.34757,135.402344 C2335.54017,131.623969 2341.33639,128.872667 2343.73624,127.148438 C2349.23087,123.200684 2351.44735,119.673624 2355.49991,120.958984 C2357.52871,121.602465 2357.68204,126.556641 2360.59366,123.714844 C2363.50528,120.873047 2365.96607,114.377515 2369.61515,115.314453 C2371.00977,115.672537 2373.1849,119.617198 2376.14054,127.148438 C2379.18457,120.155546 2382.84342,116.210884 2387.1171,115.314453 C2389.56033,114.80197 2392.79728,124.639184 2391.67765,127.148438 C2390.55802,129.657691 2405.64835,117.589297 2405.64835,120.958984 C2405.64835,130.40668 2397.4245,144.286318 2391.67765,152.783203 C2385.08,162.538012 2373.44893,166.429646 2369.61515,175.447266 C2362.44197,192.319645 2359.43481,204.080233 2360.59366,210.729028 Z" id="2"></path>
            <path d="M877.9454,141.527886 C893.492413,138.157371 906.308819,138.157371 916.394619,141.527886 C938.837327,149.027886 950.058681,160.529189 950.058681,176.031793 L966.367275,208.723199 L928.714931,201.934137 C912.041937,205.70421 900.301051,211.962023 893.492275,220.707574 C875.578212,243.71734 877.9454,243.91515 860.779384,256.75589 C854.436868,261.500299 794.883468,350.8448 778.459072,357.833038 C777.549362,358.220101 773.276455,352.277374 771.793056,345.848663 C771.374484,344.034669 756.922665,371.75463 752.592861,369.207062 C749.642938,367.471388 749.642938,359.895538 747.827236,350.194366 C747.395455,347.887393 734.44421,372.379994 730.639736,369.207062 C729.214963,368.018801 729.710969,354.298829 727.236415,351.813507 C725.790156,350.360954 707.027887,387.668784 704.358486,385.301788 C702.583712,383.728072 702.958363,374.445476 700.41708,369.207062 C700.172506,368.702915 688.518642,396.553741 680.091884,396.553741 C671.665126,396.553741 684.018775,370.352465 680.091884,373.222687 C669.548221,380.929203 659.207998,398.039891 655.415126,395.084015 C650.011806,390.873077 671.306348,360.966358 669.415126,360.583038 C664.749541,359.637401 664.656962,362.6516 661.615322,360.583038 C659.232147,358.962286 671.537744,347.269882 669.415126,345.848663 C666.228978,343.715348 663.474573,348.449591 661.615322,345.848663 C658.311752,341.227262 674.915239,333.226869 671.665126,328.060113 C669.489576,324.601606 665.741844,329.28065 663.932705,325.004913 C662.999453,322.799258 666.10069,316.655703 673.236415,306.574249 L681.449306,293.293512 L676.112392,288.209991 L643.218837,301.281793 C611.786755,329.797826 589.510714,347.380337 576.390712,354.029327 C571.897432,356.306444 571.897432,350.737759 576.390712,337.323273 C571.583974,339.597543 568.46288,340.255096 567.027431,339.295929 C565.136058,338.032114 566.518544,333.268442 571.174892,325.004913 C560.011334,327.382624 554.03347,327.868626 553.241298,326.462921 C552.093365,324.425918 555.0058,320.703913 561.978603,315.296905 C552.953271,317.135869 547.740706,317.135869 546.340908,315.296905 C544.346826,312.677211 546.646956,309.153448 553.241298,304.725616 C537.663964,307.804542 532.241764,307.804542 536.974697,304.725616 C577.245205,278.528351 644.517665,262.012726 667.72079,242.899444 C683.18954,230.157257 698.215908,216.502154 712.799892,201.934137 C725.391689,191.842649 745.056077,180.403676 771.793056,167.617218 C798.530035,154.83076 833.91415,146.134316 877.9454,141.527886 Z" id="3"></path>
            <path d="M1375.28117,160 C1399.60898,161.434399 1412.98398,162.794883 1415.40617,164.081454 C1442.24601,178.337712 1434.22843,187.845125 1442.24601,197.255281 C1447.59106,203.528719 1452.88403,214.334058 1458.12492,229.671297 L1425.43058,221.633789 C1409.97959,224.076003 1398.84971,229.669886 1392.04093,238.415438 C1374.12687,261.425203 1363.07999,264.457511 1345.91398,277.29825 C1328.74796,290.13899 1310.91389,366.295929 1304.56828,384.833038 C1298.22266,403.370147 1293.14738,373.868194 1291.66398,367.439483 C1291.24541,365.625489 1284.47034,403.475333 1280.14054,400.927765 C1277.19062,399.192091 1271.92117,385.910186 1270.10547,376.209015 C1269.67369,373.902041 1261.26728,408.783683 1257.46281,405.61075 C1256.03803,404.422489 1248.35338,387.31836 1245.87882,384.833038 C1244.43256,383.380485 1239.31996,421.731844 1230.83585,418.311922 C1222.35175,414.892 1222.35175,398.753462 1219.81046,393.515047 C1219.56589,393.010901 1211.53019,418.311922 1203.10343,418.311922 C1194.67667,418.311922 1207.03032,381.962816 1203.10343,384.833038 C1192.55977,392.539554 1199.63654,367.652564 1195.84367,364.696688 C1190.44035,360.48575 1190.29348,371.175311 1188.40226,370.791992 C1183.73667,369.846355 1191.4439,352.312124 1188.40226,350.243563 C1186.01908,348.622811 1191.29093,340.822189 1188.40226,330.922882 C1185.51359,321.023574 1192.56265,321.023574 1188.40226,316.907769 C1183.79419,312.349079 1182.8313,306.32299 1185.51359,298.8295 L1141.53125,316.907769 C1105.96088,344.805194 1085.77921,362.766601 1080.98624,370.791992 C1076.19328,378.817383 1074.0989,372.869802 1074.70313,352.949249 C1072.66136,355.175973 1070.92276,355.809752 1069.48731,354.850586 C1067.59593,353.586771 1067.59593,348.846872 1069.48731,340.63089 C1061.047,342.036595 1056.43076,342.036595 1055.63859,340.63089 C1054.49065,338.593887 1056.04147,335.357884 1060.29102,330.922882 C1053.4961,332.761846 1049.39874,332.761846 1047.99894,330.922882 C1046.00486,328.303187 1047.18978,324.779424 1051.55371,320.351593 C1035.97638,323.430518 1030.55418,323.430518 1035.28711,320.351593 C1075.55762,294.154327 1142.83008,277.638702 1166.03321,258.525421 C1181.50196,245.783233 1197.06052,232.5342 1212.7089,218.77832 C1224.2363,207.874695 1243.36849,196.029653 1270.10547,183.243194 C1296.84245,170.456736 1331.90102,162.709005 1375.28117,160 Z" id="6"></path>
            <path d="M348.691406,165.435459 C367.329516,163.035007 394.826379,156.883784 409.955078,161.939557 C432.397786,169.439557 445.203125,181.889544 448.371094,199.289517 L464.679687,231.980923 L427.027344,225.191861 C408.644714,228.087875 396.049011,233.908657 389.240234,242.654209 C371.326172,265.663974 372.683594,262.424797 355.517578,275.265537 C349.175062,280.009946 333.707599,282.447378 317.283203,289.435616 C316.373494,289.822678 280.875977,336.260684 279.392578,329.831973 C278.974006,328.017979 281.101288,332.379542 276.771484,329.831973 C273.821562,328.096299 278.587187,326.252408 276.771484,316.551236 C276.339704,314.244262 257.798615,341.125969 253.994141,337.953037 C252.569367,336.764776 251.814398,327.024839 249.339844,324.539517 C247.893584,323.086964 242.46823,340.320032 239.798828,337.953037 C238.024054,336.37932 232.668237,326.753951 230.126953,321.515537 C229.882379,321.01139 200.786133,347.17081 194.40625,354.902255 C188.026367,362.633701 192.452282,339.145315 188.525391,342.015537 C183.295146,345.838398 169.857163,363.049942 165.722656,364.251865 C161.522401,365.472902 166.659615,350.643642 165.722656,349.33292 C162.419086,344.711519 151.019531,368.527255 144.287109,361.714755 C137.554687,354.902255 159.139217,340.79225 157.330078,336.516513 C155.930201,333.20803 148.771327,338.93044 149.454102,336.516513 C150.637265,332.33348 154.900937,326.541162 162.245117,319.13956 L152.09082,321.515537 L154.425781,312.304599 C112.436198,333.867461 85.2708333,354.789672 72.9296875,375.071231 C71.0628493,378.139211 71.0628493,372.53536 72.9296875,358.259677 C66.383366,359.218844 62.3924806,359.218844 60.9570312,358.259677 C59.0656577,356.995862 61.4510743,352.458934 68.1132812,344.648892 C59.2843589,346.054597 54.473812,346.054597 53.6816406,344.648892 C52.5337078,342.611889 54.958838,339.169181 60.9570312,334.320767 C49.5052672,336.159731 43.0794859,336.159731 41.6796875,334.320767 C39.6856057,331.701072 43.6862567,328.440655 53.6816406,324.539517 L34,324.539517 L162.245117,263.677646 L202.670898,225.191861 C207.046549,216.231863 222.602865,205.358636 249.339844,192.572177 C255.890214,189.439586 269.900774,186.343741 276.771484,182.550693 C303.425781,167.83591 330.053296,167.83591 348.691406,165.435459 Z" id="4"></path>
        </g>
    </g>
</svg>