<?xml version="1.0" encoding="UTF-8"?>
<svg width="5396px" height="346px" viewBox="0 0 5396 346" version="1.1" xmlns="http://www.w3.org/2000/svg" xmlns:xlink="http://www.w3.org/1999/xlink">
    <!-- Generator: Sketch 52.6 (67491) - http://www.bohemiancoding.com/sketch -->
    <title>v1</title>
    <desc>Created with Sketch.</desc>
    <g id="Bird-sequence" stroke="none" stroke-width="1" fill="none" fill-rule="evenodd">
        <path d="M2552.80765,102.379419 C2568.35466,99.0089032 2581.17107,99.0089032 2591.25687,102.379419 C2613.69957,109.879419 2624.92093,121.380721 2624.92093,136.883325 L2641.22952,169.574731 L2603.57718,162.785669 C2586.90418,166.555742 2575.1633,172.813555 2568.35452,181.559106 C2550.44046,204.568872 2554.73313,210.463701 2524.18265,221.957544 C2499.09391,231.396544 2468.36213,235.031961 2431.98733,232.863794 L2406.54983,226.246606 L2387.67483,232.863794 L2318.08108,262.133325 C2293.48168,286.897095 2274.62198,302.603475 2261.50198,309.252465 C2257.0087,311.529582 2258.25512,304.749309 2265.24124,288.911645 C2257.92083,294.495161 2253.5429,296.807335 2252.10745,295.848169 C2250.21608,294.584354 2251.26718,290.049197 2255.26077,282.2427 C2248.29253,283.648405 2244.41232,283.648405 2243.62015,282.2427 C2242.47221,280.205697 2244.41232,276.762989 2249.44046,271.914575 C2241.00953,273.753539 2236.09416,273.753539 2234.69437,271.914575 C2232.70028,269.29488 2234.22177,264.836221 2239.25882,258.538598 L2225.84671,254.145044 L2348.09866,202.717309 L2392.9053,162.785669 C2367.62191,149.544888 2348.56462,139.723274 2335.73343,133.320825 C2323.90921,127.420831 2339.4896,127.420831 2335.73343,125.71145 C2328.57908,122.455606 2311.40239,122.049122 2310.54983,120.139184 C2308.99168,116.648539 2328.54902,119.555341 2323.90921,116.914575 C2316.16497,112.506908 2300.38752,113.153797 2298.62601,110.920434 C2294.76591,106.026351 2315.39054,110.948862 2310.54983,107.283715 C2304.88411,102.993898 2295.12586,104.30735 2288.49124,99.3442623 C2284.89782,96.6561718 2303.09064,98.2632313 2298.62601,95.7036373 C2295.61216,93.9757899 2283.23749,90.039592 2261.50198,83.8950436 C2277.17306,66.0359995 2293.52234,57.2495411 2310.54983,57.5356686 C2362.17599,58.403187 2415.72677,66.0399057 2471.20218,80.4458248 C2493.44549,60.697222 2518.49693,47.3137584 2546.35647,40.2954342 C2547.23493,40.0741343 2556.8088,36.5980621 2557.70315,37.2890866 C2559.4022,38.6018644 2552.67223,44.3754314 2556.272,41.7890866 C2561.76663,37.8413327 2571.35665,35.0296054 2575.40921,36.3149655 C2577.43801,36.9584457 2567.24075,48.0210202 2570.15237,45.1792233 C2573.06399,42.3374264 2587.60779,38.3287114 2591.25687,39.2656491 C2593.3488,39.8027741 2580.28377,53.1209659 2586.64831,47.0981686 C2590.89134,43.0829704 2596.53429,43.0829704 2603.57718,47.0981686 L2552.80765,102.379419 Z" id="1" fill="#417505"></path>
        <path d="M3639.96094,102.379419 C3655.50795,99.0089032 3668.32436,99.0089032 3678.41016,102.379419 C3700.85286,109.879419 3712.07422,121.380721 3712.07422,136.883325 L3728.38281,169.574731 L3690.73047,162.785669 C3674.05747,166.555742 3662.31659,172.813555 3655.50781,181.559106 C3637.59375,204.568872 3641.88642,210.463701 3611.33594,221.957544 C3586.2472,231.396544 3555.51543,235.031961 3519.14063,232.863794 L3493.70313,226.246606 L3474.82813,232.863794 L3405.23438,262.133325 C3380.63498,286.897095 3361.77527,302.603475 3348.65527,309.252465 C3344.16199,311.529582 3345.40841,304.749309 3352.39453,288.911645 C3345.07412,294.495161 3340.69619,296.807335 3339.26074,295.848169 C3337.36937,294.584354 3338.42048,290.049197 3342.41406,282.2427 C3335.44582,283.648405 3331.56561,283.648405 3330.77344,282.2427 C3329.6255,280.205697 3331.56561,276.762989 3336.59375,271.914575 C3328.16282,273.753539 3323.24745,273.753539 3321.84766,271.914575 C3319.85357,269.29488 3321.37506,264.836221 3326.41211,258.538598 L3313,254.145044 L3435.25195,202.717309 L3480.05859,162.785669 C3454.7752,149.544888 3435.71791,139.723274 3422.88672,133.320825 C3411.0625,127.420831 3426.64289,127.420831 3422.88672,125.71145 C3415.73237,122.455606 3398.55568,122.049122 3397.70313,120.139184 C3396.14498,116.648539 3415.70231,119.555341 3411.0625,116.914575 C3403.31826,112.506908 3387.54081,113.153797 3385.7793,110.920434 C3381.9192,106.026351 3402.54383,110.948862 3397.70313,107.283715 C3392.0374,102.993898 3382.27915,104.30735 3375.64453,99.3442623 C3372.05111,96.6561718 3390.24393,98.2632313 3385.7793,95.7036373 C3382.76546,93.9757899 3370.39078,90.039592 3348.65527,83.8950436 C3364.32635,66.0359995 3380.67564,57.2495411 3397.70313,57.5356686 C3449.32928,58.403187 3502.88006,66.0399057 3558.35547,80.4458248 C3580.59878,60.697222 3605.65022,47.3137584 3633.50977,40.2954342 C3634.38823,40.0741343 3643.9621,36.5980621 3644.85645,37.2890866 C3646.55549,38.6018644 3639.82552,44.3754314 3643.42529,41.7890866 C3648.91992,37.8413327 3658.50994,35.0296054 3662.5625,36.3149655 C3664.5913,36.9584457 3654.39404,48.0210202 3657.30566,45.1792233 C3660.21729,42.3374264 3674.76108,38.3287114 3678.41016,39.2656491 C3680.50209,39.8027741 3667.43706,53.1209659 3673.8016,47.0981686 C3678.04463,43.0829704 3683.68758,43.0829704 3690.73047,47.0981686 L3639.96094,102.379419 Z" id="1" fill="#417505"></path>
        <path d="M3096.38429,102.729028 C3111.93131,99.3585126 3124.74771,99.3585126 3134.83351,102.729028 C3157.27622,110.229028 3168.49757,121.73033 3168.49757,137.232934 L3184.80617,169.92434 L3147.15382,163.135278 C3130.48083,166.905352 3118.73994,173.163164 3111.93117,181.908715 C3094.0171,204.918481 3098.30977,210.81331 3067.75929,222.307153 C3042.67055,231.746154 3011.93878,235.38157 2975.56398,233.213403 L2950.12648,226.596215 L2931.25148,233.213403 L2861.65773,262.482934 C2837.05833,287.246705 2818.19863,302.953085 2805.07863,309.602075 C2800.58535,311.879192 2801.83177,305.098918 2808.81789,289.261255 C2801.49748,294.84477 2797.11955,297.156945 2795.6841,296.197778 C2793.79272,294.933963 2794.84383,290.398807 2798.83742,282.592309 C2791.86917,283.998015 2787.98896,283.998015 2787.19679,282.592309 C2786.04886,280.555306 2787.98896,277.112598 2793.0171,272.264184 C2784.58617,274.103148 2779.67081,274.103148 2778.27101,272.264184 C2776.27693,269.644489 2777.79841,265.185831 2782.83546,258.888208 L2769.42335,254.494653 L2891.67531,203.066919 L2936.48195,163.135278 C2886.59914,118.265145 2857.15838,89.6992187 2848.15968,77.4375 C2841.32678,68.1269214 2865.31593,71.9296875 2856.73781,67.4472656 C2851.01906,64.4589844 2846.02036,58.2584635 2841.74171,48.8457031 C2855.43963,54.9993329 2857.57895,54.9993329 2848.15968,48.8457031 C2834.03078,39.6152584 2835.79229,23.8910533 2834.03078,21.6576908 C2830.17068,16.7636073 2858.96718,31.0674904 2854.12648,27.4023438 C2848.46075,23.1125265 2848.15968,12.9589844 2848.15968,4.56054687 C2848.15968,0.76328959 2891.87041,24.2172847 2887.40578,21.6576908 C2882.88501,19.0659196 2879.31007,0 2879.31007,0 C2879.31007,0 2932.06101,33.9625069 2956.40382,39.6152584 C3001.61085,50.1129798 3026.90773,56.2029863 3032.29445,57.885278 C3037.59002,46.354679 3042.31072,40.2646725 3046.45656,39.6152584 C3046.75099,39.5691384 3057.74757,47.3294322 3057.74757,42.1386959 C3057.74757,37.0735757 3059.21111,32.1614583 3062.1382,27.4023438 C3071.3308,23.6239695 3077.12702,20.8726674 3079.52687,19.1484375 C3085.0215,15.2006836 3087.23798,11.6736243 3091.29054,12.9589844 C3093.31934,13.6024646 3093.47267,18.5566406 3096.38429,15.7148438 C3099.29591,12.8730469 3101.7567,6.37751549 3105.40578,7.31445313 C3106.8004,7.67253651 3108.97553,11.617198 3111.93117,19.1484375 C3114.9752,12.1555456 3118.63405,8.21088417 3122.90773,7.31445313 C3125.35096,6.80196977 3128.58791,16.6391842 3127.46828,19.1484375 C3126.34865,21.6576908 3141.43898,9.58929707 3141.43898,12.9589844 C3141.43898,22.4066799 3133.21513,36.2863176 3127.46828,44.7832031 C3120.87063,54.5380122 3109.23956,58.4296458 3105.40578,67.4472656 C3098.2326,84.3196454 3095.22544,96.0802329 3096.38429,102.729028 Z" id="2" fill="#417505"></path>
        <path d="M901.498608,85.5278865 C917.045621,82.1573712 929.862027,82.1573712 939.947827,85.5278865 C962.390535,93.0278865 973.611889,104.529189 973.611889,120.031793 L989.920483,152.723199 L952.268139,145.934137 C935.595145,149.70421 923.854259,155.962023 917.045483,164.707574 C899.13142,187.71734 901.498608,187.91515 884.332592,200.75589 C877.990076,205.500299 818.436676,294.8448 802.01228,301.833038 C801.10257,302.220101 796.829663,296.277374 795.346264,289.848663 C794.927692,288.034669 780.475873,315.75463 776.146069,313.207062 C773.196146,311.471388 773.196146,303.895538 771.380444,294.194366 C770.948663,291.887393 757.997418,316.379994 754.192944,313.207062 C752.768171,312.018801 753.264177,298.298829 750.789623,295.813507 C749.343364,294.360954 730.581095,331.668784 727.911694,329.301788 C726.13692,327.728072 726.511571,318.445476 723.970288,313.207062 C723.725714,312.702915 712.07185,340.553741 703.645092,340.553741 C695.218334,340.553741 707.571983,314.352465 703.645092,317.222687 C693.101429,324.929203 682.761206,342.039891 678.968334,339.084015 C673.565014,334.873077 694.859556,304.966358 692.968334,304.583038 C688.302749,303.637401 688.21017,306.6516 685.16853,304.583038 C682.785355,302.962286 695.090952,291.269882 692.968334,289.848663 C689.782186,287.715348 687.027781,292.449591 685.16853,289.848663 C681.86496,285.227262 698.468447,277.226869 695.218334,272.060113 C693.042784,268.601606 689.295052,273.28065 687.485913,269.004913 C686.552661,266.799258 689.653898,260.655703 696.789623,250.574249 L705.002514,237.293512 L699.6656,232.209991 L666.772045,245.281793 C635.339963,273.797826 613.063922,291.380337 599.94392,298.029327 C595.45064,300.306444 595.45064,294.737759 599.94392,281.323273 C595.137182,283.597543 592.016088,284.255096 590.580639,283.295929 C588.689266,282.032114 590.071752,277.268442 594.7281,269.004913 C583.564542,271.382624 577.586678,271.868626 576.794506,270.462921 C575.646573,268.425918 578.559008,264.703913 585.531811,259.296905 C576.506479,261.135869 571.293914,261.135869 569.894116,259.296905 C567.900034,256.677211 570.200164,253.153448 576.794506,248.725616 C561.217172,251.804542 555.794972,251.804542 560.527905,248.725616 C600.798413,222.528351 668.070873,206.012726 691.273998,186.899444 C706.742748,174.157257 721.769116,160.502154 736.3531,145.934137 C748.944897,135.842649 768.609285,124.403676 795.346264,111.617218 C822.083243,98.8307596 857.467358,90.1343158 901.498608,85.5278865 Z" id="3" fill="#417505"></path>
        <path d="M5306.93413,90.5278865 C5322.48114,87.1573712 5335.29755,87.1573712 5345.38334,90.5278865 C5367.82605,98.0278865 5379.04741,109.529189 5379.04741,125.031793 L5395.356,157.723199 L5357.70366,150.934137 C5341.03066,154.70421 5329.28978,160.962023 5322.481,169.707574 C5304.56694,192.71734 5306.93413,192.91515 5289.76811,205.75589 C5283.42559,210.500299 5223.87219,299.8448 5207.4478,306.833038 C5206.53809,307.220101 5202.26518,301.277374 5200.78178,294.848663 C5200.36321,293.034669 5185.91139,320.75463 5181.58159,318.207062 C5178.63166,316.471388 5178.63166,308.895538 5176.81596,299.194366 C5176.38418,296.887393 5163.43294,321.379994 5159.62846,318.207062 C5158.20369,317.018801 5158.6997,303.298829 5156.22514,300.813507 C5154.77888,299.360954 5136.01661,336.668784 5133.34721,334.301788 C5131.57244,332.728072 5131.94709,323.445476 5129.40581,318.207062 C5129.16123,317.702915 5117.50737,345.553741 5109.08061,345.553741 C5100.65385,345.553741 5113.0075,319.352465 5109.08061,322.222687 C5098.53695,329.929203 5088.19672,347.039891 5084.40385,344.084015 C5079.00053,339.873077 5100.29507,309.966358 5098.40385,309.583038 C5093.73827,308.637401 5093.64569,311.6516 5090.60405,309.583038 C5088.22087,307.962286 5100.52647,296.269882 5098.40385,294.848663 C5095.2177,292.715348 5092.4633,297.449591 5090.60405,294.848663 C5087.30048,290.227262 5103.90396,282.226869 5100.65385,277.060113 C5098.4783,273.601606 5094.73057,278.28065 5092.92143,274.004913 C5091.98818,271.799258 5095.08942,265.655703 5102.22514,255.574249 L5110.43803,242.293512 L5105.10112,237.209991 L5072.20756,250.281793 C5040.77548,278.797826 5018.49944,296.380337 5005.37944,303.029327 C5000.88616,305.306444 5000.88616,299.737759 5005.37944,286.323273 C5000.5727,288.597543 4997.45161,289.255096 4996.01616,288.295929 C4994.12478,287.032114 4995.50727,282.268442 5000.16362,274.004913 C4989.00006,276.382624 4983.0222,276.868626 4982.23002,275.462921 C4981.08209,273.425918 4983.99453,269.703913 4990.96733,264.296905 C4981.942,266.135869 4976.72943,266.135869 4975.32963,264.296905 C4973.33555,261.677211 4975.63568,258.153448 4982.23002,253.725616 C4966.65269,256.804542 4961.23049,256.804542 4965.96342,253.725616 C5006.23393,227.528351 5073.50639,211.012726 5096.70952,191.899444 C5112.17827,179.157257 5127.20463,165.502154 5141.78862,150.934137 C5154.38041,140.842649 5174.0448,129.403676 5200.78178,116.617218 C5227.51876,103.83076 5262.90288,95.1343158 5306.93413,90.5278865 Z" id="3" fill="#417505"></path>
        <path d="M1460.7394,85.6720188 C1471.1236,84.1989281 1481.35859,85.1476404 1491.44439,88.5181558 C1496.09028,90.0707384 1506.22803,93.8853283 1509.91217,95.7808511 C1519.32062,100.621587 1525.59959,109.900233 1528.74908,123.616789 L1544.96686,155.608976 L1509.91217,150.151945 C1494.30368,151.206234 1483.09505,156.106155 1476.28628,164.851706 C1458.37222,187.861472 1460.7394,188.059283 1443.57339,200.900022 C1437.23087,205.644431 1367.59869,283.440061 1361.25308,301.977171 C1361.02893,302.631962 1356.07046,296.421506 1354.58706,289.992796 C1354.16849,288.178801 1339.71667,315.898762 1335.38686,313.351194 C1332.43694,311.61552 1332.43694,304.039671 1330.62124,294.338499 C1330.18946,292.031525 1317.23821,316.524126 1313.43374,313.351194 C1312.00897,312.162933 1312.50497,298.442961 1310.03042,295.957639 C1308.58416,294.505087 1289.82189,331.812916 1287.15249,329.445921 C1285.37771,327.872204 1285.75237,318.589609 1283.21108,313.351194 C1282.96651,312.847048 1271.31265,340.697874 1262.88589,340.697874 C1254.45913,340.697874 1266.81278,314.496597 1262.88589,317.366819 C1252.34222,325.073335 1242.002,342.184023 1238.20913,339.228147 C1232.80581,335.01721 1254.10035,305.11049 1252.20913,304.727171 C1247.54354,303.781533 1247.45097,306.795732 1244.40933,304.727171 C1242.02615,303.106419 1254.33175,291.414014 1252.20913,289.992796 C1249.02298,287.85948 1246.26858,292.593723 1244.40933,289.992796 C1241.10576,285.371395 1257.70924,277.371001 1254.45913,272.204245 C1252.28358,268.745738 1248.53585,273.424783 1246.72671,269.149046 C1245.79346,266.94339 1248.89469,260.799835 1256.03042,250.718381 L1264.24331,237.437644 L1258.9064,232.354124 L1226.01284,245.425925 C1190.44247,273.32335 1170.2608,291.284757 1165.46783,299.310148 C1160.67486,307.335539 1158.58049,301.387958 1159.18472,281.467405 C1157.14295,283.694129 1155.40434,284.327908 1153.9689,283.368742 C1152.07752,282.104927 1152.07752,277.365028 1153.9689,269.149046 C1145.52859,270.554751 1140.91235,270.554751 1140.12018,269.149046 C1138.97224,267.112043 1140.52305,263.87604 1144.77261,259.441038 C1137.97769,261.280002 1133.88033,261.280002 1132.48053,259.441038 C1130.48645,256.821343 1131.67137,253.29758 1136.0353,248.869749 C1120.45797,251.948674 1115.03577,251.948674 1119.7687,248.869749 C1160.03921,222.672483 1227.31167,206.156858 1250.51479,187.043577 C1265.98354,174.301389 1281.54211,161.052356 1297.19049,147.296476 C1308.71789,136.392851 1327.85008,124.547809 1354.58706,111.76135 C1381.32404,98.9748919 1416.70815,90.2784481 1460.7394,85.6720188 Z" id="5" fill="#417505"></path>
        <path d="M4751.88775,88.6720188 C4762.27195,87.1989281 4772.50695,88.1476404 4782.59274,91.5181558 C4787.23863,93.0707384 4797.37638,96.8853283 4801.06052,98.7808511 C4810.46897,103.621587 4816.74794,112.900233 4819.89743,126.616789 L4836.11521,158.608976 L4801.06052,153.151945 C4785.45203,154.206234 4774.24341,159.106155 4767.43463,167.851706 C4749.52057,190.861472 4751.88775,191.059283 4734.72174,203.900022 C4728.37922,208.644431 4658.74704,286.440061 4652.40143,304.977171 C4652.17728,305.631962 4647.21881,299.421506 4645.73541,292.992796 C4645.31684,291.178801 4630.86502,318.898762 4626.53521,316.351194 C4623.58529,314.61552 4623.58529,307.039671 4621.76959,297.338499 C4621.33781,295.031525 4608.38656,319.524126 4604.58209,316.351194 C4603.15732,315.162933 4603.65332,301.442961 4601.17877,298.957639 C4599.73251,297.505087 4580.97024,334.812916 4578.30084,332.445921 C4576.52607,330.872204 4576.90072,321.589609 4574.35943,316.351194 C4574.11486,315.847048 4562.461,343.697874 4554.03424,343.697874 C4545.60748,343.697874 4557.96113,317.496597 4554.03424,320.366819 C4543.49057,328.073335 4533.15035,345.184023 4529.35748,342.228147 C4523.95416,338.01721 4545.2487,308.11049 4543.35748,307.727171 C4538.6919,306.781533 4538.59932,309.795732 4535.55768,307.727171 C4533.1745,306.106419 4545.4801,294.414014 4543.35748,292.992796 C4540.17133,290.85948 4537.41693,295.593723 4535.55768,292.992796 C4532.25411,288.371395 4548.85759,280.371001 4545.60748,275.204245 C4543.43193,271.745738 4539.6842,276.424783 4537.87506,272.149046 C4536.94181,269.94339 4540.04304,263.799835 4547.17877,253.718381 L4555.39166,240.437644 L4550.05475,235.354124 L4517.16119,248.425925 C4481.59082,276.32335 4461.40915,294.284757 4456.61618,302.310148 C4451.82321,310.335539 4449.72884,304.387958 4450.33307,284.467405 C4448.2913,286.694129 4446.55269,287.327908 4445.11725,286.368742 C4443.22587,285.104927 4443.22587,280.365028 4445.11725,272.149046 C4436.67694,273.554751 4432.0607,273.554751 4431.26853,272.149046 C4430.12059,270.112043 4431.6714,266.87604 4435.92096,262.441038 C4429.12604,264.280002 4425.02868,264.280002 4423.62888,262.441038 C4421.6348,259.821343 4422.81972,256.29758 4427.18365,251.869749 C4411.60632,254.948674 4406.18412,254.948674 4410.91705,251.869749 C4451.18756,225.672483 4518.46002,209.156858 4541.66314,190.043577 C4557.13189,177.301389 4572.69046,164.052356 4588.33884,150.296476 C4599.86624,139.392851 4618.99843,127.547809 4645.73541,114.76135 C4672.47239,101.974892 4707.8565,93.2784481 4751.88775,88.6720188 Z" id="5" fill="#417505"></path>
        <path d="M2014.80913,64.5181558 C2039.13694,65.9525547 2052.51194,67.3130393 2054.93413,68.5996094 C2081.77397,82.8558677 2073.75639,92.3632812 2081.77397,101.773437 C2087.11902,108.046875 2092.41199,118.852214 2097.65288,134.189453 L2064.95854,126.151945 C2049.50755,128.594159 2038.37767,134.188042 2031.56889,142.933594 C2013.65483,165.943359 2002.60795,168.975667 1985.44194,181.816406 C1968.27592,194.657146 1950.44185,270.814085 1944.09624,289.351194 C1937.75062,307.888303 1932.67534,278.38635 1931.19194,271.957639 C1930.77337,270.143645 1923.9983,307.993489 1919.6685,305.445921 C1916.71858,303.710247 1911.44913,290.428342 1909.63343,280.727171 C1909.20165,278.420197 1900.79524,313.301839 1896.99077,310.128906 C1895.56599,308.940645 1887.88134,291.836516 1885.40678,289.351194 C1883.96052,287.898641 1878.84792,326.25 1870.36381,322.830078 C1861.87971,319.410156 1861.87971,303.271618 1859.33842,298.033203 C1859.09385,297.529057 1851.05815,322.830078 1842.63139,322.830078 C1834.20463,322.830078 1846.55828,286.480972 1842.63139,289.351194 C1832.08773,297.05771 1839.1645,272.17072 1835.37163,269.214844 C1829.96831,265.003906 1829.82144,275.693467 1827.93022,275.310148 C1823.26463,274.364511 1830.97186,256.83028 1827.93022,254.761719 C1825.54704,253.140967 1830.81889,245.340345 1827.93022,235.441038 C1825.04155,225.54173 1832.09061,225.54173 1827.93022,221.425925 C1823.32215,216.867235 1822.35926,210.841146 1825.04155,203.347656 L1781.05921,221.425925 C1745.48884,249.32335 1725.30717,267.284757 1720.5142,275.310148 C1715.72124,283.335539 1713.62686,277.387958 1714.23109,257.467405 C1712.18932,259.694129 1710.45072,260.327908 1709.01527,259.368742 C1707.12389,258.104927 1707.12389,253.365028 1709.01527,245.149046 C1700.57496,246.554751 1695.95872,246.554751 1695.16655,245.149046 C1694.01861,243.112043 1695.56943,239.87604 1699.81898,235.441038 C1693.02406,237.280002 1688.9267,237.280002 1687.5269,235.441038 C1685.53282,232.821343 1686.71774,229.29758 1691.08167,224.869749 C1675.50434,227.948674 1670.08214,227.948674 1674.81507,224.869749 C1715.08558,198.672483 1782.35804,182.156858 1805.56117,163.043577 C1821.02992,150.301389 1836.58848,137.052356 1852.23686,123.296476 C1863.76426,112.392851 1882.89645,100.547809 1909.63343,87.7613502 C1936.37041,74.9748919 1971.42898,67.2271604 2014.80913,64.5181558 Z" id="6" fill="#417505"></path>
        <path d="M4198.22508,85 C4222.55289,86.434399 4235.92789,87.7948835 4238.35008,89.0814536 C4265.18993,103.337712 4257.17235,112.845125 4265.18993,122.255282 C4270.53498,128.528719 4275.82795,139.334058 4281.06883,154.671297 L4248.3745,146.633789 C4232.92351,149.076004 4221.79363,154.669887 4214.98485,163.415438 C4197.07079,186.425204 4186.02391,189.457511 4168.8579,202.29825 C4151.69188,215.13899 4133.85781,291.295929 4127.51219,309.833038 C4121.16658,328.370148 4116.09129,298.868194 4114.6079,292.439484 C4114.18932,290.625489 4107.41426,328.475333 4103.08446,325.927765 C4100.13454,324.192091 4094.86509,310.910187 4093.04939,301.209015 C4092.61761,298.902041 4084.2112,333.783683 4080.40672,330.61075 C4078.98195,329.422489 4071.29729,312.31836 4068.82274,309.833038 C4067.37648,308.380486 4062.26388,346.731844 4053.77977,343.311922 C4045.29566,339.892 4045.29566,323.753462 4042.75438,318.515047 C4042.50981,318.010901 4034.47411,343.311922 4026.04735,343.311922 C4017.62059,343.311922 4029.97424,306.962817 4026.04735,309.833038 C4015.50369,317.539554 4022.58045,292.652564 4018.78758,289.696688 C4013.38426,285.48575 4013.2374,296.175312 4011.34618,295.791992 C4006.68059,294.846355 4014.38782,277.312125 4011.34618,275.243563 C4008.963,273.622811 4014.23485,265.822189 4011.34618,255.922882 C4008.4575,246.023575 4015.50657,246.023575 4011.34618,241.907769 C4006.7381,237.34908 4005.77521,231.32299 4008.4575,223.8295 L3964.47517,241.907769 C3928.9048,269.805194 3908.72313,287.766602 3903.93016,295.791992 C3899.13719,303.817383 3897.04282,297.869802 3897.64705,277.949249 C3895.60528,280.175974 3893.86667,280.809753 3892.43123,279.850586 C3890.53985,278.586771 3890.53985,273.846872 3892.43123,265.63089 C3883.99092,267.036595 3879.37468,267.036595 3878.5825,265.63089 C3877.43457,263.593887 3878.98538,260.357884 3883.23494,255.922882 C3876.44001,257.761846 3872.34265,257.761846 3870.94286,255.922882 C3868.94877,253.303187 3870.1337,249.779424 3874.49763,245.351593 C3858.9203,248.430519 3853.4981,248.430519 3858.23103,245.351593 C3898.50154,219.154327 3965.774,202.638702 3988.97712,183.525421 C4004.44587,170.783234 4020.00444,157.5342 4035.65282,143.77832 C4047.18022,132.874695 4066.31241,121.029653 4093.04939,108.243194 C4119.78637,95.4567362 4154.84493,87.7090047 4198.22508,85 Z" id="6" fill="#417505"></path>
        <path d="M314.691406,70.4354586 C333.329516,68.0350073 360.826379,61.8837837 375.955078,66.9395568 C398.397786,74.4395568 411.203125,86.8895435 414.371094,104.289517 L430.679687,136.980923 L393.027344,130.191861 C374.644714,133.087875 362.049011,138.908657 355.240234,147.654209 C337.326172,170.663974 338.683594,167.424797 321.517578,180.265537 C315.175062,185.009946 299.707599,187.447378 283.283203,194.435616 C282.373494,194.822678 246.875977,241.260684 245.392578,234.831973 C244.974006,233.017979 247.101288,237.379542 242.771484,234.831973 C239.821562,233.096299 244.587187,231.252408 242.771484,221.551236 C242.339704,219.244262 223.798615,246.125969 219.994141,242.953037 C218.569367,241.764776 217.814398,232.024839 215.339844,229.539517 C213.893584,228.086964 208.46823,245.320032 205.798828,242.953037 C204.024054,241.37932 198.668237,231.753951 196.126953,226.515537 C195.882379,226.01139 166.786133,252.17081 160.40625,259.902255 C154.026367,267.633701 158.452282,244.145315 154.525391,247.015537 C149.295146,250.838398 135.857163,268.049942 131.722656,269.251865 C127.522401,270.472902 132.659615,255.643642 131.722656,254.33292 C128.419086,249.711519 117.019531,273.527255 110.287109,266.714755 C103.554687,259.902255 125.139217,245.79225 123.330078,241.516513 C121.930201,238.20803 114.771327,243.93044 115.454102,241.516513 C116.637265,237.33348 120.900937,231.541162 128.245117,224.13956 L118.09082,226.515537 L120.425781,217.304599 C78.4361979,238.867461 51.2708333,259.789672 38.9296875,280.071231 C37.0628493,283.139211 37.0628493,277.53536 38.9296875,263.259677 C32.383366,264.218844 28.3924806,264.218844 26.9570312,263.259677 C25.0656577,261.995862 27.4510743,257.458934 34.1132812,249.648892 C25.2843589,251.054597 20.473812,251.054597 19.6816406,249.648892 C18.5337078,247.611889 20.958838,244.169181 26.9570312,239.320767 C15.5052672,241.159731 9.07948592,241.159731 7.6796875,239.320767 C5.68560571,236.701072 9.68625675,233.440655 19.6816406,229.539517 L0,229.539517 L128.245117,168.677646 L168.670898,130.191861 C173.046549,121.231863 188.602865,110.358636 215.339844,97.5721773 C221.890214,94.4395859 235.900774,91.3437406 242.771484,87.5506929 C269.425781,72.8359098 296.053296,72.8359098 314.691406,70.4354586 Z" id="4" fill="#417505"></path>
    </g>
</svg>