<svg width="97" height="101" xmlns="http://www.w3.org/2000/svg">
  <g fill="none" fill-rule="evenodd">
    <path d="M50.405 96.684c3.012 0-1.205 5.598 5.628 3.713 3.905-1.076 8.352-8.4 13.342-21.972 10.795 5.947 16.828 7.434 18.099 4.46 1.078-2.523.54-7.82 1.598-6.69 1.059 1.13 7.378.356 7.716-4.075 1.516-19.877-4.762-30.05-18.834-30.515C90.51 30.111 94.216 20.13 89.072 11.66c-2.58-4.249-7.72.912-10.132-1.705-2.283-2.476-.613-6.79-4.922-6.79-10.88 0-18.329 5.441-22.347 16.323C38.76 2.094 30.576-3.572 27.12 2.49c-1.543 2.706-.56 5.297-2.543 7.464-3.962 4.332-7.752-3.105-9.265 0-7.65 15.704-5.446 27.49 6.615 35.358C7.834 53.316.788 59.68.788 64.404c0 3.078 6.474 3.499 7.42 5.714 1.235 2.894-4.74 5.211 0 8.307 7.85 5.126 16.943 5.126 27.28 0 1.32 13.478 4.32 20.802 9 21.972 4.104 1.027 3.625-3.713 5.917-3.713z" fill="#333"/>
    <path d="M18.398 16.354s11.084.285 11.752-7.505c15.073 3.805 23.975 17.125 20.46 33.907-2.105-3.65-2.003-6.256-3.002-9.645-.578-1.959-1.436-3.96-3.91-3.742-1.834.162-3.682.975-3.904 3.19-.233 2.336.58 4.37 2.962 5.19 3.148 1.081 4.406 3.196 4.191 6.664-2.35.031-3.608-1.33-4.722-2.956-1.643-2.396-3.424-3.377-5.223-.21-.77 1.358 10.869 4.531 9.435 4.623-7.451.473-24.837-8.49-28.039-15.179-3.452-7.211 0-14.337 0-14.337z" fill="#F3D3CD"/>
    <path d="M42.453 58.414c-3.447 1.377-5.516 5.579-4.097 6.156 1.222.497 3.525 1.824 4.097-2.852.57-4.676 8.668-6.74 8.299-5.384-1.291 4.738-13.065 12.928-16.694 16.163-4.022 3.584-8.86 5.424-14.254 3.668-2.454-.798-5.279-.5-7.674-2.337.794-2.36 3.921-4.002 1.882-7.033C12.248 64.173 9.345 65.8 7 64.57c1.299-4.738 5.231-7.122 8.796-9.629 7.699-5.413 15.839-9.737 25.801-7.924 1.325.241 5.64.111 5.258 2.307-.399 2.302-4.539 1.677-6.273.637-1.973-1.183-3.647-.625-4.913.815-1.34 1.523-1.908 3.452-1.134 5.558 1.164 3.168 4.007.761 6.047-1.92 2.208-2.903 4.43-.839 8.117-1.353-2.026 1.458-2.773 3.965-6.246 5.353z" fill="#F3D3CD"/>
    <path d="M49.096 67.826c-1.424 1.333 1.819 3.494 2.408 3.748 1.267-.396 3.865-3.397 2.488-4.876-1.698-1.825-1.032-4.653.017-6.97.08-.176 1.767 2.7 2.081 5.37.165 1.4 2.025 1.323 2.375.923.346-.397.147-1.318-1.382-2.439-1.674-1.226-2.34-5.309-2.249-5.47.501-.884.98-1.59 1.256-1.98 3.576 7.15 6.635 9.945 9.105 16.626.816 2.206-.16 5.716-.587 6.658-2.546 5.614-5.008 10.891-10.239 14.38-.355-.303-.644-.483-.846-.733-.992-1.23.28-3.704-2.019-4.124-2.618-.48-3.209 1.65-4.046 3.505-.758 1.68-2.1 1.583-3.14.313-8.523-10.405-1.682-27.063 6.79-32.57.829.138.396 5.384-2.012 7.639z" fill="#F3D3CD"/>
    <path d="M82.568 69.437c-1.065.745-.628 3.359 0 8.287-5.909.864-11.676-6.06-15.558-9.79-3.422-3.29-4.739-4.566-6.943-9.239-.606-1.905-.995-4.075-1.064-5.806-.007-.154 2.102 1.512 4.005 3.314 1.639 1.551 2.551 3.684 4.002 2.463 2.186-1.84-2.647-2.475-4.454-4.14-2.374-2.188-3.333-4.13-3.207-4.363.775-1.45 5.224-1.299 6.722 1.16 2.868 4.709 7.52 3.034 7.476 2.438-.031-.429 1.211-3.603-.79-4.707-1.273-.702-3.347-1.357-5.63-.728-2.842.784-5.66-1.542-6.535-2.181 4.074-2.96 11.027-2.87 16.151-.242 10.072 5.165 16.458 10.3 16.458 24.785-3.587-.735-8.485-2.754-10.633-1.251z" fill="#F3D3CD"/>
    <path d="M57.141 42.438c-.357-2.162-.885-1.69-.357-5.43.529-3.742 2.588-4.474.357-5.281-2.23-.808-.865 5.008-1.923 8.628-.196.67-.714 1.723-1.555 3.16-.736-1.968-1.105-4.137-1.105-6.508 0-1.438.826-12.483 3.378-17.1C59.238 13.931 67.588 6.074 72.17 7.872s.17 9.468 3.952 7.951c1.986-.798 8.978-1.53 9.188 0 .78 5.688-.95 10.778-5.34 17.138-3.797 5.502-12.787 10.215-22.356 11.42 3.494-1.36 3.603-6.953 6.31-7.815 12.198-3.885-3.37-14.651-1.727-1.311.284 2.301-3.532 3.732-5.057 7.183z" fill="#F3D3CD"/>
  </g>
</svg>
