<?xml version="1.0" encoding="UTF-8"?>
<svg viewBox="0 0 536 28" width="536" height="28" version="1.1" xmlns="http://www.w3.org/2000/svg" xmlns:xlink="http://www.w3.org/1999/xlink">
    <g id="Bird-sequence" stroke="none" stroke-width="1" fill="none" fill-rule="evenodd">
        <g id="Group" fill="#299678">
            <path d="M526.594195,7.53906909 C528.134763,7.27454783 529.404752,7.27454783 530.404164,7.53906909 C532.628033,8.12767625 533.739967,9.0303094 533.739967,10.2469686 L535.356001,12.8126213 L531.624995,12.2798092 C529.972852,12.5756882 528.809437,13.0668073 528.134749,13.7531665 C526.359628,15.5589948 526.594195,15.5745192 524.893198,16.5822727 C524.264713,16.9546184 518.363511,23.9664601 516.736002,24.5149037 C516.645858,24.5452807 516.222452,24.0788898 516.07546,23.5743585 C516.033984,23.4319945 514.60194,25.6074834 514.172895,25.4075479 C513.880585,25.2713305 513.880585,24.6767706 513.700665,23.9154134 C513.65788,23.7343599 512.374529,25.6565626 511.99754,25.4075479 C511.856358,25.314292 511.905507,24.2375356 511.660302,24.0424851 C511.51699,23.9284874 509.65782,26.8564414 509.393306,26.6706774 C509.217442,26.5471706 509.254567,25.8186636 509.002749,25.4075479 C508.978514,25.367982 507.823721,27.5537414 506.988706,27.5537414 C506.153691,27.5537414 507.377825,25.4974402 506.988706,25.7226979 C505.943925,26.3275127 504.919302,27.6703758 504.543463,27.4383958 C504.008043,27.1079174 506.118139,24.7608096 505.930736,24.7307263 C505.468419,24.6565118 505.459245,24.893069 505.157846,24.7307263 C504.921695,24.6035281 506.141068,23.6858971 505.930736,23.5743585 C505.615018,23.4069338 505.342081,23.7784817 505.157846,23.5743585 C504.830493,23.2116665 506.475748,22.583788 506.153691,22.1782961 C505.938114,21.9068692 505.566747,22.274085 505.387478,21.9385211 C505.295001,21.7654192 505.602306,21.2832671 506.309391,20.492065 L507.123214,19.4497801 L506.594375,19.0508206 L503.334922,20.076708 C500.220287,22.3146734 498.012934,23.6945657 496.712861,24.2163848 C496.267617,24.3950951 496.267617,23.9580594 496.712861,22.9052777 C496.236556,23.0837646 495.927284,23.13537 495.785044,23.0600936 C495.597626,22.9609082 495.734618,22.5870507 496.19602,21.9385211 C495.089813,22.1251261 494.497461,22.1632681 494.418964,22.052947 C494.305214,21.893081 494.59381,21.6009745 495.284751,21.1766274 C494.390423,21.320951 493.873905,21.320951 493.735198,21.1766274 C493.537602,20.9710312 493.765524,20.694483 494.418964,20.3469826 C492.875391,20.5886196 492.3381,20.5886196 492.807091,20.3469826 C496.797533,18.2909962 503.463624,16.9948342 505.762843,15.4948056 C507.295656,14.4947866 508.784632,13.4231211 510.229773,12.2798092 C511.477506,11.4878196 513.426068,10.5900781 516.07546,9.5865847 C518.724853,8.58309126 522.231097,7.90058606 526.594195,7.53906909 Z" id="10"></path>
            <path d="M471.594134,7.39341883 C472.623114,7.27780926 473.637309,7.35226511 474.63672,7.61678637 C475.097085,7.73863453 476.101644,8.03800719 476.466709,8.18676962 C477.399001,8.56667522 478.021191,9.2948722 478.333276,10.3713605 L479.940311,12.8821379 L476.466709,12.4538649 C474.92005,12.5366066 473.809376,12.921157 473.134688,13.6075162 C471.359567,15.4133446 471.594134,15.4288689 469.893138,16.4366224 C469.264652,16.8089682 462.364734,22.9144434 461.735941,24.3692534 C461.71373,24.4206421 461.222391,23.9332396 461.0754,23.4287082 C461.033923,23.2863442 459.601879,25.4618332 459.172834,25.2618976 C458.880524,25.1256802 458.880524,24.5311204 458.700604,23.7697631 C458.657819,23.5887097 457.374468,25.5109124 456.997479,25.2618976 C456.856297,25.1686417 456.905447,24.0918853 456.660241,23.8968348 C456.51693,23.7828371 454.657759,26.7107911 454.393245,26.5250271 C454.217381,26.4015203 454.254506,25.6730134 454.002688,25.2618976 C453.978453,25.2223317 452.823661,27.4080911 451.988645,27.4080911 C451.15363,27.4080911 452.377765,25.35179 451.988645,25.5770477 C450.943864,26.1818624 449.919242,27.5247255 449.543402,27.2927456 C449.007982,26.9622672 451.118078,24.6151593 450.930675,24.585076 C450.468358,24.5108615 450.459185,24.7474187 450.157786,24.585076 C449.921635,24.4578779 451.141008,23.5402468 450.930675,23.4287082 C450.614957,23.2612836 450.34202,23.6328315 450.157786,23.4287082 C449.830432,23.0660163 451.475687,22.4381378 451.15363,22.0326458 C450.938053,21.7612189 450.566686,22.1284348 450.387417,21.7928708 C450.29494,21.6197689 450.602245,21.1376169 451.309331,20.3464148 L452.123153,19.3041298 L451.594314,18.9051703 L448.334861,19.9310577 C444.81016,22.1204742 442.810339,23.5301026 442.3354,24.1599429 C441.86046,24.7897832 441.652927,24.3230114 441.7128,22.7596274 C441.510479,22.9343829 441.338199,22.9841225 441.195959,22.9088462 C441.008541,22.8096607 441.008541,22.437669 441.195959,21.7928708 C440.359601,21.9031919 439.902174,21.9031919 439.823677,21.7928708 C439.709927,21.6330049 439.863598,21.3790403 440.28469,21.0309771 C439.611375,21.1753008 439.205364,21.1753008 439.066657,21.0309771 C438.869062,20.825381 438.986477,20.5488327 439.418903,20.2013323 C437.87533,20.4429693 437.338039,20.4429693 437.80703,20.2013323 C441.797472,18.1453459 448.463563,16.8491839 450.762782,15.3491554 C452.295595,14.3491363 453.837308,13.3093395 455.38792,12.229765 C456.530181,11.3740381 458.426008,10.4444279 461.0754,9.44093444 C463.724792,8.43744099 467.231037,7.75493579 471.594134,7.39341883 Z" id="9"></path>
            <path d="M416.731185,7.10523529 C419.141851,7.21780829 420.467192,7.32458041 420.707209,7.42555166 C423.366794,8.54439641 422.572325,9.29054729 423.366794,10.0290653 C423.89644,10.5214107 424.420925,11.369424 424.94025,12.5731051 L421.700538,11.9423138 C420.169485,12.1339812 419.066614,12.5729944 418.391926,13.2593536 C416.616805,15.065182 415.52216,15.3031604 413.821164,16.3109138 C412.120167,17.3186673 410.352972,23.2955365 409.724179,24.7503465 C409.095386,26.2051565 408.592472,23.8898151 408.445481,23.3852838 C408.404004,23.2429198 407.732657,26.2134116 407.303613,26.013476 C407.011302,25.8772587 406.489148,24.8348822 406.309228,24.0735249 C406.266443,23.8924715 405.433444,26.6300159 405.056455,26.3810012 C404.915273,26.2877453 404.153793,24.945397 403.908587,24.7503465 C403.765276,24.6363488 403.258663,27.6462 402.417965,27.3778013 C401.577267,27.1094025 401.577267,25.8428347 401.325449,25.4317189 C401.301214,25.392153 400.504949,27.3778013 399.669934,27.3778013 C398.834919,27.3778013 400.059053,24.5250888 399.669934,24.7503465 C398.625152,25.3551612 399.326396,23.4020065 398.950557,23.1700266 C398.415137,22.8395482 398.400584,23.6784751 398.213181,23.6483918 C397.750864,23.5741773 398.51458,22.1980742 398.213181,22.0357315 C397.97703,21.9085334 398.499422,21.2963331 398.213181,20.5194261 C397.92694,19.742519 398.625438,19.742519 398.213181,19.4195066 C397.756563,19.0617363 397.661149,18.5888031 397.92694,18.0007069 L393.568689,19.4195066 C390.043988,21.6089231 388.044168,23.0185515 387.569228,23.6483918 C387.094288,24.2782321 386.886755,23.8114603 386.946628,22.2480764 C386.744308,22.4228318 386.572028,22.4725714 386.429788,22.3972951 C386.24237,22.2981097 386.24237,21.9261179 386.429788,21.2813198 C385.59343,21.3916409 385.136002,21.3916409 385.057505,21.2813198 C384.943756,21.1214538 385.097427,20.8674893 385.518519,20.5194261 C384.845204,20.6637497 384.439193,20.6637497 384.300486,20.5194261 C384.10289,20.3138299 384.220305,20.0372816 384.652731,19.6897812 C383.109159,19.9314182 382.571868,19.9314182 383.040859,19.6897812 C387.031301,17.6337948 393.697391,16.3376328 395.996611,14.8376043 C397.529424,13.8375853 399.071136,12.7977885 400.621749,11.7182139 C401.76401,10.862487 403.659836,9.9328768 406.309228,8.92938336 C408.95862,7.92588991 412.432606,7.31784056 416.731185,7.10523529 Z" id="8"></path>
            <path d="M361.412272,8.46918863 C362.95284,8.20466737 364.22283,8.20466737 365.222241,8.46918863 C367.44611,9.05779578 368.558045,9.96042894 368.558045,11.1770881 L370.174078,13.7427408 L366.443073,13.2099287 C364.79093,13.5058077 363.627515,13.9969268 362.952827,14.683286 C361.177706,16.4891144 361.60307,16.9517462 358.575795,17.8537939 C356.089728,18.5945757 353.044488,18.8798867 349.440075,18.7097268 L346.91945,18.1904036 L345.049109,18.7097268 L338.152999,21.0068275 C335.715422,22.9503118 333.846597,24.1829635 332.546524,24.7047826 C332.10128,24.8834929 332.224789,24.3513706 332.91705,23.1084156 C332.191664,23.5466153 331.757851,23.7280769 331.615611,23.6528006 C331.428193,23.5536152 331.532348,23.1976918 331.928076,22.5850305 C331.237586,22.6953516 330.853093,22.6953516 330.774596,22.5850305 C330.660846,22.4251645 330.853093,22.1549775 331.351336,21.7744694 C330.515907,21.918793 330.028839,21.918793 329.890132,21.7744694 C329.692536,21.5688732 329.843302,21.2189534 330.342428,20.72471 L329.013409,20.3798996 L341.127469,16.343802 L345.567401,13.2099287 C343.062046,12.1707797 341.173641,11.39997 339.902186,10.8974997 C338.730514,10.4344625 340.274389,10.4344625 339.902186,10.3003087 C339.193255,10.0447869 337.491201,10.0128857 337.406721,9.86299197 C337.252322,9.58904281 339.190276,9.81717138 338.730514,9.60992155 C337.96313,9.26400366 336.399728,9.3147721 336.225178,9.13949568 C335.842677,8.75540334 337.88639,9.14172673 337.406721,8.85408253 C336.845298,8.51741358 335.878345,8.62049456 335.220914,8.23098668 C334.864839,8.02002277 336.667582,8.14614633 336.225178,7.94526695 C335.926533,7.80966384 334.700315,7.50074727 332.546524,7.01851726 C334.099385,5.61692244 335.719451,4.92735282 337.406721,4.94980837 C342.522405,5.01789204 347.828801,5.61722901 353.325911,6.74781928 C355.530022,5.19793009 358.012391,4.14758311 360.77302,3.59677834 C360.860067,3.57941051 361.808751,3.30660504 361.897373,3.36083731 C362.065733,3.46386537 361.398854,3.91698041 361.755559,3.7140016 C362.300027,3.40417811 363.250311,3.18351107 363.651882,3.28438735 C363.852918,3.33488829 362.842462,4.20308969 363.130978,3.98006276 C363.419493,3.75703583 364.860651,3.44242806 365.222241,3.51595982 C365.429533,3.55811391 364.134907,4.60333829 364.765575,4.13066342 C365.186021,3.81554684 365.745187,3.81554684 366.443073,4.13066342 L361.412272,8.46918863 Z" id="7"></path>
            <path d="M307.548758,8.49662631 C309.089326,8.23210505 310.359315,8.23210505 311.358726,8.49662631 C313.582595,9.08523346 314.69453,9.98786662 314.69453,11.2045258 L316.310563,13.7701785 L312.579558,13.2373664 C310.927415,13.5332454 309.764,14.0243645 309.089312,14.7107237 C307.314191,16.516552 307.739555,16.9791839 304.71228,17.8812316 C302.226213,18.6220134 299.180973,18.9073243 295.57656,18.7371645 L293.055935,18.2178413 L291.185594,18.7371645 L284.289484,21.0342652 C281.851907,22.9777495 279.983082,24.2104012 278.683009,24.7322203 C278.237765,24.9109306 278.361274,24.3788083 279.053535,23.1358533 C278.328149,23.574053 277.894336,23.7555146 277.752096,23.6802383 C277.564678,23.5810529 277.668833,23.2251295 278.064561,22.6124681 C277.374071,22.7227892 276.989578,22.7227892 276.911081,22.6124681 C276.797331,22.4526022 276.989578,22.1824152 277.487821,21.801907 C276.652392,21.9462307 276.165324,21.9462307 276.026617,21.801907 C275.829021,21.5963109 275.979787,21.2463911 276.478913,20.7521476 L275.149894,20.4073373 L287.263954,16.3712396 L291.703886,13.2373664 C286.760951,9.71591557 283.84364,7.47403446 282.95195,6.51172308 C282.274872,5.78101999 284.651979,6.0794647 283.801965,5.72767996 C283.235288,5.4931568 282.739963,5.00653401 282.315988,4.26781159 C283.673327,4.75075433 283.885315,4.75075433 282.95195,4.26781159 C281.551904,3.54339749 281.726454,2.30934688 281.551904,2.13407046 C281.169403,1.74997812 284.022875,2.87256051 283.543206,2.5849163 C282.981783,2.24824736 282.95195,1.45138769 282.95195,0.792270304 C282.95195,0.494257931 287.283287,2.33494984 286.840882,2.13407046 C286.392916,1.93066579 286.038671,0.434354236 286.038671,0.434354236 C286.038671,0.434354236 291.26581,3.09976416 293.677963,3.54339749 C298.15757,4.36726868 300.66426,4.84521819 301.198035,4.97724605 C301.722779,4.07231365 302.190557,3.59436413 302.601372,3.54339749 C302.630547,3.53977795 303.720209,4.14881321 303.720209,3.74143928 C303.720209,3.34392381 303.865233,2.95841615 304.15528,2.5849163 C305.066184,2.28838589 305.640537,2.07246108 305.87834,1.93714187 C306.422808,1.62731838 306.642441,1.3505114 307.044013,1.45138769 C307.245049,1.50188863 307.260242,1.89069709 307.548758,1.66767016 C307.837273,1.44464323 308.081115,0.934867733 308.442705,1.00839949 C308.580899,1.03650222 308.796435,1.34608301 309.089312,1.93714187 C309.390948,1.38833305 309.753507,1.07875226 310.17699,1.00839949 C310.419092,0.96817931 310.739843,1.74021328 310.628898,1.93714187 C310.517953,2.13407046 312.013268,1.18693141 312.013268,1.45138769 C312.013268,2.19285184 311.198359,3.28213904 310.628898,3.94898272 C309.975131,4.71454944 308.822598,5.01996855 308.442705,5.72767996 C307.731908,7.05184041 307.433926,7.97482253 307.548758,8.49662631 Z" id="6"></path>
            <path d="M253.685243,8.46918863 C255.225811,8.20466737 256.4958,8.20466737 257.495211,8.46918863 C259.71908,9.05779578 260.831015,9.96042894 260.831015,11.1770881 L262.447048,13.7427408 L258.716043,13.2099287 C257.0639,13.5058077 255.900485,13.9969268 255.225797,14.683286 C253.450676,16.4891144 253.87604,16.9517462 250.848765,17.8537939 C248.362698,18.5945757 245.317458,18.8798867 241.713045,18.7097268 L239.19242,18.1904036 L237.322079,18.7097268 L230.425969,21.0068275 C227.988392,22.9503118 226.119567,24.1829635 224.819494,24.7047826 C224.37425,24.8834929 224.497759,24.3513706 225.19002,23.1084156 C224.464634,23.5466153 224.030821,23.7280769 223.888581,23.6528006 C223.701163,23.5536152 223.805318,23.1976918 224.201046,22.5850305 C223.510556,22.6953516 223.126063,22.6953516 223.047566,22.5850305 C222.933816,22.4251645 223.126063,22.1549775 223.624306,21.7744694 C222.788877,21.918793 222.301809,21.918793 222.163102,21.7744694 C221.965506,21.5688732 222.116272,21.2189534 222.615398,20.72471 L221.286379,20.3798996 L233.400439,16.343802 L237.840371,13.2099287 C235.335016,12.1707797 233.446611,11.39997 232.175156,10.8974997 C231.003484,10.4344625 232.547359,10.4344625 232.175156,10.3003087 C231.466225,10.0447869 229.764171,10.0128857 229.679691,9.86299197 C229.525292,9.58904281 231.463246,9.81717138 231.003484,9.60992155 C230.2361,9.26400366 228.672698,9.3147721 228.498148,9.13949568 C228.115647,8.75540334 230.15936,9.14172673 229.679691,8.85408253 C229.118268,8.51741358 228.151315,8.62049456 227.493884,8.23098668 C227.137809,8.02002277 228.940552,8.14614633 228.498148,7.94526695 C228.199503,7.80966384 226.973285,7.50074727 224.819494,7.01851726 C226.372355,5.61692244 227.992421,4.92735282 229.679691,4.94980837 C234.795375,5.01789204 240.101771,5.61722901 245.598881,6.74781928 C247.802992,5.19793009 250.285361,4.14758311 253.04599,3.59677834 C253.133037,3.57941051 254.081721,3.30660504 254.170343,3.36083731 C254.338703,3.46386537 253.671824,3.91698041 254.028529,3.7140016 C254.572997,3.40417811 255.523281,3.18351107 255.924852,3.28438735 C256.125888,3.33488829 255.115432,4.20308969 255.403948,3.98006276 C255.692463,3.75703583 257.133621,3.44242806 257.495211,3.51595982 C257.702503,3.55811391 256.407877,4.60333829 257.038545,4.13066342 C257.458991,3.81554684 258.018157,3.81554684 258.716043,4.13066342 L253.685243,8.46918863 Z" id="5"></path>
            <path d="M200.374469,5.49780062 C202.785135,5.61037362 204.110476,5.71714575 204.350493,5.81811699 C207.010078,6.93696174 206.215608,7.68311262 207.010078,8.42163066 C207.539724,8.91397602 208.064209,9.76198929 208.583533,10.9656705 L205.343821,10.3348792 C203.812768,10.5265465 202.709898,10.9655598 202.03521,11.651919 C200.260089,13.4577473 199.165444,13.6957257 197.464447,14.7034792 C195.763451,15.7112327 193.996256,21.6881018 193.367463,23.1429119 C192.73867,24.5977219 192.235756,22.2823805 192.088764,21.7778491 C192.047288,21.6354851 191.375941,24.6059769 190.946896,24.4060413 C190.654586,24.269824 190.132432,23.2274475 189.952512,22.4660903 C189.909726,22.2850368 189.076727,25.0225813 188.699738,24.7735665 C188.558556,24.6803107 187.797077,23.3379623 187.551871,23.1429119 C187.408559,23.0289141 186.901947,26.0387653 186.061249,25.7703666 C185.220551,25.5019679 185.220551,24.2354 184.968733,23.8242842 C184.944498,23.7847183 184.148233,25.7703666 183.313217,25.7703666 C182.478202,25.7703666 183.702337,22.9176541 183.313217,23.1429119 C182.268436,23.7477266 182.96968,21.7945718 182.593841,21.5625919 C182.05842,21.2321135 182.043868,22.0710404 181.856465,22.0409572 C181.394148,21.9667427 182.157864,20.5906395 181.856465,20.4282969 C181.620314,20.3010987 182.142706,19.6888985 181.856465,18.9119914 C181.570223,18.1350843 182.268722,18.1350843 181.856465,17.812072 C181.399846,17.4543017 181.304433,16.9813684 181.570223,16.3932722 L177.211973,17.812072 C173.687272,20.0014885 171.687452,21.4111169 171.212512,22.0409572 C170.737572,22.6707975 170.530039,22.2040257 170.589912,20.6406417 C170.387592,20.8153972 170.215312,20.8651367 170.073072,20.7898604 C169.885654,20.690675 169.885654,20.3186832 170.073072,19.6738851 C169.236714,19.7842062 168.779286,19.7842062 168.700789,19.6738851 C168.587039,19.5140192 168.740711,19.2600546 169.161803,18.9119914 C168.488488,19.056315 168.082476,19.056315 167.943769,18.9119914 C167.746174,18.7063952 167.863589,18.429847 168.296015,18.0823465 C166.752443,18.3239836 166.215152,18.3239836 166.684142,18.0823465 C170.674584,16.0263602 177.340675,14.7301982 179.639894,13.2301696 C181.172707,12.2301506 182.71442,11.1903538 184.265032,10.1107792 C185.407293,9.25505232 187.30312,8.32544213 189.952512,7.32194869 C192.601904,6.31845525 196.07589,5.71040589 200.374469,5.49780062 Z" id="4"></path>
            <path d="M145.471185,7.15797597 C146.500165,7.0423664 147.51436,7.11682225 148.513772,7.38134351 C148.974137,7.50319167 149.978696,7.80256433 150.34376,7.95132676 C151.276053,8.33123236 151.898242,9.05942934 152.210328,10.1359177 L153.817362,12.6466951 L150.34376,12.218422 C148.797101,12.3011637 147.686428,12.6857141 147.01174,13.3720733 C145.236619,15.1779017 145.471185,15.1934261 143.770189,16.2011795 C143.141703,16.5735253 136.241786,22.6790005 135.612993,24.1338105 C135.590782,24.1851992 135.099442,23.6977967 134.952451,23.1932654 C134.910974,23.0509013 133.47893,25.2263903 133.049886,25.0264547 C132.757575,24.8902374 132.757575,24.2956775 132.577656,23.5343203 C132.53487,23.3532668 131.251519,25.2754695 130.87453,25.0264547 C130.733348,24.9331989 130.782498,23.8564424 130.537292,23.661392 C130.393981,23.5473943 128.53481,26.4753483 128.270297,26.2895842 C128.094433,26.1660774 128.131557,25.4375705 127.879739,25.0264547 C127.855504,24.9868889 126.700712,27.1726482 125.865697,27.1726482 C125.030681,27.1726482 126.254816,25.1163471 125.865697,25.3416048 C124.820915,25.9464195 123.796293,27.2892827 123.420454,27.0573027 C122.885034,26.7268243 124.99513,24.3797164 124.807727,24.3496332 C124.34541,24.2754186 124.336236,24.5119758 124.034837,24.3496332 C123.798686,24.222435 125.018059,23.3048039 124.807727,23.1932654 C124.492008,23.0258407 124.219072,23.3973886 124.034837,23.1932654 C123.707483,22.8305734 125.352738,22.2026949 125.030681,21.797203 C124.815104,21.525776 124.443738,21.8929919 124.264469,21.557428 C124.171992,21.384326 124.479296,20.902174 125.186382,20.1109719 L126.000205,19.0686869 L125.471365,18.6697274 L122.211912,19.6956149 C118.687211,21.8850314 116.687391,23.2946597 116.212451,23.9245001 C115.737511,24.5543404 115.529978,24.0875685 115.589851,22.5241846 C115.387531,22.69894 115.215251,22.7486796 115.073011,22.6734033 C114.885593,22.5742179 114.885593,22.2022261 115.073011,21.557428 C114.236653,21.6677491 113.779225,21.6677491 113.700728,21.557428 C113.586978,21.397562 113.74065,21.1435975 114.161742,20.7955343 C113.488427,20.9398579 113.082416,20.9398579 112.943708,20.7955343 C112.746113,20.5899381 112.863528,20.3133898 113.295954,19.9658894 C111.752382,20.2075265 111.215091,20.2075265 111.684082,19.9658894 C115.674524,17.909903 122.340614,16.613741 124.639834,15.1137125 C126.172646,14.1136935 127.714359,13.0738967 129.264971,11.9943221 C130.407232,11.1385952 132.303059,10.208985 134.952451,9.20549157 C137.601843,8.20199813 141.108088,7.51949293 145.471185,7.15797597 Z" id="3"></path>
            <path d="M90.0554953,7.14666433 C91.5960633,6.88214307 92.8660529,6.88214307 93.8654641,7.14666433 C96.089333,7.73527148 97.2012674,8.63790463 97.2012674,9.85456379 L98.8173011,12.4202165 L95.0862953,11.8874044 C93.4341529,12.1832834 92.2707376,12.6744025 91.5960496,13.3607617 C89.8209285,15.1665901 90.0554953,15.1821144 88.3544989,16.1898679 C87.726013,16.5622137 81.8248113,23.5740553 80.1973026,24.1224989 C80.1071587,24.1528759 79.6837522,23.6864851 79.5367609,23.1819537 C79.4952843,23.0395897 78.06324,25.2150787 77.6341957,25.0151431 C77.3418852,24.8789257 77.3418852,24.2843659 77.1619655,23.5230086 C77.11918,23.3419552 75.835829,25.2641578 75.4588402,25.0151431 C75.3176581,24.9218872 75.3668078,23.8451308 75.121602,23.6500803 C74.9782908,23.5360826 73.1191202,26.4640366 72.8546067,26.2782726 C72.6787427,26.1547658 72.7158673,25.4262589 72.4640491,25.0151431 C72.439814,24.9755772 71.2850218,27.1613366 70.4500066,27.1613366 C69.6149913,27.1613366 70.8391259,25.1050354 70.4500066,25.3302932 C69.4052252,25.9351079 68.3806029,27.277971 68.0047637,27.0459911 C67.4693437,26.7155127 69.5794396,24.3684048 69.3920367,24.3383215 C68.9297196,24.264107 68.9205458,24.5006642 68.6191468,24.3383215 C68.3829958,24.2111234 69.6023689,23.2934923 69.3920367,23.1819537 C69.0763183,23.0145291 68.8033818,23.386077 68.6191468,23.1819537 C68.291793,22.8192618 69.9370479,22.1913833 69.6149913,21.7858913 C69.399414,21.5144644 69.0280477,21.8816803 68.8487784,21.5461163 C68.7563017,21.3730144 69.0636061,20.8908624 69.7706918,20.0996602 L70.5845148,19.0573753 L70.055675,18.6584158 L66.7962221,19.6843032 C63.6815879,21.9222687 61.4742342,23.3021609 60.1741611,23.82398 C59.7289178,24.0026903 59.7289178,23.5656546 60.1741611,22.5128729 C59.6978569,22.6913599 59.3885849,22.7429652 59.2463448,22.6676889 C59.0589269,22.5685035 59.1959188,22.1946459 59.6573206,21.5461163 C58.5511133,21.7327213 57.9587611,21.7708633 57.8802641,21.6605422 C57.7665144,21.5006763 58.0551103,21.2085697 58.7460518,20.7842226 C57.8517233,20.9285463 57.3352053,20.9285463 57.196498,20.7842226 C56.9989026,20.5786265 57.2268246,20.3020782 57.8802641,19.9545778 C56.3366916,20.1962148 55.7994007,20.1962148 56.2683915,19.9545778 C60.2588335,17.8985914 66.9249242,16.6024294 69.2241434,15.1024009 C70.7569562,14.1023818 72.2459329,13.0307164 73.6910735,11.8874044 C74.9388063,11.0954149 76.8873688,10.1976734 79.5367609,9.19417993 C82.186153,8.19068649 85.6923978,7.50818129 90.0554953,7.14666433 Z" id="2"></path>
            <path d="M31.9082244,5.96219619 C33.755092,5.77380649 36.4797817,5.29105259 37.9788986,5.68783448 C40.2027674,6.27644163 41.4716603,7.25352846 41.7855772,8.61909497 L43.401611,11.1847477 L39.6706052,10.6519356 C37.8490534,10.8792175 36.6009334,11.3360381 35.9262454,12.0223973 C34.1511243,13.8282257 34.2856325,13.574012 32.5846361,14.5817655 C31.9561502,14.9541112 30.423465,15.1454032 28.7959563,15.6938468 C28.7058124,15.7242238 25.1883304,19.3687228 25.0413391,18.8641914 C24.9998624,18.7218274 25.2106568,19.064127 24.7816125,18.8641914 C24.4893019,18.7279741 24.9615321,18.5832637 24.7816125,17.8219065 C24.7388269,17.640853 22.9015732,19.750555 22.5245843,19.5015402 C22.3834022,19.4082844 22.3085916,18.6438848 22.0633857,18.4488344 C21.9200745,18.3348367 21.3824711,19.6873043 21.1179576,19.5015402 C20.9420936,19.3780334 20.4113807,18.6226253 20.1595625,18.2115096 C20.1353275,18.1719437 17.2521534,20.2249599 16.6199649,20.8317311 C15.9877763,21.4385023 16.4263443,19.5951114 16.037225,19.8203691 C15.5189553,20.1203909 14.187373,21.4711692 13.7776809,21.5654973 C13.3614737,21.6613255 13.870525,20.497511 13.7776809,20.3946443 C13.4503271,20.0319523 12.3207346,21.9010341 11.6536126,21.3663826 C10.9864907,20.8317311 13.1253218,19.7243644 12.9460525,19.3888005 C12.8073374,19.1291476 12.0979579,19.5782478 12.1656147,19.3888005 C12.2828554,19.0605121 12.7053466,18.6059254 13.4330883,18.0250406 L12.4268896,18.2115096 L12.6582631,17.4886264 C8.49747622,19.1809004 5.805635,20.8228954 4.58273939,22.4146115 C4.39775265,22.6553895 4.39775265,22.2155939 4.58273939,21.0952247 C3.93405831,21.1705011 3.53859776,21.1705011 3.39635775,21.0952247 C3.20893979,20.9960393 3.44531294,20.6399769 4.10547722,20.0270373 C3.23061109,20.1373584 2.75392953,20.1373584 2.67543253,20.0270373 C2.56168281,19.8671714 2.80199121,19.5969844 3.39635775,19.2164762 C2.26159181,19.3607999 1.62485517,19.3607999 1.48614785,19.2164762 C1.28855243,19.0108801 1.68498066,18.7549995 2.67543253,18.4488344 L0.725160474,18.4488344 L13.4330883,13.6723367 L17.4389166,10.6519356 C17.8725039,9.94874648 19.4139936,9.0954052 22.0633857,8.09191175 C22.712468,7.84606299 24.1007874,7.6030981 24.7816125,7.3054161 C27.4228115,6.15058589 30.0613567,6.15058589 31.9082244,5.96219619 Z" id="1"></path>
        </g>
    </g>
</svg>