<?xml version="1.0" encoding="UTF-8"?>
<svg width="500px" height="30px" viewBox="0 0 500 30" version="1.1" xmlns="http://www.w3.org/2000/svg" xmlns:xlink="http://www.w3.org/1999/xlink">
    <title>Group</title>
    <desc>Created with Sketch.</desc>
    <g id="Page-1" stroke="none" stroke-width="1" fill="none" fill-rule="evenodd">
        <g id="Group" fill="#299678">
            <path d="M489.743359,0.232238041 C491.546761,-0.0774126803 493.033421,-0.0774126803 494.20334,0.232238041 C496.806618,0.921266323 498.108258,1.97789598 498.108258,3.40212701 L500,6.40550081 L495.632455,5.78178667 C493.698443,6.12814497 492.33654,6.70305295 491.546745,7.50651058 C489.468774,9.62042782 489.743359,9.63860077 487.752159,10.8182851 C487.016449,11.2541561 480.108454,19.4622745 478.20328,20.104287 C478.097756,20.1398466 477.602113,19.5938857 477.430044,19.0032772 C477.381491,18.8366248 475.705129,21.3832697 475.202886,21.1492235 C474.860705,20.9897664 474.860705,20.2937698 474.650089,19.4025189 C474.600004,19.1905762 473.097703,21.4407222 472.656397,21.1492235 C472.491128,21.0400574 472.548663,19.7795976 472.261623,19.55127 C472.093862,19.4178234 469.917502,22.84531 469.60786,22.6278531 C469.401993,22.483275 469.445451,21.6304789 469.150671,21.1492235 C469.122301,21.1029074 467.770492,23.6615749 466.793016,23.6615749 C465.815541,23.6615749 467.248522,21.2544522 466.793016,21.5181407 C465.569987,22.2261417 464.370555,23.7981081 463.930595,23.5265505 C463.303828,23.1396898 465.773923,20.3921464 465.554548,20.3569307 C465.013356,20.2700546 465.002617,20.5469704 464.649797,20.3569307 C464.373357,20.2080315 465.800765,19.1338452 465.554548,19.0032772 C465.184966,18.8072886 464.865464,19.2422255 464.649797,19.0032772 C464.266594,18.5787071 466.192543,17.8437074 465.815541,17.3690353 C465.563184,17.0513008 465.12846,17.4811666 464.918606,17.0883528 C464.810352,16.8857183 465.170085,16.3213072 465.997805,15.3951196 L466.950472,14.1750124 L466.331408,13.7079872 L462.515867,14.9088993 C458.869851,17.5286797 456.285905,19.1439928 454.764028,19.7548384 C454.242823,19.9640381 454.242823,19.4524406 454.764028,18.2200459 C454.206463,18.4289841 453.844427,18.4893937 453.677919,18.4012746 C453.458526,18.2851674 453.61889,17.8475268 454.159011,17.0883528 C452.864076,17.3067941 452.170663,17.3514434 452.078774,17.2223006 C451.945618,17.0351603 452.28345,16.693218 453.092272,16.1964739 C452.045364,16.3654203 451.440724,16.3654203 451.278352,16.1964739 C451.047045,15.9558013 451.313853,15.6320717 452.078774,15.2252849 C450.271856,15.5081472 449.642899,15.5081472 450.191903,15.2252849 C454.863147,12.8185306 462.666526,11.301233 465.358011,9.54528744 C467.152334,8.37465709 468.895342,7.12015684 470.587035,5.78178667 C472.047641,4.8546773 474.328644,3.80377386 477.430044,2.62907634 C480.531444,1.45437881 484.635882,0.655432714 489.743359,0.232238041 Z" id="10"></path>
            <path d="M440.133894,0.0623453331 C441.350261,-0.0743179995 442.549153,0.0136970705 443.730568,0.326390543 C444.274771,0.470428593 445.462271,0.824320281 445.893818,1.00017398 C446.995891,1.44926455 447.731387,2.31007415 448.100307,3.58260279 L450,6.55062018 L445.893818,6.04435396 C444.065495,6.14216377 442.752556,6.59674505 441.955,7.40809778 C439.85661,9.54278721 440.133894,9.56113873 438.123127,10.7524151 C437.380187,11.1925691 429.223719,18.4099181 428.480416,20.129665 C428.45416,20.1904121 427.873343,19.6142483 427.699583,19.0178362 C427.650553,18.8495462 425.957717,21.4212155 425.45054,21.1848694 C425.104996,21.0238454 425.104996,20.3210097 424.892311,19.421001 C424.841734,19.2069757 423.324671,21.4792325 422.879028,21.1848694 C422.712135,21.0746307 422.770236,19.8017851 422.480375,19.5712138 C422.310965,19.4364559 420.113219,22.8976223 419.800535,22.6780286 C419.592644,22.5320299 419.63653,21.6708539 419.338853,21.1848694 C419.310204,21.1380982 417.945112,23.7219082 416.958031,23.7219082 C415.97095,23.7219082 417.418013,21.2911322 416.958031,21.5574118 C415.722983,22.2723699 414.511766,23.8597831 414.067483,23.585557 C413.434557,23.1948949 415.928924,20.420353 415.707393,20.3847912 C415.160883,20.2970614 415.150039,20.5766983 414.793752,20.3847912 C414.514595,20.2344289 415.956029,19.1496872 415.707393,19.0178362 C415.334179,18.8199217 415.011538,19.2591326 414.793752,19.0178362 C414.406783,18.5890941 416.351657,17.8468721 415.97095,17.3675356 C415.716114,17.0466789 415.277118,17.4807688 415.065202,17.084095 C414.955884,16.8794693 415.319152,16.3095121 416.155006,15.3742234 L417.117035,14.142127 L416.491887,13.6705126 L412.638852,14.8832253 C408.472265,17.4713585 406.108255,19.1376956 405.546824,19.8822368 C404.985392,20.6267779 404.740065,20.0750018 404.810842,18.2269085 C404.571677,18.4334889 404.368022,18.4922866 404.199879,18.4033016 C403.97833,18.2860534 403.97833,17.8463179 404.199879,17.084095 C403.211211,17.2145068 402.670481,17.2145068 402.577689,17.084095 C402.443224,16.8951157 402.62488,16.5949014 403.122658,16.1834521 C402.326725,16.3540587 401.846775,16.3540587 401.682807,16.1834521 C401.449228,15.9404146 401.588025,15.6135039 402.099201,15.2027199 C400.274527,15.4883616 399.63939,15.4883616 400.193789,15.2027199 C404.910934,12.7723159 412.790993,11.2401086 415.508925,9.46690846 C417.320879,8.28477504 419.143355,7.05561989 420.976351,5.77944301 C422.32663,4.76787885 424.567707,3.66897648 427.699583,2.48273592 C430.831458,1.29649535 434.976228,0.489698486 440.133894,0.0623453331 Z" id="9"></path>
            <path d="M390.242017,0 C393.107537,0.13381372 394.682948,0.260732031 394.968253,0.380754933 C398.129659,1.71070773 397.185286,2.59764532 398.129659,3.47550986 C398.759241,4.06075288 399.382688,5.06877265 400,6.49956917 L396.149006,5.74975765 C394.329068,5.97758953 393.018104,6.49943756 392.216113,7.31530175 C390.106055,9.46186093 388.804868,9.744742 386.782921,10.9426424 C384.760974,12.1405428 382.660338,19.2451513 381.912901,20.9744606 C381.165465,22.70377 380.567659,19.9515608 380.392933,19.3518324 C380.34363,19.1826066 379.54561,22.7135826 379.035612,22.4759224 C378.688148,22.314003 378.067471,21.0749468 377.853604,20.1699337 C377.802745,19.9547183 376.812573,23.2087935 376.364452,22.9127937 C376.196631,22.8019419 375.291472,21.206314 375,20.9744606 C374.829648,20.8389534 374.227446,24.4167152 373.228122,24.0976739 C372.228798,23.7786327 372.228798,22.2730837 371.929465,21.784397 C371.900658,21.7373657 370.95415,24.0976739 369.961581,24.0976739 C368.969012,24.0976739 370.424121,20.7067004 369.961581,20.9744606 C368.719666,21.6933942 369.553223,19.3717105 369.106469,19.0959596 C368.470024,18.7031253 368.452725,19.7003443 368.229962,19.6645848 C367.680413,19.5763672 368.58823,17.9406155 368.229962,17.7476413 C367.949253,17.5964429 368.570213,16.8687303 368.229962,15.9452333 C367.889712,15.0217364 368.720006,15.0217364 368.229962,14.6377768 C367.687188,14.212501 367.573771,13.6503328 367.889712,12.9512723 L362.70913,14.6377768 C358.519374,17.240301 356.14222,18.9159037 355.577666,19.6645848 C355.013113,20.4132658 354.766422,19.8584217 354.837592,18.0000522 C354.597097,18.2077812 354.39231,18.2669059 354.223232,18.1774261 C354.000451,18.059526 354.000451,17.6173454 354.223232,16.8508842 C353.229067,16.9820211 352.68533,16.9820211 352.592022,16.8508842 C352.456809,16.6608541 352.639476,16.3589705 353.140021,15.9452333 C352.339663,16.1167886 351.857044,16.1167886 351.692164,15.9452333 C351.457286,15.7008445 351.596856,15.372116 352.110873,14.9590478 C350.276054,15.2462779 349.637384,15.2462779 350.194866,14.9590478 C354.938241,12.5151298 362.862116,10.9744028 365.595161,9.19134297 C367.417191,8.0026364 369.2498,6.76664664 371.092988,5.48337369 C372.450775,4.46618481 374.704314,3.3611721 377.853604,2.16833554 C381.002894,0.975498986 385.132365,0.252720472 390.242017,0 Z" id="8"></path>
            <path d="M339.35658,6.3282743 C341.227988,6.00694661 342.77071,6.00694661 343.984747,6.3282743 C346.686196,7.04328595 348.03692,8.13976127 348.03692,9.61770027 L350,12.7343318 L345.467754,12.0870973 C343.460811,12.4465168 342.04755,13.0431046 341.227971,13.8768608 C339.071639,16.0704942 339.588352,16.6324771 335.910963,17.7282412 C332.891009,18.6281073 329.191798,18.9746893 324.813331,18.7679873 L321.751396,18.1371385 L319.479396,18.7679873 L311.102334,21.5583947 C308.141282,23.919246 305.871123,25.4166119 304.291857,26.0504926 C303.750997,26.2675813 303.90103,25.6211847 304.741955,24.1113029 C303.860791,24.6436067 303.333815,24.8640376 303.161029,24.7725955 C302.933363,24.6521099 303.059885,24.2197513 303.540597,23.4755197 C302.701823,23.6095325 302.234759,23.6095325 302.139405,23.4755197 C302.001227,23.2813223 302.234759,22.9531121 302.840001,22.4908891 C301.825162,22.6662065 301.233495,22.6662065 301.065,22.4908891 C300.824971,22.2411408 301.008113,21.8160751 301.614428,21.2156919 L300,20.7968329 L314.715577,15.8939757 L320.108992,12.0870973 C317.065608,10.824789 314.771664,9.88844646 313.227162,9.27806974 C311.803871,8.71559449 313.679296,8.71559449 313.227162,8.55263084 C312.365987,8.24223531 310.298414,8.20348322 310.195791,8.02139953 C310.008235,7.68861927 312.362368,7.96573889 311.803871,7.71398177 C310.87169,7.29377735 308.972544,7.35544841 308.760509,7.14253105 C308.295865,6.67595416 310.77847,7.14524123 310.195791,6.79582489 C309.513802,6.38685565 308.339193,6.51207346 307.540578,6.03891803 C307.108035,5.78264922 309.297921,5.93585806 308.760509,5.69183946 C308.39773,5.52711532 306.90818,5.15185834 304.291857,4.56606852 C306.178199,2.86347859 308.146177,2.02582258 310.195791,2.05310051 C316.410077,2.13580528 322.856033,2.86385099 329.533657,4.23723764 C332.211105,2.35450684 335.226568,1.07859587 338.580047,0.409504731 C338.685788,0.388407126 339.838203,0.0570161774 339.945857,0.12289492 C340.150372,0.24804845 339.34028,0.798470799 339.773588,0.551901907 C340.434981,0.175543239 341.58934,-0.0925124583 342.07715,0.030027197 C342.321359,0.0913733087 341.093906,1.14602259 341.44438,0.875100205 C341.794855,0.604177824 343.545504,0.222007438 343.984747,0.311330281 C344.236554,0.362537039 342.663906,1.63222533 343.430011,1.05804264 C343.940748,0.675254175 344.619996,0.675254175 345.467754,1.05804264 L339.35658,6.3282743 Z" id="7"></path>
            <path d="M289.35658,9.79366017 C291.227988,9.47233247 292.77071,9.47233247 293.984747,9.79366017 C296.686196,10.5086718 298.03692,11.6051471 298.03692,13.0830861 L300,16.1997176 L295.467754,15.5524831 C293.460811,15.9119027 292.04755,16.5084905 291.227971,17.3422466 C289.071639,19.53588 289.588352,20.0978629 285.910963,21.1936271 C282.891009,22.0934932 279.191798,22.4400752 274.813331,22.2333732 L271.751396,21.6025244 L269.479396,22.2333732 L261.102334,25.0237806 C258.141282,27.3846318 255.871123,28.8819978 254.291857,29.5158785 C253.750997,29.7329672 253.90103,29.0865706 254.741955,27.5766887 C253.860791,28.1089925 253.333815,28.3294234 253.161029,28.2379814 C252.933363,28.1174957 253.059885,27.6851371 253.540597,26.9409056 C252.701823,27.0749183 252.234759,27.0749183 252.139405,26.9409056 C252.001227,26.7467081 252.234759,26.4184979 252.840001,25.956275 C251.825162,26.1315924 251.233495,26.1315924 251.065,25.956275 C250.824971,25.7065267 251.008113,25.2814609 251.614428,24.6810778 L250,24.2622187 L264.715577,19.3593615 L270.108992,15.5524831 C264.104553,11.2747941 260.560743,8.55146479 259.477562,7.38249523 C258.65508,6.49487229 261.542675,6.85740856 260.510119,6.43007738 C259.821748,6.14518993 259.22005,5.55406398 258.705025,4.65669954 C260.353856,5.24335513 260.611368,5.24335513 259.477562,4.65669954 C257.776853,3.77671615 257.988888,2.27765084 257.776853,2.06473348 C257.31221,1.59815659 260.77847,2.96181566 260.195791,2.61239932 C259.513802,2.20343008 259.477562,1.2354433 259.477562,0.434779216 C259.477562,0.072768126 264.739062,2.30875208 264.201649,2.06473348 C263.657481,1.81764728 263.227162,0 263.227162,0 C263.227162,0 269.576839,3.23781172 272.507006,3.77671615 C277.948617,4.77751521 280.993624,5.35810529 281.642028,5.51848637 C282.279461,4.41921804 282.847696,3.83862796 283.346734,3.77671615 C283.382175,3.77231929 284.705844,4.51214602 284.705844,4.01728777 C284.705844,3.53440511 284.882011,3.06610896 285.234347,2.61239932 C286.340869,2.25218844 287.038565,1.98989337 287.327437,1.82551411 C287.98883,1.44915544 288.255631,1.11290364 288.743441,1.2354433 C288.987649,1.29678941 289.006106,1.76909522 289.35658,1.49817284 C289.707054,1.22725046 290.003262,0.607999712 290.442504,0.697322555 C290.610376,0.731460394 290.872198,1.10752424 291.227971,1.82551411 C291.594384,1.15884756 292.034804,0.782783706 292.54923,0.697322555 C292.843324,0.648465013 293.232958,1.58629473 293.098187,1.82551411 C292.963416,2.06473348 294.779853,0.914194543 294.779853,1.2354433 C294.779853,2.13613827 293.789941,3.45935195 293.098187,4.26940156 C292.304022,5.19937518 290.90398,5.57038362 290.442504,6.43007738 C289.579062,8.03860378 289.217088,9.15979804 289.35658,9.79366017 Z" id="6"></path>
            <path d="M239.35658,6.3282743 C241.227988,6.00694661 242.77071,6.00694661 243.984747,6.3282743 C246.686196,7.04328595 248.03692,8.13976127 248.03692,9.61770027 L250,12.7343318 L245.467754,12.0870973 C243.460811,12.4465168 242.04755,13.0431046 241.227971,13.8768608 C239.071639,16.0704942 239.588352,16.6324771 235.910963,17.7282412 C232.891009,18.6281073 229.191798,18.9746893 224.813331,18.7679873 L221.751396,18.1371385 L219.479396,18.7679873 L211.102334,21.5583947 C208.141282,23.919246 205.871123,25.4166119 204.291857,26.0504926 C203.750997,26.2675813 203.90103,25.6211847 204.741955,24.1113029 C203.860791,24.6436067 203.333815,24.8640376 203.161029,24.7725955 C202.933363,24.6521099 203.059885,24.2197513 203.540597,23.4755197 C202.701823,23.6095325 202.234759,23.6095325 202.139405,23.4755197 C202.001227,23.2813223 202.234759,22.9531121 202.840001,22.4908891 C201.825162,22.6662065 201.233495,22.6662065 201.065,22.4908891 C200.824971,22.2411408 201.008113,21.8160751 201.614428,21.2156919 L200,20.7968329 L214.715577,15.8939757 L220.108992,12.0870973 C217.065608,10.824789 214.771664,9.88844646 213.227162,9.27806974 C211.803871,8.71559449 213.679296,8.71559449 213.227162,8.55263084 C212.365987,8.24223531 210.298414,8.20348322 210.195791,8.02139953 C210.008235,7.68861927 212.362368,7.96573889 211.803871,7.71398177 C210.87169,7.29377735 208.972544,7.35544841 208.760509,7.14253105 C208.295865,6.67595416 210.77847,7.14524123 210.195791,6.79582489 C209.513802,6.38685565 208.339193,6.51207346 207.540578,6.03891803 C207.108035,5.78264922 209.297921,5.93585806 208.760509,5.69183946 C208.39773,5.52711532 206.90818,5.15185834 204.291857,4.56606852 C206.178199,2.86347859 208.146177,2.02582258 210.195791,2.05310051 C216.410077,2.13580528 222.856033,2.86385099 229.533657,4.23723764 C232.211105,2.35450684 235.226568,1.07859587 238.580047,0.409504731 C238.685788,0.388407126 239.838203,0.0570161774 239.945857,0.12289492 C240.150372,0.24804845 239.34028,0.798470799 239.773588,0.551901907 C240.434981,0.175543239 241.58934,-0.0925124583 242.07715,0.030027197 C242.321359,0.0913733087 241.093906,1.14602259 241.44438,0.875100205 C241.794855,0.604177824 243.545504,0.222007438 243.984747,0.311330281 C244.236554,0.362537039 242.663906,1.63222533 243.430011,1.05804264 C243.940748,0.675254175 244.619996,0.675254175 245.467754,1.05804264 L239.35658,6.3282743 Z" id="5"></path>
            <path d="M190.242017,0 C193.107537,0.13381372 194.682948,0.260732031 194.968253,0.380754933 C198.129659,1.71070773 197.185286,2.59764532 198.129659,3.47550986 C198.759241,4.06075288 199.382688,5.06877265 200,6.49956917 L196.149006,5.74975765 C194.329068,5.97758953 193.018104,6.49943756 192.216113,7.31530175 C190.106055,9.46186093 188.804868,9.744742 186.782921,10.9426424 C184.760974,12.1405428 182.660338,19.2451513 181.912901,20.9744606 C181.165465,22.70377 180.567659,19.9515608 180.392933,19.3518324 C180.34363,19.1826066 179.54561,22.7135826 179.035612,22.4759224 C178.688148,22.314003 178.067471,21.0749468 177.853604,20.1699337 C177.802745,19.9547183 176.812573,23.2087935 176.364452,22.9127937 C176.196631,22.8019419 175.291472,21.206314 175,20.9744606 C174.829648,20.8389534 174.227446,24.4167152 173.228122,24.0976739 C172.228798,23.7786327 172.228798,22.2730837 171.929465,21.784397 C171.900658,21.7373657 170.95415,24.0976739 169.961581,24.0976739 C168.969012,24.0976739 170.424121,20.7067004 169.961581,20.9744606 C168.719666,21.6933942 169.553223,19.3717105 169.106469,19.0959596 C168.470024,18.7031253 168.452725,19.7003443 168.229962,19.6645848 C167.680413,19.5763672 168.58823,17.9406155 168.229962,17.7476413 C167.949253,17.5964429 168.570213,16.8687303 168.229962,15.9452333 C167.889712,15.0217364 168.720006,15.0217364 168.229962,14.6377768 C167.687188,14.212501 167.573771,13.6503328 167.889712,12.9512723 L162.70913,14.6377768 C158.519374,17.240301 156.14222,18.9159037 155.577666,19.6645848 C155.013113,20.4132658 154.766422,19.8584217 154.837592,18.0000522 C154.597097,18.2077812 154.39231,18.2669059 154.223232,18.1774261 C154.000451,18.059526 154.000451,17.6173454 154.223232,16.8508842 C153.229067,16.9820211 152.68533,16.9820211 152.592022,16.8508842 C152.456809,16.6608541 152.639476,16.3589705 153.140021,15.9452333 C152.339663,16.1167886 151.857044,16.1167886 151.692164,15.9452333 C151.457286,15.7008445 151.596856,15.372116 152.110873,14.9590478 C150.276054,15.2462779 149.637384,15.2462779 150.194866,14.9590478 C154.938241,12.5151298 162.862116,10.9744028 165.595161,9.19134297 C167.417191,8.0026364 169.2498,6.76664664 171.092988,5.48337369 C172.450775,4.46618481 174.704314,3.3611721 177.853604,2.16833554 C181.002894,0.975498986 185.132365,0.252720472 190.242017,0 Z" id="4"></path>
            <path d="M140.133894,0.0623453331 C141.350261,-0.0743179995 142.549153,0.0136970705 143.730568,0.326390543 C144.274771,0.470428593 145.462271,0.824320281 145.893818,1.00017398 C146.995891,1.44926455 147.731387,2.31007415 148.100307,3.58260279 L150,6.55062018 L145.893818,6.04435396 C144.065495,6.14216377 142.752556,6.59674505 141.955,7.40809778 C139.85661,9.54278721 140.133894,9.56113873 138.123127,10.7524151 C137.380187,11.1925691 129.223719,18.4099181 128.480416,20.129665 C128.45416,20.1904121 127.873343,19.6142483 127.699583,19.0178362 C127.650553,18.8495462 125.957717,21.4212155 125.45054,21.1848694 C125.104996,21.0238454 125.104996,20.3210097 124.892311,19.421001 C124.841734,19.2069757 123.324671,21.4792325 122.879028,21.1848694 C122.712135,21.0746307 122.770236,19.8017851 122.480375,19.5712138 C122.310965,19.4364559 120.113219,22.8976223 119.800535,22.6780286 C119.592644,22.5320299 119.63653,21.6708539 119.338853,21.1848694 C119.310204,21.1380982 117.945112,23.7219082 116.958031,23.7219082 C115.97095,23.7219082 117.418013,21.2911322 116.958031,21.5574118 C115.722983,22.2723699 114.511766,23.8597831 114.067483,23.585557 C113.434557,23.1948949 115.928924,20.420353 115.707393,20.3847912 C115.160883,20.2970614 115.150039,20.5766983 114.793752,20.3847912 C114.514595,20.2344289 115.956029,19.1496872 115.707393,19.0178362 C115.334179,18.8199217 115.011538,19.2591326 114.793752,19.0178362 C114.406783,18.5890941 116.351657,17.8468721 115.97095,17.3675356 C115.716114,17.0466789 115.277118,17.4807688 115.065202,17.084095 C114.955884,16.8794693 115.319152,16.3095121 116.155006,15.3742234 L117.117035,14.142127 L116.491887,13.6705126 L112.638852,14.8832253 C108.472265,17.4713585 106.108255,19.1376956 105.546824,19.8822368 C104.985392,20.6267779 104.740065,20.0750018 104.810842,18.2269085 C104.571677,18.4334889 104.368022,18.4922866 104.199879,18.4033016 C103.97833,18.2860534 103.97833,17.8463179 104.199879,17.084095 C103.211211,17.2145068 102.670481,17.2145068 102.577689,17.084095 C102.443224,16.8951157 102.62488,16.5949014 103.122658,16.1834521 C102.326725,16.3540587 101.846775,16.3540587 101.682807,16.1834521 C101.449228,15.9404146 101.588025,15.6135039 102.099201,15.2027199 C100.274527,15.4883616 99.6393896,15.4883616 100.193789,15.2027199 C104.910934,12.7723159 112.790993,11.2401086 115.508925,9.46690846 C117.320879,8.28477504 119.143355,7.05561989 120.976351,5.77944301 C122.32663,4.76787885 124.567707,3.66897648 127.699583,2.48273592 C130.831458,1.29649535 134.976228,0.489698486 140.133894,0.0623453331 Z" id="3"></path>
            <path d="M89.7433595,0.232238041 C91.5467608,-0.0774126803 93.0334209,-0.0774126803 94.2033397,0.232238041 C96.8066185,0.921266323 98.1082579,1.97789598 98.1082579,3.40212701 L100,6.40550081 L95.6324546,5.78178667 C93.6984432,6.12814497 92.33654,6.70305295 91.5467447,7.50651058 C89.4687737,9.62042782 89.7433595,9.63860077 87.7521593,10.8182851 C87.0164487,11.2541561 80.1084543,19.4622745 78.2032795,20.104287 C78.0977563,20.1398466 77.6021133,19.5938857 77.4300441,19.0032772 C77.3814912,18.8366248 75.7051286,21.3832697 75.2028859,21.1492235 C74.8607048,20.9897664 74.8607048,20.2937698 74.6500894,19.4025189 C74.6000043,19.1905762 73.0977034,21.4407222 72.6563971,21.1492235 C72.4911282,21.0400574 72.5486634,19.7795976 72.2616234,19.55127 C72.0938622,19.4178234 69.917502,22.84531 69.6078604,22.6278531 C69.4019926,22.483275 69.4454509,21.6304789 69.1506705,21.1492235 C69.1223008,21.1029074 67.7704917,23.6615749 66.7930161,23.6615749 C65.8155405,23.6615749 67.2485223,21.2544522 66.7930161,21.5181407 C65.5699866,22.2261417 64.3705554,23.7981081 63.9305951,23.5265505 C63.3038281,23.1396898 65.7739234,20.3921464 65.5545481,20.3569307 C65.0133559,20.2700546 65.002617,20.5469704 64.6497969,20.3569307 C64.3733566,20.2080315 65.8007646,19.1338452 65.5545481,19.0032772 C65.1849655,18.8072886 64.8654638,19.2422255 64.6497969,19.0032772 C64.2665939,18.5787071 66.1925426,17.8437074 65.8155405,17.3690353 C65.563184,17.0513008 65.1284596,17.4811666 64.9186055,17.0883528 C64.8103515,16.8857183 65.1700846,16.3213072 65.9978048,15.3951196 L66.9504725,14.1750124 L66.3314084,13.7079872 L62.5158665,14.9088993 C58.8698506,17.5286797 56.2859045,19.1439928 54.7640284,19.7548384 C54.2428231,19.9640381 54.2428231,19.4524406 54.7640284,18.2200459 C54.206463,18.4289841 53.8444266,18.4893937 53.6779193,18.4012746 C53.4585263,18.2851674 53.6188901,17.8475268 54.1590108,17.0883528 C52.8640756,17.3067941 52.1706634,17.3514434 52.0787741,17.2223006 C51.9456178,17.0351603 52.2834505,16.693218 53.0922722,16.1964739 C52.045364,16.3654203 51.4407239,16.3654203 51.278352,16.1964739 C51.0470452,15.9558013 51.3138526,15.6320717 52.0787741,15.2252849 C50.2718557,15.5081472 49.6428987,15.5081472 50.191903,15.2252849 C54.8631467,12.8185306 62.6665262,11.301233 65.3580108,9.54528744 C67.1523338,8.37465709 68.895342,7.12015684 70.5870352,5.78178667 C72.0476413,4.8546773 74.3286443,3.80377386 77.4300441,2.62907634 C80.5314439,1.45437881 84.6358823,0.655432714 89.7433595,0.232238041 Z" id="2"></path>
            <path d="M36.5342754,0.4997838 C38.6980772,0.27906523 41.890341,-0.286532294 43.6467158,0.178339883 C46.2522146,0.867955755 47.7388575,2.01271688 48.1066447,3.61262326 L50,6.61855828 L45.62873,5.99431225 C43.4945883,6.26059719 42.0322831,6.79581107 41.2418144,7.59995388 C39.1620712,9.71567382 39.3196619,9.41783543 37.3267637,10.5985258 C36.5904256,11.0347685 34.7947219,11.2588874 32.8879224,11.9014473 C32.7823092,11.9370372 28.661205,16.2069554 28.4889891,15.6158432 C28.4403947,15.4490487 28.6873627,15.850089 28.1846917,15.6158432 C27.8422188,15.4562501 28.3954867,15.2867065 28.1846917,14.3946956 C28.1345639,14.1825722 25.9820258,16.6543124 25.5403432,16.3625651 C25.3749334,16.253306 25.2872847,15.3577307 25,15.1292083 C24.8320957,14.9956479 24.2022361,16.5802075 23.8923304,16.3625651 C23.686287,16.2178638 23.0645005,15.3328229 22.7694687,14.851157 C22.7410747,14.8048014 19.3631297,17.2101282 18.6224536,17.9210252 C17.8817775,18.6319222 18.3956066,16.4721937 17.9397119,16.7361071 C17.3325038,17.0876145 15.7724135,18.670195 15.2924157,18.7807104 C14.8047847,18.8929832 15.4011925,17.5294508 15.2924157,17.4089315 C14.9088859,16.9839993 13.5854481,19.1738273 12.8038439,18.5474262 C12.0222396,17.9210252 14.5281077,16.6236274 14.3180746,16.2304785 C14.1555551,15.9262675 13.3244416,16.4524362 13.4037087,16.2304785 C13.5410687,15.8458537 14.0360621,15.3132572 14.8886888,14.6326889 L13.7098201,14.851157 L13.9808987,14.0042225 C9.10609441,15.9869014 5.95231617,17.9106732 4.51956392,19.7755379 C4.30283228,20.057635 4.30283228,19.5423677 4.51956392,18.229736 C3.75956505,18.3179302 3.29624097,18.3179302 3.12959167,18.229736 C2.91001159,18.1135298 3.18694788,17.6963647 3.96040053,16.9782409 C2.93540183,17.1074938 2.37691869,17.1074938 2.28495111,16.9782409 C2.15168121,16.7909409 2.43322806,16.4743881 3.12959167,16.0285823 C1.80009269,16.1976729 1.05408801,16.1976729 0.89157763,16.0285823 C0.660073586,15.7877046 1.12453141,15.4879133 2.28495111,15.1292083 L0,15.1292083 L14.8886888,9.53303337 L19.5819426,5.99431225 C20.0899363,5.1704514 21.8959554,4.17067134 25,2.99497206 C25.7604689,2.70693409 27.3870327,2.42227489 28.1846917,2.07350877 C31.2791373,0.72050237 34.3704736,0.72050237 36.5342754,0.4997838 Z" id="1"></path>
        </g>
    </g>
</svg>